GeoramaExtended-ExtraLightItalic.ufo
<glyph name="exclam" format="2">
  <advance width="267.574"/>
  <unicode hex="0021"/>
  <outline>
    <contour>
      <point x="114.082" y="263.55" type="line"/>
      <point x="148.78599999999997" y="263.55" type="line"/>
      <point x="225.649" y="740.0" type="line"/>
      <point x="187.885" y="740.0" type="line"/>
    </contour>
    <contour>
      <point x="66.94399999999999" y="15.886" type="curve" smooth="yes"/>
      <point x="66.03399999999999" y="2.8749999999999996"/>
      <point x="71.86999999999998" y="-0.8999999999999999"/>
      <point x="88.641" y="-0.8999999999999999" type="curve" smooth="yes"/>
      <point x="113.133" y="-0.8999999999999999"/>
      <point x="118.79199999999999" y="4.842999999999998"/>
      <point x="121.52199999999999" y="34.025999999999996" type="curve" smooth="yes"/>
      <point x="122.432" y="47.309999999999995"/>
      <point x="116.04999999999998" y="50.812"/>
      <point x="99.615" y="50.812" type="curve" smooth="yes"/>
      <point x="75.40799999999999" y="50.812"/>
      <point x="69.67399999999999" y="44.808"/>
    </contour>
  </outline>
</glyph>
<glyph name="numbersign" format="2">
  <advance width="804.3979999999999"/>
  <unicode hex="0023"/>
  <outline>
    <contour>
      <point x="188.144" y="472.454" type="line"/>
      <point x="318.856" y="472.454" type="line"/>
      <point x="226.56599999999997" y="218.14299999999997" type="line"/>
      <point x="103.94299999999998" y="218.14299999999997" type="line"/>
      <point x="99.20100000000001" y="187.901" type="line"/>
      <point x="216.224" y="187.901" type="line"/>
      <point x="148.716" y="0.0" type="line"/>
      <point x="187.94299999999998" y="0.0" type="line"/>
      <point x="254.54100000000003" y="187.901" type="line"/>
      <point x="460.5039999999999" y="187.901" type="line"/>
      <point x="393.906" y="0.0" type="line"/>
      <point x="432.83299999999997" y="0.0" type="line"/>
      <point x="499.4309999999999" y="187.901" type="line"/>
      <point x="634.246" y="187.901" type="line"/>
      <point x="638.6519999999999" y="218.14299999999997" type="line"/>
      <point x="510.53599999999994" y="218.14299999999997" type="line"/>
      <point x="602.063" y="472.454" type="line"/>
      <point x="722.8530000000001" y="472.454" type="line"/>
      <point x="727.986" y="502.624" type="line"/>
      <point x="613.0419999999999" y="502.624" type="line"/>
      <point x="684.691" y="700.0" type="line"/>
      <point x="645.7369999999999" y="700.0" type="line"/>
      <point x="574.088" y="502.624" type="line"/>
      <point x="368.12499999999994" y="502.624" type="line"/>
      <point x="439.774" y="700.0" type="line"/>
      <point x="400.847" y="700.0" type="line"/>
      <point x="329.198" y="502.624" type="line"/>
      <point x="193.214" y="502.624" type="line"/>
    </contour>
    <contour>
      <point x="357.783" y="472.454" type="line"/>
      <point x="563.7460000000001" y="472.454" type="line"/>
      <point x="471.483" y="218.14299999999997" type="line"/>
      <point x="265.52" y="218.14299999999997" type="line"/>
    </contour>
  </outline>
</glyph>
<glyph name="dollar" format="2">
  <advance width="804.3979999999999"/>
  <unicode hex="0024"/>
  <outline>
    <contour>
      <point x="719.2639999999999" y="671.284" type="line"/>
      <point x="685.675" y="682.898"/>
      <point x="608.3439999999999" y="707.6519999999999"/>
      <point x="502.96" y="709.829" type="curve"/>
      <point x="518.66" y="804.946" type="line"/>
      <point x="486.61999999999995" y="804.946" type="line"/>
      <point x="471.20300000000003" y="709.079" type="line"/>
      <point x="335.66299999999995" y="705.073"/>
      <point x="161.06599999999997" y="653.4979999999999"/>
      <point x="161.06599999999997" y="504.948" type="curve" smooth="yes"/>
      <point x="161.06599999999997" y="289.784"/>
      <point x="647.25" y="370.126"/>
      <point x="647.25" y="188.319" type="curve" smooth="yes"/>
      <point x="647.25" y="60.632000000000005"/>
      <point x="464.94800000000004" y="24.141000000000002"/>
      <point x="360.893" y="24.141000000000002" type="curve" smooth="yes"/>
      <point x="247.15699999999998" y="24.141000000000002"/>
      <point x="113.94699999999999" y="61.239"/>
      <point x="73.67200000000001" y="77.00999999999999" type="curve"/>
      <point x="59.047999999999995" y="42.535" type="line"/>
      <point x="112.10699999999999" y="25.298000000000002"/>
      <point x="225.42399999999998" y="-7.840999999999999"/>
      <point x="347.693" y="-9.775" type="curve"/>
      <point x="332.693" y="-105.0" type="line"/>
      <point x="364.66999999999996" y="-105.0" type="line"/>
      <point x="379.66999999999996" y="-9.105999999999998" type="line"/>
      <point x="518.07" y="-4.388999999999999"/>
      <point x="689.3539999999999" y="45.114000000000004"/>
      <point x="689.3539999999999" y="195.024" type="curve" smooth="yes"/>
      <point x="689.3539999999999" y="407.079"/>
      <point x="202.434" y="326.943"/>
      <point x="202.434" y="511.08400000000006" type="curve" smooth="yes"/>
      <point x="202.434" y="637.816"/>
      <point x="380.7579999999999" y="675.937"/>
      <point x="478.42499999999995" y="675.937" type="curve" smooth="yes"/>
      <point x="584.9999999999999" y="675.937"/>
      <point x="656.089" y="655.634"/>
      <point x="705.318" y="637.436" type="curve"/>
    </contour>
  </outline>
</glyph>
<glyph name="ampersand" format="2">
  <advance width="843.4939999999999"/>
  <unicode hex="0026"/>
  <outline>
    <contour>
      <point x="324.281" y="-10.0" type="curve" smooth="yes"/>
      <point x="495.1619999999999" y="-10.0"/>
      <point x="647.383" y="83.91599999999998"/>
      <point x="693.9449999999999" y="286.42499999999995" type="curve"/>
      <point x="660.069" y="291.58" type="line"/>
      <point x="620.135" y="110.22600000000003"/>
      <point x="476.87300000000005" y="22.586999999999996"/>
      <point x="327.32000000000005" y="22.586999999999996" type="curve" smooth="yes"/>
      <point x="175.691" y="22.586999999999996"/>
      <point x="96.556" y="83.08399999999999"/>
      <point x="96.556" y="164.44600000000003" type="curve" smooth="yes"/>
      <point x="96.556" y="306.571"/>
      <point x="257.97700000000003" y="359.74399999999997"/>
      <point x="410.16999999999996" y="359.74399999999997" type="curve" smooth="yes"/>
      <point x="423.14799999999997" y="359.74399999999997" type="line"/>
      <point x="426.766" y="388.549" type="line"/>
      <point x="418.93100000000004" y="388.909" type="line" smooth="yes"/>
      <point x="299.70300000000003" y="390.583"/>
      <point x="214.46599999999998" y="440.597"/>
      <point x="214.46599999999998" y="532.7779999999999" type="curve" smooth="yes"/>
      <point x="214.46599999999998" y="605.8910000000001"/>
      <point x="275.801" y="680.6540000000001"/>
      <point x="399.27" y="680.6540000000001" type="curve" smooth="yes"/>
      <point x="470.10499999999996" y="680.6540000000001"/>
      <point x="544.093" y="652.201"/>
      <point x="586.7860000000001" y="609.501" type="curve"/>
      <point x="608.981" y="634.397" type="line"/>
      <point x="563.284" y="679.8549999999999"/>
      <point x="478.43499999999995" y="710.0"/>
      <point x="396.914" y="710.0" type="curve" smooth="yes"/>
      <point x="248.573" y="710.0"/>
      <point x="174.192" y="623.737"/>
      <point x="174.192" y="535.7239999999999" type="curve" smooth="yes"/>
      <point x="174.192" y="449.66299999999995"/>
      <point x="243.251" y="390.21600000000007"/>
      <point x="335.543" y="378.62" type="curve"/>
      <point x="176.72299999999996" y="367.65999999999997"/>
      <point x="55.796" y="296.38100000000003"/>
      <point x="55.796" y="162.21099999999998" type="curve" smooth="yes"/>
      <point x="55.796" y="63.42400000000001"/>
      <point x="141.447" y="-10.0"/>
    </contour>
    <contour>
      <point x="476.52" y="231.40999999999997" type="line"/>
      <point x="480.61499999999995" y="282.947"/>
      <point x="518.569" y="307.354"/>
      <point x="558.6249999999999" y="307.354" type="curve" smooth="yes"/>
      <point x="636.857" y="307.354"/>
      <point x="667.416" y="267.314"/>
      <point x="747.509" y="267.314" type="curve" smooth="yes"/>
      <point x="813.6949999999999" y="267.314"/>
      <point x="856.668" y="315.779"/>
      <point x="858.5039999999999" y="378.502" type="curve"/>
      <point x="829.469" y="380.959" type="line"/>
      <point x="827.5039999999999" y="331.704"/>
      <point x="793.968" y="297.33299999999997"/>
      <point x="741.018" y="297.33299999999997" type="curve" smooth="yes"/>
      <point x="668.44" y="297.33299999999997"/>
      <point x="633.8439999999999" y="338.129"/>
      <point x="556.7719999999999" y="338.129" type="curve" smooth="yes"/>
      <point x="502.772" y="338.129"/>
      <point x="455.39899999999994" y="301.93899999999996"/>
      <point x="450.212" y="241.74100000000004" type="curve"/>
    </contour>
  </outline>
</glyph>
<glyph name="quotesingle" format="2">
  <advance width="168.919"/>
  <unicode hex="0027"/>
  <outline>
    <contour>
      <point x="93.846" y="427.0" type="line"/>
      <point x="122.812" y="427.0" type="line"/>
      <point x="170.35199999999998" y="700.0" type="line"/>
      <point x="132.56699999999998" y="700.0" type="line"/>
    </contour>
  </outline>
</glyph>
<glyph name="parenleft" format="2">
  <advance width="375.19899999999996"/>
  <unicode hex="0028"/>
  <outline>
    <contour>
      <point x="101.044" y="84.24" type="curve" smooth="yes"/>
      <point x="101.044" y="-66.548"/>
      <point x="148.089" y="-191.183"/>
      <point x="263.942" y="-220.0" type="curve"/>
      <point x="271.769" y="-189.82" type="line"/>
      <point x="183.70799999999997" y="-166.69700000000003"/>
      <point x="135.269" y="-60.11900000000001"/>
      <point x="135.269" y="88.876" type="curve" smooth="yes"/>
      <point x="135.269" y="340.227"/>
      <point x="249.475" y="674.9230000000001"/>
      <point x="414.09200000000004" y="718.224" type="curve"/>
      <point x="416.40500000000003" y="749.7270000000001" type="line"/>
      <point x="190.362" y="693.342"/>
      <point x="101.044" y="317.097"/>
    </contour>
  </outline>
</glyph>
<glyph name="parenright" format="2">
  <advance width="375.19899999999996"/>
  <unicode hex="0029"/>
  <outline>
    <contour>
      <point x="271.36499999999995" y="444.48600000000005" type="curve" smooth="yes"/>
      <point x="271.36499999999995" y="599.4110000000001"/>
      <point x="223.319" y="721.183"/>
      <point x="106.829" y="750.0" type="curve"/>
      <point x="99.548" y="717.4119999999999" type="line"/>
      <point x="194.525" y="691.377"/>
      <point x="237.14000000000001" y="582.251"/>
      <point x="237.14000000000001" y="443.08399999999995" type="curve" smooth="yes"/>
      <point x="237.14000000000001" y="204.382"/>
      <point x="127.11999999999999" y="-140.64600000000002"/>
      <point x="-43.230000000000004" y="-187.496" type="curve"/>
      <point x="-45.269999999999996" y="-220.0" type="line"/>
      <point x="156.65800000000002" y="-165.93200000000002"/>
      <point x="271.36499999999995" y="181.59200000000004"/>
    </contour>
  </outline>
</glyph>
<glyph name="asterisk" format="2">
  <advance width="380.578"/>
  <unicode hex="002A"/>
  <outline>
    <contour>
      <point x="108.592" y="335.81000000000006" type="line"/>
      <point x="222.756" y="478.678" type="line"/>
      <point x="289.84599999999995" y="336.083" type="line"/>
      <point x="310.421" y="349.30899999999997" type="line"/>
      <point x="245.84599999999998" y="498.037" type="line"/>
      <point x="399.46900000000005" y="554.852" type="line"/>
      <point x="395.224" y="577.658" type="line"/>
      <point x="244.025" y="526.098" type="line"/>
      <point x="270.81" y="702.697" type="line"/>
      <point x="245.931" y="702.697" type="line"/>
      <point x="216.78799999999998" y="526.3710000000001" type="line"/>
      <point x="80.288" y="577.9309999999999" type="line"/>
      <point x="70.196" y="555.398" type="line"/>
      <point x="205.027" y="498.58299999999997" type="line"/>
      <point x="91.153" y="350.583" type="line"/>
    </contour>
  </outline>
</glyph>
<glyph name="plus" format="2">
  <advance width="476.159"/>
  <unicode hex="002B"/>
  <outline>
    <contour>
      <point x="189.729" y="75.402" type="line"/>
      <point x="224.82299999999998" y="75.402" type="line"/>
      <point x="255.85399999999998" y="274.91200000000003" type="line"/>
      <point x="420.576" y="274.91200000000003" type="line"/>
      <point x="426.12300000000005" y="308.8" type="line"/>
      <point x="261.401" y="308.8" type="line"/>
      <point x="293.132" y="508.52" type="line"/>
      <point x="258.164" y="508.52" type="line"/>
      <point x="226.307" y="308.8" type="line"/>
      <point x="61.501" y="308.8" type="line"/>
      <point x="55.95399999999999" y="274.91200000000003" type="line"/>
      <point x="220.88599999999997" y="274.91200000000003" type="line"/>
    </contour>
  </outline>
</glyph>
<glyph name="comma" format="2">
  <advance width="190.028"/>
  <unicode hex="002C"/>
  <outline>
    <contour>
      <point x="39.987" y="37.108000000000004" type="line"/>
      <point x="42.718" y="23.075"/>
      <point x="43.632" y="8.204"/>
      <point x="43.299" y="-5.871999999999999" type="curve" smooth="yes"/>
      <point x="42.174" y="-69.459"/>
      <point x="0.30699999999999744" y="-151.49299999999997"/>
      <point x="-61.942" y="-182.853" type="curve"/>
      <point x="-40.12000000000001" y="-200.198" type="line"/>
      <point x="40.010000000000005" y="-161.21899999999997"/>
      <point x="82.635" y="-62.163"/>
      <point x="82.635" y="3.0780000000000003" type="curve" smooth="yes"/>
      <point x="82.635" y="17.927"/>
      <point x="80.634" y="31.839"/>
      <point x="76.71399999999998" y="44.842000000000006" type="curve"/>
    </contour>
  </outline>
</glyph>
<glyph name="hyphen" format="2">
  <advance width="386.06199999999995"/>
  <unicode hex="002D"/>
  <outline>
    <contour>
      <point x="56.57499999999999" y="251.304" type="line"/>
      <point x="322.05299999999994" y="251.304" type="line"/>
      <point x="327.981" y="286.39599999999996" type="line"/>
      <point x="62.503" y="286.39599999999996" type="line"/>
    </contour>
  </outline>
</glyph>
<glyph name="period" format="2">
  <advance width="190.847"/>
  <unicode hex="002E"/>
  <outline>
    <contour>
      <point x="28.372" y="15.966999999999999" type="curve" smooth="yes"/>
      <point x="27.462000000000003" y="2.9290000000000003"/>
      <point x="33.270999999999994" y="-0.819"/>
      <point x="50.068999999999996" y="-0.819" type="curve" smooth="yes"/>
      <point x="74.56099999999999" y="-0.819"/>
      <point x="80.19300000000001" y="4.9239999999999995"/>
      <point x="82.923" y="34.161" type="curve" smooth="yes"/>
      <point x="83.833" y="47.418"/>
      <point x="77.478" y="50.893"/>
      <point x="61.043" y="50.893" type="curve" smooth="yes"/>
      <point x="36.809000000000005" y="50.893"/>
      <point x="31.102000000000004" y="44.889"/>
    </contour>
  </outline>
</glyph>
<glyph name="slash" format="2">
  <advance width="376.505"/>
  <unicode hex="002F"/>
  <outline>
    <contour>
      <point x="-67.26700000000001" y="-210.0" type="line"/>
      <point x="-30.942" y="-210.0" type="line"/>
      <point x="440.77200000000005" y="740.0" type="line"/>
      <point x="404.33" y="740.0" type="line"/>
    </contour>
  </outline>
</glyph>
<glyph name="zero" format="2">
  <advance width="804.5059999999999"/>
  <unicode hex="0030"/>
  <outline>
    <contour>
      <point x="383.00199999999995" y="-10.18" type="curve" smooth="yes"/>
      <point x="623.2719999999999" y="-10.18"/>
      <point x="766.4" y="198.09600000000003"/>
      <point x="766.4" y="430.12999999999994" type="curve" smooth="yes"/>
      <point x="766.4" y="615.578"/>
      <point x="650.548" y="710.09"/>
      <point x="444.348" y="710.09" type="curve" smooth="yes"/>
      <point x="202.60399999999998" y="710.09"/>
      <point x="61.523999999999994" y="502.782"/>
      <point x="61.523999999999994" y="271.288" type="curve" smooth="yes"/>
      <point x="61.523999999999994" y="85.92999999999999"/>
      <point x="178.13" y="-10.18"/>
    </contour>
    <contour>
      <point x="383.99199999999996" y="23.580000000000002" type="curve" smooth="yes"/>
      <point x="203.80799999999996" y="23.580000000000002"/>
      <point x="102.328" y="107.42"/>
      <point x="102.574" y="271.58200000000005" type="curve" smooth="yes"/>
      <point x="103.066" y="487.002"/>
      <point x="226.68200000000002" y="676.4200000000001"/>
      <point x="443.44800000000004" y="676.4200000000001" type="curve" smooth="yes"/>
      <point x="624.78" y="676.4200000000001"/>
      <point x="725.596" y="593.9979999999999"/>
      <point x="725.3499999999999" y="429.836" type="curve" smooth="yes"/>
      <point x="724.858" y="215.26000000000002"/>
      <point x="599.914" y="23.580000000000002"/>
    </contour>
  </outline>
</glyph>
<glyph name="one" format="2">
  <advance width="804.3979999999999"/>
  <unicode hex="0031"/>
  <outline>
    <contour>
      <point x="68.31599999999999" y="0.0" type="line"/>
      <point x="701.867" y="0.0" type="line"/>
      <point x="707.378" y="34.483000000000004" type="line"/>
      <point x="437.59899999999993" y="34.483000000000004" type="line"/>
      <point x="544.6679999999999" y="706.37" type="line"/>
      <point x="523.489" y="706.37" type="line"/>
      <point x="140.798" y="527.8359999999999" type="line"/>
      <point x="148.59599999999998" y="494.76399999999995" type="line"/>
      <point x="496.865" y="656.7070000000001" type="line"/>
      <point x="398.11299999999994" y="34.483000000000004" type="line"/>
      <point x="73.79999999999998" y="34.483000000000004" type="line"/>
    </contour>
  </outline>
</glyph>
<glyph name="two" format="2">
  <advance width="804.5059999999999"/>
  <unicode hex="0032"/>
  <outline>
    <contour>
      <point x="79.83799999999998" y="28.43" type="curve"/>
      <point x="78.44" y="0.0" type="line"/>
      <point x="681.6139999999999" y="0.0" type="line"/>
      <point x="685.412" y="34.12" type="line"/>
      <point x="154.02199999999996" y="34.12" type="line"/>
      <point x="535.978" y="241.59799999999998"/>
      <point x="644.104" y="372.50800000000004"/>
      <point x="644.104" y="531.9459999999999" type="curve" smooth="yes"/>
      <point x="644.104" y="652.884"/>
      <point x="543.102" y="710.0"/>
      <point x="408.414" y="710.0" type="curve" smooth="yes"/>
      <point x="327.17599999999993" y="710.0"/>
      <point x="233.35399999999998" y="685.436"/>
      <point x="167.284" y="646.8720000000001" type="curve"/>
      <point x="177.20399999999998" y="615.342" type="line"/>
      <point x="242.15200000000002" y="650.892"/>
      <point x="325.484" y="675.228"/>
      <point x="401.488" y="675.228" type="curve" smooth="yes"/>
      <point x="515.096" y="675.228"/>
      <point x="603.054" y="627.61"/>
      <point x="603.054" y="523.338" type="curve" smooth="yes"/>
      <point x="602.808" y="379.702"/>
      <point x="478.734" y="244.70999999999998"/>
    </contour>
  </outline>
</glyph>
<glyph name="three" format="2">
  <advance width="804.6700000000001"/>
  <unicode hex="0033"/>
  <outline>
    <contour>
      <point x="22.629999999999995" y="68.29999999999998" type="line"/>
      <point x="110.53999999999998" y="16.330000000000002"/>
      <point x="216.30999999999997" y="-10.0"/>
      <point x="355.2" y="-10.0" type="curve" smooth="yes"/>
      <point x="570.4799999999999" y="-10.0"/>
      <point x="698.94" y="75.36"/>
      <point x="698.94" y="217.98000000000002" type="curve" smooth="yes"/>
      <point x="698.94" y="309.09000000000003"/>
      <point x="633.2700000000001" y="358.09999999999997"/>
      <point x="532.6499999999997" y="371.09000000000003" type="curve"/>
      <point x="617.06" y="387.26000000000005"/>
      <point x="697.77" y="446.71000000000004"/>
      <point x="697.77" y="549.18" type="curve" smooth="yes"/>
      <point x="697.77" y="649.18"/>
      <point x="602.1800000000001" y="710.0"/>
      <point x="426.32000000000005" y="710.0" type="curve" smooth="yes"/>
      <point x="350.47" y="710.0"/>
      <point x="244.54" y="696.2800000000001"/>
      <point x="165.57999999999998" y="668.93" type="curve"/>
      <point x="175.45999999999998" y="637.26" type="line"/>
      <point x="252.69999999999996" y="662.94"/>
      <point x="349.03" y="675.5699999999999"/>
      <point x="418.65" y="675.5699999999999" type="curve" smooth="yes"/>
      <point x="567.35" y="675.5699999999999"/>
      <point x="656.67" y="626.9399999999999"/>
      <point x="656.67" y="542.52" type="curve" smooth="yes"/>
      <point x="656.67" y="436.11"/>
      <point x="554.53" y="383.62999999999994"/>
      <point x="443.9" y="383.62999999999994" type="curve" smooth="yes"/>
      <point x="254.95999999999998" y="383.62999999999994" type="line"/>
      <point x="249.61999999999998" y="350.94999999999993" type="line"/>
      <point x="433.35999999999996" y="350.94999999999993" type="line" smooth="yes"/>
      <point x="579.6899999999998" y="350.94999999999993"/>
      <point x="656.7" y="307.06"/>
      <point x="656.7" y="213.35" type="curve" smooth="yes"/>
      <point x="656.7" y="95.54000000000002"/>
      <point x="543.63" y="24.43"/>
      <point x="360.78" y="24.43" type="curve" smooth="yes"/>
      <point x="223.54999999999998" y="24.43"/>
      <point x="127.41999999999996" y="49.17"/>
      <point x="41.39" y="98.61000000000001" type="curve"/>
    </contour>
  </outline>
</glyph>
<glyph name="four" format="2">
  <advance width="804.6700000000001"/>
  <unicode hex="0034"/>
  <outline>
    <contour>
      <point x="55.599999999999994" y="191.06" type="line"/>
      <point x="531.4799999999999" y="191.06" type="line"/>
      <point x="500.2799999999999" y="-4.550000000000001" type="line"/>
      <point x="540.29" y="-4.550000000000001" type="line"/>
      <point x="571.0799999999999" y="191.06" type="line"/>
      <point x="729.53" y="191.06" type="line"/>
      <point x="734.6899999999999" y="224.14999999999998" type="line"/>
      <point x="576.3299999999998" y="224.14999999999998" type="line"/>
      <point x="651.15" y="695.54" type="line"/>
      <point x="624.9399999999999" y="703.2299999999999" type="line"/>
      <point x="56.76" y="218.99" type="line"/>
    </contour>
    <contour>
      <point x="108.58999999999999" y="224.14999999999998" type="line"/>
      <point x="604.1800000000002" y="645.25" type="line"/>
      <point x="536.91" y="224.14999999999998" type="line"/>
    </contour>
  </outline>
</glyph>
<glyph name="five" format="2">
  <advance width="804.5059999999999"/>
  <unicode hex="0035"/>
  <outline>
    <contour>
      <point x="49.261999999999986" y="69.276" type="line"/>
      <point x="121.28399999999999" y="19.2"/>
      <point x="209.06799999999996" y="-10.0"/>
      <point x="346.294" y="-10.0" type="curve" smooth="yes"/>
      <point x="604.164" y="-10.0"/>
      <point x="703.046" y="111.15"/>
      <point x="703.046" y="241.87199999999999" type="curve" smooth="yes"/>
      <point x="703.046" y="350.83799999999997"/>
      <point x="630.6340000000001" y="406.256"/>
      <point x="474.892" y="406.25600000000003" type="curve" smooth="yes"/>
      <point x="184.21" y="406.25600000000003" type="line"/>
      <point x="259.27" y="664.734" type="line"/>
      <point x="717.41" y="664.734" type="line"/>
      <point x="723.6840000000001" y="700.0" type="line"/>
      <point x="234.348" y="700.0" type="line"/>
      <point x="141.27200000000002" y="383.30600000000004" type="line"/>
      <point x="148.85399999999998" y="373.15" type="line"/>
      <point x="454.236" y="373.15" type="line" smooth="yes"/>
      <point x="598.952" y="373.15"/>
      <point x="662.4680000000001" y="331.01200000000006"/>
      <point x="662.4680000000001" y="234.54" type="curve" smooth="yes"/>
      <point x="662.4680000000001" y="123.002"/>
      <point x="551.66" y="24.479999999999997"/>
      <point x="351.1039999999999" y="24.479999999999997" type="curve" smooth="yes"/>
      <point x="218.67" y="24.479999999999997"/>
      <point x="134.56600000000003" y="55.802"/>
      <point x="67.318" y="100.02000000000001" type="curve"/>
    </contour>
  </outline>
</glyph>
<glyph name="six" format="2">
  <advance width="804.67"/>
  <unicode hex="0036"/>
  <note>
14
</note>
  <outline>
    <contour>
      <point x="396.03" y="-10.0" type="curve" smooth="yes"/>
      <point x="610.43" y="-10.0"/>
      <point x="741.8999999999999" y="77.95"/>
      <point x="741.8999999999999" y="232.93" type="curve" smooth="yes"/>
      <point x="741.8999999999999" y="365.9"/>
      <point x="647.3599999999999" y="431.15"/>
      <point x="471.53999999999996" y="431.15" type="curve" smooth="yes"/>
      <point x="351.81999999999994" y="431.15"/>
      <point x="207.89" y="395.17"/>
      <point x="118.13999999999999" y="329.05" type="curve"/>
      <point x="115.1" y="288.85" type="line"/>
      <point x="198.18999999999997" y="357.21999999999997"/>
      <point x="335.99999999999994" y="397.74999999999994"/>
      <point x="462.16999999999996" y="397.74999999999994" type="curve" smooth="yes"/>
      <point x="622.46" y="397.74999999999994"/>
      <point x="701.6099999999999" y="340.53000000000003"/>
      <point x="701.6099999999999" y="231.04000000000002" type="curve" smooth="yes"/>
      <point x="701.6099999999999" y="102.36"/>
      <point x="591.4" y="24.03"/>
      <point x="403.68999999999994" y="24.03" type="curve" smooth="yes"/>
      <point x="211.57999999999998" y="24.03"/>
      <point x="120.17999999999999" y="99.03"/>
      <point x="120.17999999999999" y="262.02" type="curve" smooth="yes"/>
      <point x="120.17999999999999" y="404.90999999999997"/>
      <point x="167.96999999999997" y="518.7299999999999"/>
      <point x="254.58999999999997" y="589.76" type="curve" smooth="yes"/>
      <point x="322.34000000000003" y="645.83"/>
      <point x="413.59999999999997" y="675.34"/>
      <point x="521.36" y="675.34" type="curve" smooth="yes"/>
      <point x="608.06" y="675.34"/>
      <point x="682.89" y="663.52"/>
      <point x="758.86" y="637.0099999999999" type="curve"/>
      <point x="772.94" y="669.91" type="line"/>
      <point x="699.1899999999999" y="695.8699999999999"/>
      <point x="612.52" y="710.0"/>
      <point x="522.9599999999999" y="710.0" type="curve" smooth="yes"/>
      <point x="248.70999999999998" y="710.0"/>
      <point x="80.10999999999999" y="541.09"/>
      <point x="80.10999999999999" y="256.38" type="curve" smooth="yes"/>
      <point x="80.10999999999999" y="77.41"/>
      <point x="186.35" y="-10.0"/>
    </contour>
  </outline>
</glyph>
<glyph name="seven" format="2">
  <advance width="804.3979999999999"/>
  <unicode hex="0037"/>
  <note>
9
</note>
  <outline>
    <contour>
      <point x="239.309" y="0.0" type="curve"/>
      <point x="282.78099999999995" y="0.0" type="line"/>
      <point x="306.36299999999994" y="145.529"/>
      <point x="372.656" y="236.71099999999998"/>
      <point x="534.2429999999999" y="425.033" type="curve" smooth="yes"/>
      <point x="743.9469999999999" y="669.4749999999999" type="line"/>
      <point x="749.0439999999999" y="700.0" type="line"/>
      <point x="137.43699999999998" y="700.0" type="line"/>
      <point x="131.899" y="663.629" type="line"/>
      <point x="693.6909999999999" y="663.629" type="line"/>
      <point x="496.34599999999995" y="437.865" type="line" smooth="yes"/>
      <point x="338.562" y="257.211"/>
      <point x="265.005" y="161.985"/>
    </contour>
  </outline>
</glyph>
<glyph name="eight" format="2">
  <advance width="804.67"/>
  <unicode hex="0038"/>
  <outline>
    <contour>
      <point x="367.68999999999994" y="-10.0" type="curve" smooth="yes"/>
      <point x="568.7199999999999" y="-10.0"/>
      <point x="728.8399999999999" y="45.55000000000001"/>
      <point x="728.8399999999999" y="205.89000000000001" type="curve" smooth="yes"/>
      <point x="728.8399999999999" y="464.65"/>
      <point x="177.45" y="310.8"/>
      <point x="177.45" y="527.6600000000001" type="curve" smooth="yes"/>
      <point x="177.45" y="633.93"/>
      <point x="303.52000000000004" y="676.96"/>
      <point x="458.40999999999997" y="676.96" type="curve" smooth="yes"/>
      <point x="633.3799999999999" y="676.96"/>
      <point x="708.2499999999999" y="628.02"/>
      <point x="708.2499999999999" y="548.15" type="curve" smooth="yes"/>
      <point x="708.2499999999999" y="452.48999999999995"/>
      <point x="646.3399999999999" y="403.64"/>
      <point x="534.8199999999999" y="358.57" type="curve"/>
      <point x="570.87" y="347.39000000000004" type="line"/>
      <point x="673.4" y="389.54"/>
      <point x="746.33" y="446.09"/>
      <point x="746.33" y="552.1600000000001" type="curve" smooth="yes"/>
      <point x="746.33" y="648.79"/>
      <point x="660.01" y="710.0"/>
      <point x="459.85" y="710.0" type="curve" smooth="yes"/>
      <point x="283.37" y="710.0"/>
      <point x="138.55999999999997" y="659.28"/>
      <point x="138.55999999999997" y="522.1800000000001" type="curve" smooth="yes"/>
      <point x="138.55999999999997" y="276.11"/>
      <point x="687.61" y="432.56"/>
      <point x="687.61" y="201.73999999999998" type="curve" smooth="yes"/>
      <point x="687.61" y="68.09"/>
      <point x="547.42" y="21.959999999999997"/>
      <point x="370.49" y="21.959999999999997" type="curve" smooth="yes"/>
      <point x="176.53" y="21.959999999999997"/>
      <point x="85.1" y="78.22"/>
      <point x="85.1" y="176.42000000000002" type="curve" smooth="yes"/>
      <point x="85.1" y="280.11999999999995"/>
      <point x="169.85000000000002" y="348.62999999999994"/>
      <point x="290.5" y="385.0199999999999" type="curve"/>
      <point x="250.30999999999997" y="398.73" type="line"/>
      <point x="132.92999999999998" y="359.79"/>
      <point x="44.86" y="287.52"/>
      <point x="44.86" y="169.79999999999998" type="curve" smooth="yes"/>
      <point x="44.86" y="55.85"/>
      <point x="146.73" y="-10.0"/>
    </contour>
  </outline>
</glyph>
<glyph name="nine" format="2">
  <advance width="804.67"/>
  <unicode hex="0039"/>
  <outline>
    <contour>
      <point x="439.36999999999995" y="710.0" type="curve" smooth="yes"/>
      <point x="220.56" y="710.0"/>
      <point x="97.6" y="618.9899999999999"/>
      <point x="97.6" y="466.44" type="curve" smooth="yes"/>
      <point x="97.6" y="333.47"/>
      <point x="192.13999999999996" y="268.84999999999997"/>
      <point x="367.96000000000004" y="268.84999999999997" type="curve" smooth="yes"/>
      <point x="487.67999999999995" y="268.84999999999997"/>
      <point x="631.6099999999999" y="304.83"/>
      <point x="721.36" y="370.95000000000005" type="curve"/>
      <point x="724.4" y="411.15" type="line"/>
      <point x="641.3100000000001" y="342.78000000000003"/>
      <point x="503.5" y="302.25"/>
      <point x="377.33" y="302.25" type="curve" smooth="yes"/>
      <point x="217.04" y="302.25"/>
      <point x="137.89" y="359.46999999999997"/>
      <point x="137.89" y="468.96" type="curve" smooth="yes"/>
      <point x="137.89" y="597.6399999999999"/>
      <point x="243.99999999999997" y="675.9700000000001"/>
      <point x="431.71000000000004" y="675.9700000000001" type="curve" smooth="yes"/>
      <point x="623.8199999999999" y="675.9700000000001"/>
      <point x="719.3199999999999" y="600.97"/>
      <point x="719.3199999999999" y="437.98" type="curve" smooth="yes"/>
      <point x="719.3199999999999" y="295.09000000000003"/>
      <point x="671.8" y="181.0"/>
      <point x="585.18" y="109.97" type="curve" smooth="yes"/>
      <point x="517.43" y="53.9"/>
      <point x="426.16999999999996" y="24.39"/>
      <point x="318.40999999999997" y="24.39" type="curve" smooth="yes"/>
      <point x="231.70999999999995" y="24.39"/>
      <point x="156.60999999999996" y="36.48"/>
      <point x="80.63999999999999" y="62.99" type="curve"/>
      <point x="66.55999999999999" y="30.09" type="line"/>
      <point x="140.30999999999997" y="4.13"/>
      <point x="226.98" y="-10.0"/>
      <point x="316.53999999999996" y="-10.0" type="curve" smooth="yes"/>
      <point x="590.79" y="-10.0"/>
      <point x="759.39" y="158.91000000000003"/>
      <point x="759.39" y="443.6199999999999" type="curve" smooth="yes"/>
      <point x="759.39" y="621.87"/>
      <point x="650.0400000000001" y="710.0"/>
    </contour>
  </outline>
</glyph>
<glyph name="less" format="2">
  <advance width="476.93399999999997"/>
  <unicode hex="003C"/>
  <outline>
    <contour>
      <point x="389.187" y="72.48899999999999" type="line"/>
      <point x="394.653" y="109.125" type="line"/>
      <point x="93.205" y="291.448" type="line"/>
      <point x="452.712" y="474.008" type="line"/>
      <point x="458.178" y="511.92600000000004" type="line"/>
      <point x="61.372" y="311.081" type="line"/>
      <point x="55.489000000000004" y="273.663" type="line"/>
    </contour>
  </outline>
</glyph>
<glyph name="equal" format="2">
  <advance width="475.361"/>
  <unicode hex="003D"/>
  <outline>
    <contour>
      <point x="408.575" y="205.442" type="line"/>
      <point x="45.195" y="205.442" type="line"/>
      <point x="39.70199999999999" y="171.281" type="line"/>
      <point x="403.08200000000005" y="171.281" type="line"/>
    </contour>
    <contour>
      <point x="441.11499999999995" y="414.435" type="line"/>
      <point x="77.69899999999998" y="414.435" type="line"/>
      <point x="72.242" y="380.274" type="line"/>
      <point x="435.622" y="380.274" type="line"/>
    </contour>
  </outline>
</glyph>
<glyph name="greater" format="2">
  <advance width="476.93399999999997"/>
  <unicode hex="003E"/>
  <outline>
    <contour>
      <point x="420.98999999999995" y="272.844" type="line"/>
      <point x="426.74699999999996" y="309.317" type="line"/>
      <point x="92.929" y="510.75" type="line"/>
      <point x="87.337" y="474.645" type="line"/>
      <point x="389.14799999999997" y="291.721" type="line"/>
      <point x="29.676999999999996" y="110.035" type="line"/>
      <point x="23.875000000000004" y="71.94300000000001" type="line"/>
    </contour>
  </outline>
</glyph>
<glyph name="question" format="2">
  <advance width="533.555"/>
  <unicode hex="003F"/>
  <outline>
    <contour>
      <point x="222.265" y="261.729" type="line"/>
      <point x="256.90599999999995" y="261.729" type="line"/>
      <point x="268.143" y="329.718" type="line"/>
      <point x="445.24399999999997" y="383.196"/>
      <point x="542.8989999999999" y="450.821"/>
      <point x="542.8989999999999" y="593.204" type="curve" smooth="yes"/>
      <point x="542.8989999999999" y="710.075"/>
      <point x="439.31800000000004" y="750.0"/>
      <point x="340.875" y="750.0" type="curve" smooth="yes"/>
      <point x="253.867" y="750.0"/>
      <point x="153.94" y="723.391"/>
      <point x="74.67199999999998" y="676.1350000000001" type="curve"/>
      <point x="84.36" y="646.5340000000001" type="line"/>
      <point x="162.29700000000003" y="689.5459999999999"/>
      <point x="252.81199999999998" y="715.399"/>
      <point x="333.32099999999997" y="715.399" type="curve" smooth="yes"/>
      <point x="420.77299999999997" y="715.399"/>
      <point x="501.92499999999995" y="684.048"/>
      <point x="501.92499999999995" y="584.988" type="curve" smooth="yes"/>
      <point x="501.92499999999995" y="483.522"/>
      <point x="442.06699999999995" y="406.87399999999997"/>
      <point x="236.16799999999998" y="352.87899999999996" type="curve"/>
    </contour>
    <contour>
      <point x="180.253" y="14.011" type="curve" smooth="yes"/>
      <point x="180.07" y="2.758"/>
      <point x="185.789" y="-0.8999999999999999"/>
      <point x="201.896" y="-0.8999999999999999" type="curve" smooth="yes"/>
      <point x="225.20399999999998" y="-0.8999999999999999"/>
      <point x="234.31799999999996" y="4.734999999999999"/>
      <point x="234.867" y="35.183" type="curve" smooth="yes"/>
      <point x="235.04999999999998" y="47.309999999999995"/>
      <point x="228.72199999999998" y="50.721999999999994"/>
      <point x="213.041" y="50.721999999999994" type="curve" smooth="yes"/>
      <point x="190.027" y="50.721999999999994"/>
      <point x="180.802" y="44.898"/>
    </contour>
  </outline>
</glyph>
<glyph name="at" format="2">
  <advance width="878.4699999999999"/>
  <unicode hex="0040"/>
  <outline>
    <contour>
      <point x="363.51" y="-119.45" type="curve" smooth="yes"/>
      <point x="451.80999999999995" y="-119.45"/>
      <point x="541.98" y="-93.75"/>
      <point x="618.54" y="-45.900000000000006" type="curve"/>
      <point x="608.27" y="-24.890000000000004" type="line"/>
      <point x="533.6199999999999" y="-69.47"/>
      <point x="449.9599999999999" y="-92.49000000000001"/>
      <point x="367.05" y="-92.49000000000001" type="curve" smooth="yes"/>
      <point x="188.94" y="-92.49000000000001"/>
      <point x="81.07" y="12.079999999999995"/>
      <point x="81.07" y="188.56" type="curve" smooth="yes"/>
      <point x="81.07" y="474.20000000000005"/>
      <point x="264.90999999999997" y="706.66"/>
      <point x="525.27" y="706.66" type="curve" smooth="yes"/>
      <point x="706.2599999999999" y="706.66"/>
      <point x="814.4999999999999" y="609.55"/>
      <point x="814.4999999999999" y="443.63999999999993" type="curve" smooth="yes"/>
      <point x="814.4999999999999" y="274.19"/>
      <point x="731.85" y="107.39"/>
      <point x="650.8700000000001" y="107.39" type="curve" smooth="yes"/>
      <point x="592.4300000000001" y="107.39"/>
      <point x="593.54" y="176.72"/>
      <point x="608.6800000000001" y="250.24999999999997" type="curve" smooth="yes"/>
      <point x="664.8100000000001" y="516.3" type="line"/>
      <point x="607.8599999999999" y="533.47"/>
      <point x="561.1" y="541.3199999999999"/>
      <point x="519.4499999999999" y="541.3199999999999" type="curve" smooth="yes"/>
      <point x="355.08" y="541.3199999999999"/>
      <point x="227.84999999999997" y="383.83000000000004"/>
      <point x="227.84999999999997" y="215.55" type="curve" smooth="yes"/>
      <point x="227.84999999999997" y="127.61999999999998"/>
      <point x="275.61" y="81.63000000000001"/>
      <point x="363.51000000000005" y="81.63000000000001" type="curve" smooth="yes"/>
      <point x="437.36999999999995" y="81.63000000000001"/>
      <point x="520.85" y="126.63999999999999"/>
      <point x="568.5" y="200.86" type="curve"/>
      <point x="562.4699999999999" y="124.66"/>
      <point x="587.11" y="78.91000000000001"/>
      <point x="649.0999999999999" y="78.91000000000001" type="curve" smooth="yes"/>
      <point x="752.03" y="78.91000000000001"/>
      <point x="842.5400000000001" y="262.71"/>
      <point x="842.5400000000001" y="445.12999999999994" type="curve" smooth="yes"/>
      <point x="842.5400000000001" y="625.2299999999999"/>
      <point x="721.2499999999999" y="734.35"/>
      <point x="526.9699999999999" y="734.35" type="curve" smooth="yes"/>
      <point x="252.29" y="734.35"/>
      <point x="53.669999999999995" y="495.29"/>
      <point x="53.669999999999995" y="182.83999999999997" type="curve" smooth="yes"/>
      <point x="53.669999999999995" y="-7.330000000000007"/>
      <point x="169.82000000000002" y="-119.45"/>
    </contour>
    <contour>
      <point x="377.28" y="114.66999999999999" type="curve" smooth="yes"/>
      <point x="303.64" y="114.66999999999999"/>
      <point x="265.65999999999997" y="152.01000000000002"/>
      <point x="265.65999999999997" y="223.01" type="curve" smooth="yes"/>
      <point x="265.65999999999997" y="369.84"/>
      <point x="377.74" y="510.5399999999999"/>
      <point x="508.88" y="510.5399999999999" type="curve" smooth="yes"/>
      <point x="550.08" y="510.5399999999999"/>
      <point x="582.4199999999998" y="505.71999999999997"/>
      <point x="624.3599999999999" y="492.44" type="curve"/>
      <point x="573.98" y="255.59999999999997" type="line" smooth="yes"/>
      <point x="537.4499999999999" y="173.17000000000002"/>
      <point x="452.37999999999994" y="114.66999999999999"/>
    </contour>
  </outline>
</glyph>
<glyph name="A" format="2">
  <advance width="713.675"/>
  <unicode hex="0041"/>
  <anchor x="312.877" y="0.0" name="bottom"/>
  <anchor x="654.935" y="0.0" name="ogonek"/>
  <anchor x="423.8349999999999" y="700.0" name="top"/>
  <outline>
    <contour>
      <point x="-29.26" y="0.0" type="line"/>
      <point x="16.999999999999996" y="0.0" type="line"/>
      <point x="145.95000000000002" y="210.47500000000002" type="line"/>
      <point x="547.9899999999999" y="210.47500000000002" type="line"/>
      <point x="609.7199999999999" y="0.0" type="line"/>
      <point x="654.935" y="0.0" type="line"/>
      <point x="443.345" y="709.73" type="line"/>
      <point x="405.33000000000004" y="709.73" type="line"/>
    </contour>
    <contour>
      <point x="164.29" y="244.1" type="line"/>
      <point x="418.2250000000001" y="660.9749999999999" type="line"/>
      <point x="540.6" y="244.1" type="line"/>
    </contour>
  </outline>
</glyph>
<glyph name="B" format="2">
  <advance width="773.985"/>
  <unicode hex="0042"/>
  <outline>
    <contour>
      <point x="61.28299999999999" y="1.9969999999999994" type="line"/>
      <point x="201.73199999999997" y="-6.245000000000001"/>
      <point x="269.781" y="-10.0"/>
      <point x="365.02399999999994" y="-10.0" type="curve" smooth="yes"/>
      <point x="519.267" y="-10.0"/>
      <point x="707.807" y="37.724999999999994"/>
      <point x="707.807" y="224.034" type="curve" smooth="yes"/>
      <point x="707.807" y="306.38"/>
      <point x="642.7719999999999" y="361.24699999999996"/>
      <point x="553.496" y="369.64599999999996" type="curve"/>
      <point x="642.187" y="390.402"/>
      <point x="718.3919999999999" y="469.517"/>
      <point x="718.3919999999999" y="567.71" type="curve" smooth="yes"/>
      <point x="718.3919999999999" y="673.1030000000001"/>
      <point x="634.7779999999999" y="710.0"/>
      <point x="456.85099999999994" y="710.0" type="curve" smooth="yes"/>
      <point x="391.69499999999994" y="710.0"/>
      <point x="317.31699999999995" y="706.573"/>
      <point x="171.45299999999997" y="697.4570000000001" type="curve"/>
    </contour>
    <contour>
      <point x="161.82799999999997" y="379.522" type="line"/>
      <point x="206.797" y="665.441" type="line"/>
      <point x="291.22499999999997" y="670.962"/>
      <point x="368.57699999999994" y="676.511"/>
      <point x="450.18299999999994" y="676.511" type="curve" smooth="yes"/>
      <point x="601.757" y="676.511"/>
      <point x="676.804" y="650.376"/>
      <point x="676.804" y="558.4" type="curve" smooth="yes"/>
      <point x="676.804" y="450.965"/>
      <point x="564.4200000000001" y="379.522"/>
      <point x="469.30899999999997" y="379.522" type="curve" smooth="yes"/>
    </contour>
    <contour>
      <point x="156.524" y="348.19" type="line"/>
      <point x="475.4729999999999" y="348.19" type="line" smooth="yes"/>
      <point x="554.7180000000001" y="348.19"/>
      <point x="666.226" y="320.301"/>
      <point x="666.226" y="220.368" type="curve" smooth="yes"/>
      <point x="666.226" y="68.539"/>
      <point x="508.998" y="23.958"/>
      <point x="370.0009999999999" y="23.958" type="curve" smooth="yes"/>
      <point x="269.435" y="23.958"/>
      <point x="207.91" y="29.452999999999996"/>
      <point x="107.03399999999999" y="34.602" type="curve"/>
    </contour>
  </outline>
</glyph>
<glyph name="C" format="2">
  <advance width="775.1519999999999"/>
  <unicode hex="0043"/>
  <anchor x="425.0919999999999" y="0.0" name="bottom"/>
  <anchor x="520.624" y="700.0" name="top"/>
  <outline>
    <contour>
      <point x="439.5859999999999" y="-10.0" type="curve" smooth="yes"/>
      <point x="541.826" y="-10.0"/>
      <point x="627.9580000000001" y="2.565999999999999"/>
      <point x="697.0919999999999" y="27.451999999999998" type="curve"/>
      <point x="690.3479999999998" y="60.29200000000001" type="line"/>
      <point x="623.948" y="37.88"/>
      <point x="540.682" y="25.38"/>
      <point x="445.424" y="25.38" type="curve" smooth="yes"/>
      <point x="235.04" y="25.38"/>
      <point x="111.21000000000001" y="108.92399999999999"/>
      <point x="111.21000000000001" y="270.86199999999997" type="curve" smooth="yes"/>
      <point x="111.21000000000001" y="510.8499999999999"/>
      <point x="263.42999999999995" y="674.62"/>
      <point x="513.6239999999999" y="674.62" type="curve" smooth="yes"/>
      <point x="603.5519999999999" y="674.62"/>
      <point x="675.9" y="663.81"/>
      <point x="759.9699999999998" y="640.276" type="curve"/>
      <point x="770.896" y="673.576" type="line"/>
      <point x="682.7099999999999" y="699.9100000000001"/>
      <point x="608.3879999999999" y="710.0"/>
      <point x="515.1279999999999" y="710.0" type="curve" smooth="yes"/>
      <point x="236.29999999999998" y="710.0"/>
      <point x="69.62" y="535.94"/>
      <point x="69.62" y="268.006" type="curve" smooth="yes"/>
      <point x="69.62" y="84.338"/>
      <point x="204.652" y="-10.0"/>
    </contour>
  </outline>
</glyph>
<glyph name="D" format="2">
  <advance width="840.6560000000001"/>
  <unicode hex="0044"/>
  <anchor x="353.026" y="0.0" name="bottom"/>
  <anchor x="412.96799999999996" y="350.0" name="center"/>
  <anchor x="450.4759999999999" y="700.0" name="top"/>
  <outline>
    <contour>
      <point x="330.498" y="-10.0" type="curve" smooth="yes"/>
      <point x="591.5539999999999" y="-10.0"/>
      <point x="791.544" y="128.68800000000002"/>
      <point x="791.544" y="404.344" type="curve" smooth="yes"/>
      <point x="791.544" y="652.7319999999999"/>
      <point x="603.794" y="710.0"/>
      <point x="410.312" y="710.0" type="curve" smooth="yes"/>
      <point x="324.91999999999996" y="710.0"/>
      <point x="252.01600000000002" y="707.4920000000001"/>
      <point x="171.426" y="701.8120000000001" type="curve"/>
      <point x="59.91" y="-1.4760000000000006" type="line"/>
      <point x="155.17799999999997" y="-8.64"/>
      <point x="219.87599999999998" y="-10.0"/>
    </contour>
    <contour>
      <point x="328.86199999999997" y="23.177999999999997" type="curve" smooth="yes"/>
      <point x="242.37199999999996" y="23.177999999999997"/>
      <point x="180.602" y="24.931999999999995"/>
      <point x="105.514" y="30.072" type="curve"/>
      <point x="206.932" y="668.5999999999999" type="line"/>
      <point x="251.13999999999996" y="672.8299999999999"/>
      <point x="337.142" y="676.1499999999999"/>
      <point x="411.122" y="676.1499999999999" type="curve" smooth="yes"/>
      <point x="576.684" y="676.1499999999999"/>
      <point x="749.83" y="627.8079999999999"/>
      <point x="749.83" y="401.71399999999994" type="curve" smooth="yes"/>
      <point x="749.83" y="152.40200000000002"/>
      <point x="569.506" y="23.177999999999997"/>
    </contour>
  </outline>
</glyph>
<glyph name="E" format="2">
  <advance width="702.904"/>
  <unicode hex="0045"/>
  <anchor x="339.062" y="0.0" name="bottom"/>
  <anchor x="615.402" y="0.0" name="ogonek"/>
  <anchor x="438.39" y="700.0" name="top"/>
  <anchor x="105.528" y="700.0" name="topleft"/>
  <outline>
    <contour>
      <point x="60.156" y="0.0" type="line"/>
      <point x="615.402" y="0.0" type="line"/>
      <point x="621.282" y="36.099999999999994" type="line"/>
      <point x="106.006" y="36.099999999999994" type="line"/>
      <point x="157.07200000000003" y="356.57" type="line"/>
      <point x="625.242" y="356.57" type="line"/>
      <point x="631.1220000000001" y="392.31000000000006" type="line"/>
      <point x="162.19799999999998" y="392.31000000000006" type="line"/>
      <point x="205.36" y="663.9" type="line"/>
      <point x="698.9639999999999" y="663.9" type="line"/>
      <point x="705.09" y="700.0" type="line"/>
      <point x="171.08999999999997" y="700.0" type="line"/>
    </contour>
  </outline>
</glyph>
<glyph name="F" format="2">
  <advance width="668.3349999999999"/>
  <unicode hex="0046"/>
  <outline>
    <contour>
      <point x="60.201" y="0.0" type="line"/>
      <point x="100.42899999999999" y="0.0" type="line"/>
      <point x="149.702" y="305.54200000000003" type="line"/>
      <point x="585.87" y="305.54200000000003" type="line"/>
      <point x="590.933" y="341.786" type="line"/>
      <point x="154.864" y="341.786" type="line"/>
      <point x="205.792" y="663.756" type="line"/>
      <point x="698.5889999999999" y="663.756" type="line"/>
      <point x="704.505" y="700.0" type="line"/>
      <point x="171.17999999999998" y="700.0" type="line"/>
    </contour>
  </outline>
</glyph>
<glyph name="G" format="2">
  <advance width="793.35"/>
  <unicode hex="0047"/>
  <anchor x="393.775" y="0.0" name="bottom"/>
  <anchor x="515.4770000000001" y="700.0" name="top"/>
  <outline>
    <contour>
      <point x="416.99199999999996" y="-10.0" type="curve" smooth="yes"/>
      <point x="528.474" y="-10.0"/>
      <point x="622.078" y="11.766999999999998"/>
      <point x="682.382" y="36.769" type="curve"/>
      <point x="728.7939999999999" y="327.549" type="line"/>
      <point x="429.573" y="327.549" type="line"/>
      <point x="424.3589999999999" y="294.86" type="line"/>
      <point x="685.923" y="294.86" type="line"/>
      <point x="648.6689999999999" y="61.519999999999996" type="line"/>
      <point x="594.68" y="38.632"/>
      <point x="515.869" y="23.750999999999998"/>
      <point x="424.20199999999994" y="23.750999999999998" type="curve" smooth="yes"/>
      <point x="248.49" y="23.750999999999998"/>
      <point x="109.55600000000001" y="100.82099999999998"/>
      <point x="109.55600000000001" y="269.548" type="curve" smooth="yes"/>
      <point x="109.55600000000001" y="514.033"/>
      <point x="267.709" y="674.935"/>
      <point x="512.714" y="674.935" type="curve" smooth="yes"/>
      <point x="600.1949999999999" y="674.935"/>
      <point x="663.743" y="664.692"/>
      <point x="747.313" y="640.71" type="curve"/>
      <point x="759.8770000000001" y="673.328" type="line"/>
      <point x="688.607" y="696.96"/>
      <point x="603.527" y="710.0"/>
      <point x="515.001" y="710.0" type="curve" smooth="yes"/>
      <point x="239.07299999999998" y="710.0"/>
      <point x="68.749" y="538.176"/>
      <point x="68.749" y="264.33500000000004" type="curve" smooth="yes"/>
      <point x="68.749" y="79.39"/>
      <point x="219.974" y="-10.0"/>
    </contour>
  </outline>
</glyph>
<glyph name="H" format="2">
  <advance width="864.696"/>
  <unicode hex="0048"/>
  <anchor x="389.125788" y="0.0" name="bottom"/>
  <anchor x="444.71503299999995" y="350.0" name="center"/>
  <anchor x="500.03055099999995" y="700.0" name="top"/>
  <anchor x="86.681551" y="700.0" name="topleft"/>
  <outline>
    <contour>
      <point x="60.138" y="0.0" type="line"/>
      <point x="100.975" y="0.0" type="line"/>
      <point x="146.003" y="284.916" type="line"/>
      <point x="721.7359999999999" y="284.916" type="line"/>
      <point x="676.6089999999999" y="0.0" type="line"/>
      <point x="716.579" y="0.0" type="line"/>
      <point x="827.831" y="700.0" type="line"/>
      <point x="787.8969999999999" y="700.0" type="line"/>
      <point x="727.472" y="320.944" type="line"/>
      <point x="151.46599999999998" y="320.944" type="line"/>
      <point x="211.95399999999998" y="700.0" type="line"/>
      <point x="171.117" y="700.0" type="line"/>
    </contour>
  </outline>
</glyph>
<glyph name="I" format="2">
  <advance width="248.819"/>
  <unicode hex="0049"/>
  <anchor x="81.02281599999999" y="0.0" name="bottom"/>
  <anchor x="100.78375599999998" y="0.2699999999999999" name="ogonek"/>
  <anchor x="191.935832" y="700.0" name="top"/>
  <anchor x="105.572451" y="700.0" name="topleft"/>
  <outline>
    <contour>
      <point x="60.138" y="0.0" type="line"/>
      <point x="100.702" y="0.0" type="line"/>
      <point x="211.95399999999998" y="700.0" type="line"/>
      <point x="171.117" y="700.0" type="line"/>
    </contour>
  </outline>
</glyph>
<glyph name="J" format="2">
  <advance width="582.274"/>
  <unicode hex="004A"/>
  <anchor x="232.10898799999998" y="0.0" name="bottom"/>
  <anchor x="355.13599999999997" y="700.0" name="top"/>
  <outline>
    <contour>
      <point x="-16.019000000000002" y="28.339999999999996" type="line"/>
      <point x="33.9" y="10.269999999999998"/>
      <point x="94.889" y="-10.0"/>
      <point x="201.19699999999997" y="-10.0" type="curve" smooth="yes"/>
      <point x="350.211" y="-10.0"/>
      <point x="457.491" y="63.556"/>
      <point x="484.804" y="229.202" type="curve" smooth="yes"/>
      <point x="559.526" y="700.0" type="line"/>
      <point x="143.676" y="700.0" type="line"/>
      <point x="137.841" y="663.981" type="line"/>
      <point x="513.1270000000001" y="663.981" type="line"/>
      <point x="444.131" y="232.433" type="line" smooth="yes"/>
      <point x="420.758" y="84.18299999999999"/>
      <point x="321.715" y="26.154"/>
      <point x="200.918" y="26.154" type="curve" smooth="yes"/>
      <point x="101.41499999999998" y="26.154"/>
      <point x="44.025999999999996" y="47.22599999999999"/>
      <point x="-5.3130000000000015" y="64.567" type="curve"/>
    </contour>
  </outline>
</glyph>
<glyph name="K" format="2">
  <advance width="757.866"/>
  <unicode hex="004B"/>
  <anchor x="346.36" y="0.0" name="bottom"/>
  <anchor x="436.66999999999996" y="700.0" name="top"/>
  <outline>
    <contour>
      <point x="59.873999999999995" y="0.0" type="line"/>
      <point x="100.90199999999999" y="0.0" type="line"/>
      <point x="211.654" y="700.0" type="line"/>
      <point x="171.30599999999998" y="700.0" type="line"/>
    </contour>
    <contour>
      <point x="690.336" y="-9.554" type="curve" smooth="yes"/>
      <point x="694.7719999999999" y="-9.554"/>
      <point x="703.99" y="-9.212"/>
      <point x="709.4219999999999" y="-7.531999999999999" type="curve"/>
      <point x="711.892" y="29.044" type="line"/>
      <point x="707.834" y="29.098"/>
      <point x="703.9019999999999" y="28.598"/>
      <point x="699.5239999999999" y="28.598" type="curve" smooth="yes"/>
      <point x="647.1360000000001" y="28.598"/>
      <point x="611.2" y="51.824"/>
      <point x="532.284" y="121.51599999999999" type="curve" smooth="yes"/>
      <point x="160.26399999999998" y="451.042" type="line"/>
      <point x="153.772" y="406.73400000000004" type="line"/>
      <point x="486.462" y="103.964" type="line" smooth="yes"/>
      <point x="579.6360000000001" y="22.279999999999998"/>
      <point x="626.0879999999999" y="-9.554"/>
    </contour>
    <contour>
      <point x="291.106" y="314.716" type="line"/>
      <point x="423.456" y="374.914"/>
      <point x="657.212" y="511.55"/>
      <point x="782.6859999999999" y="689.668" type="curve"/>
      <point x="754.2180000000001" y="710.36" type="line"/>
      <point x="617.7239999999999" y="528.918"/>
      <point x="391.93800000000005" y="398.54200000000003"/>
      <point x="264.86199999999997" y="340.214" type="curve"/>
    </contour>
  </outline>
</glyph>
<glyph name="L" format="2">
  <advance width="628.352"/>
  <unicode hex="004C"/>
  <anchor x="315.4119999999999" y="0.0" name="bottom"/>
  <anchor x="323.26703299999997" y="350.0" name="center"/>
  <anchor x="190.94400000000002" y="700.0" name="top"/>
  <anchor x="488.3229999999999" y="700.0" name="topright"/>
  <outline>
    <contour>
      <point x="59.865" y="0.0" type="line"/>
      <point x="569.347" y="0.0" type="line"/>
      <point x="575.2719999999999" y="35.730999999999995" type="line"/>
      <point x="106.228" y="35.730999999999995" type="line"/>
      <point x="211.68099999999998" y="700.0" type="line"/>
      <point x="171.117" y="700.0" type="line"/>
    </contour>
  </outline>
</glyph>
<glyph name="M" format="2">
  <advance width="975.8479999999998"/>
  <unicode hex="004D"/>
  <outline>
    <contour>
      <point x="59.838" y="0.0" type="line"/>
      <point x="100.14699999999999" y="0.0" type="line"/>
      <point x="201.21" y="645.622" type="line"/>
      <point x="476.51699999999994" y="271.24199999999996" type="line"/>
      <point x="497.0799999999999" y="271.24199999999996" type="line"/>
      <point x="892.4709999999999" y="645.851" type="line"/>
      <point x="789.0209999999998" y="0.0" type="line"/>
      <point x="827.7309999999999" y="0.0" type="line"/>
      <point x="938.983" y="700.0" type="line"/>
      <point x="895.2439999999999" y="700.0" type="line"/>
      <point x="492.22999999999996" y="314.851" type="line"/>
      <point x="211.49699999999999" y="700.0" type="line"/>
      <point x="171.117" y="700.0" type="line"/>
    </contour>
  </outline>
</glyph>
<glyph name="N" format="2">
  <advance width="860.9849999999999"/>
  <unicode hex="004E"/>
  <anchor x="382.61998" y="0.0" name="bottom"/>
  <anchor x="499.3940849999999" y="700.0" name="top"/>
  <outline>
    <contour>
      <point x="60.32" y="0.0" type="line"/>
      <point x="99.35499999999999" y="0.0" type="line"/>
      <point x="201.22000000000003" y="647.0399999999998" type="line"/>
      <point x="674.905" y="-6.37" type="line"/>
      <point x="711.895" y="-6.37" type="line"/>
      <point x="824.12" y="700.0" type="line"/>
      <point x="785.495" y="700.0" type="line"/>
      <point x="683.27" y="51.025" type="line"/>
      <point x="210.445" y="706.37" type="line"/>
      <point x="172.54500000000002" y="706.37" type="line"/>
    </contour>
  </outline>
</glyph>
<glyph name="O" format="2">
  <advance width="886.09"/>
  <unicode hex="004F"/>
  <note>
8
</note>
  <anchor x="402.3220399999999" y="0.0" name="bottom"/>
  <anchor x="458.09038999999996" y="350.0" name="center"/>
  <anchor x="481.51000000000005" y="0.0" name="ogonek"/>
  <anchor x="500.77" y="700.0" name="top"/>
  <anchor x="95.51" y="700.0" name="topleft"/>
  <anchor x="714.8" y="669.16" name="topright"/>
  <outline>
    <contour>
      <point x="429.22999999999996" y="-9.73" type="curve" smooth="yes"/>
      <point x="686.56" y="-9.73"/>
      <point x="836.4699999999999" y="149.76"/>
      <point x="836.4699999999999" y="412.15999999999997" type="curve" smooth="yes"/>
      <point x="836.4699999999999" y="606.33"/>
      <point x="718.7499999999999" y="709.82"/>
      <point x="480.77000000000004" y="709.82" type="curve" smooth="yes"/>
      <point x="223.44" y="709.82"/>
      <point x="73.53" y="550.3299999999999"/>
      <point x="73.53" y="287.93000000000006" type="curve" smooth="yes"/>
      <point x="73.53" y="93.76"/>
      <point x="191.24999999999997" y="-9.73"/>
    </contour>
    <contour>
      <point x="430.3499999999999" y="24.159999999999997" type="curve" smooth="yes"/>
      <point x="219.40999999999997" y="24.159999999999997"/>
      <point x="114.48999999999998" y="116.13"/>
      <point x="114.48999999999998" y="290.07" type="curve" smooth="yes"/>
      <point x="114.48999999999998" y="527.94"/>
      <point x="247.4" y="675.9300000000001"/>
      <point x="479.73999999999995" y="675.9300000000001" type="curve" smooth="yes"/>
      <point x="690.5899999999999" y="675.9300000000001"/>
      <point x="795.5099999999999" y="583.96"/>
      <point x="795.5099999999999" y="410.02000000000004" type="curve" smooth="yes"/>
      <point x="795.5099999999999" y="172.14999999999998"/>
      <point x="662.5999999999999" y="24.159999999999997"/>
    </contour>
  </outline>
</glyph>
<glyph name="P" format="2">
  <advance width="762.85"/>
  <unicode hex="0050"/>
  <outline>
    <contour>
      <point x="60.32" y="0.0" type="line"/>
      <point x="100.785" y="0.0" type="line"/>
      <point x="141.525" y="254.545" type="line"/>
      <point x="235.90999999999997" y="251.45499999999998"/>
      <point x="291.12499999999994" y="250.04500000000002"/>
      <point x="383.72999999999996" y="250.04500000000002" type="curve" smooth="yes"/>
      <point x="637.6999999999998" y="250.04500000000002"/>
      <point x="747.87" y="335.81"/>
      <point x="749.235" y="514.675" type="curve" smooth="yes"/>
      <point x="749.69" y="654.235"/>
      <point x="656.4799999999999" y="710.0"/>
      <point x="429.03499999999997" y="710.0" type="curve" smooth="yes"/>
      <point x="385.91" y="710.0"/>
      <point x="332.8399999999999" y="707.91"/>
      <point x="171.635" y="700.955" type="curve"/>
    </contour>
    <contour>
      <point x="206.76" y="668.0150000000001" type="line"/>
      <point x="318.61499999999995" y="673.29"/>
      <point x="375.43499999999995" y="675.61"/>
      <point x="427.07000000000005" y="675.61" type="curve" smooth="yes"/>
      <point x="632.32" y="675.61"/>
      <point x="708.005" y="633.09"/>
      <point x="708.005" y="508.42" type="curve" smooth="yes"/>
      <point x="708.005" y="360.51500000000004"/>
      <point x="614.08" y="284.65999999999997"/>
      <point x="386.24499999999995" y="284.65999999999997" type="curve" smooth="yes"/>
      <point x="305.505" y="284.65999999999997"/>
      <point x="244.595" y="287.025"/>
      <point x="147.08999999999997" y="289.57000000000005" type="curve"/>
    </contour>
  </outline>
</glyph>
<glyph name="Q" format="2">
  <advance width="887.5609999999999"/>
  <unicode hex="0051"/>
  <note>
14
</note>
  <outline>
    <contour>
      <point x="614.0659999999999" y="-206.983" type="curve" smooth="yes"/>
      <point x="661.6769999999999" y="-206.983"/>
      <point x="699.74" y="-196.023"/>
      <point x="734.6419999999999" y="-176.76999999999998" type="curve"/>
      <point x="728.9939999999999" y="-144.263" type="line"/>
      <point x="693.38" y="-163.58700000000002"/>
      <point x="659.2249999999999" y="-171.95700000000002"/>
      <point x="620.941" y="-171.95700000000002" type="curve" smooth="yes"/>
      <point x="529.849" y="-171.95700000000002"/>
      <point x="455.442" y="-108.771"/>
      <point x="431.24399999999997" y="0.47799999999999976" type="curve"/>
      <point x="392.746" y="-2.077" type="line"/>
      <point x="424.916" y="-144.364"/>
      <point x="514.9209999999999" y="-206.983"/>
    </contour>
    <component base="O"/>
  </outline>
</glyph>
<glyph name="R" format="2">
  <advance width="793.21"/>
  <unicode hex="0052"/>
  <anchor x="378.5899999999999" y="0.0" name="bottom"/>
  <anchor x="420.35" y="700.0" name="top"/>
  <outline>
    <contour>
      <point x="60.73" y="0.0" type="line"/>
      <point x="101.41999999999999" y="0.0" type="line"/>
      <point x="149.38999999999996" y="299.65000000000003" type="line"/>
      <point x="246.7" y="297.24"/>
      <point x="331.95" y="295.92"/>
      <point x="449.50999999999993" y="295.83" type="curve"/>
      <point x="458.8999999999999" y="296.82" type="line"/>
      <point x="639.3499999999999" y="297.40999999999997"/>
      <point x="739.05" y="377.37"/>
      <point x="739.05" y="527.0400000000001" type="curve" smooth="yes"/>
      <point x="739.05" y="658.59"/>
      <point x="671.1299999999999" y="710.0"/>
      <point x="420.15" y="710.0" type="curve" smooth="yes"/>
      <point x="330.11999999999995" y="710.0"/>
      <point x="269.36999999999995" y="707.9100000000001"/>
      <point x="172.0" y="702.23" type="curve"/>
    </contour>
    <contour>
      <point x="742.3399999999999" y="-10.0" type="curve" smooth="yes"/>
      <point x="747.4699999999999" y="-10.0"/>
      <point x="755.67" y="-8.91"/>
      <point x="760.62" y="-7.729999999999999" type="curve"/>
      <point x="761.27" y="28.679999999999996" type="line"/>
      <point x="756.5899999999999" y="27.27"/>
      <point x="750.05" y="27.27"/>
      <point x="747.1" y="27.27" type="curve" smooth="yes"/>
      <point x="677.86" y="27.679999999999996"/>
      <point x="579.4000000000001" y="130.84"/>
      <point x="476.90000000000003" y="312.89" type="curve"/>
      <point x="432.98999999999995" y="306.08" type="line"/>
      <point x="543.5" y="107.61999999999999"/>
      <point x="650.67" y="-10.0"/>
    </contour>
    <contour>
      <point x="449.66999999999996" y="329.59" type="curve" smooth="yes"/>
      <point x="317.03999999999996" y="329.59"/>
      <point x="235.49999999999997" y="331.09"/>
      <point x="155.13999999999996" y="334.27" type="curve"/>
      <point x="207.67000000000002" y="670.1" type="line"/>
      <point x="293.82" y="674.9200000000001"/>
      <point x="329.2099999999999" y="676.7400000000001"/>
      <point x="417.11" y="676.7400000000001" type="curve" smooth="yes"/>
      <point x="640.75" y="676.7400000000001"/>
      <point x="696.78" y="637.3199999999999"/>
      <point x="696.78" y="525.47" type="curve" smooth="yes"/>
      <point x="696.78" y="396.14"/>
      <point x="611.7599999999999" y="329.59"/>
    </contour>
  </outline>
</glyph>
<glyph name="S" format="2">
  <advance width="708.63"/>
  <unicode hex="0053"/>
  <anchor x="309.0" y="0.0" name="bottom"/>
  <anchor x="425.5899999999999" y="700.0" name="top"/>
  <outline>
    <contour>
      <point x="671.1399999999999" y="671.5" type="line"/>
      <point x="582.29" y="698.3199999999999"/>
      <point x="519.8299999999999" y="710.0"/>
      <point x="434.98999999999995" y="710.0" type="curve" smooth="yes"/>
      <point x="216.83000000000004" y="710.0"/>
      <point x="107.22999999999999" y="634.78"/>
      <point x="107.22999999999999" y="517.0900000000001" type="curve" smooth="yes"/>
      <point x="107.22999999999999" y="279.81"/>
      <point x="599.0400000000001" y="381.19"/>
      <point x="598.63" y="175.92000000000002" type="curve" smooth="yes"/>
      <point x="598.63" y="85.53"/>
      <point x="515.1799999999998" y="24.8"/>
      <point x="326.19" y="24.8" type="curve" smooth="yes"/>
      <point x="226.31" y="24.8"/>
      <point x="105.35000000000001" y="46.97999999999999"/>
      <point x="19.79" y="78.01999999999997" type="curve"/>
      <point x="4.759999999999999" y="42.95" type="line"/>
      <point x="105.43999999999998" y="8.95"/>
      <point x="218.1" y="-10.0"/>
      <point x="318.96" y="-10.0" type="curve" smooth="yes"/>
      <point x="547.26" y="-10.0"/>
      <point x="640.81" y="63.75"/>
      <point x="640.81" y="181.57000000000002" type="curve" smooth="yes"/>
      <point x="641.31" y="416.61"/>
      <point x="148.90999999999997" y="318.07"/>
      <point x="148.90999999999997" y="521.85" type="curve" smooth="yes"/>
      <point x="148.90999999999997" y="615.7800000000001"/>
      <point x="252.66000000000003" y="675.66"/>
      <point x="426.71999999999997" y="675.66" type="curve" smooth="yes"/>
      <point x="509.32000000000005" y="675.66"/>
      <point x="583.48" y="662.66"/>
      <point x="656.7900000000001" y="636.6600000000001" type="curve"/>
    </contour>
  </outline>
</glyph>
<glyph name="T" format="2">
  <advance width="626.616"/>
  <unicode hex="0054"/>
  <anchor x="269.31998799999997" y="0.0" name="bottom"/>
  <anchor x="325.22765599999997" y="350.0" name="center"/>
  <anchor x="380.515832" y="700.0" name="top"/>
  <outline>
    <contour>
      <point x="679.592" y="665.376" type="line"/>
      <point x="685.454" y="700.0" type="line"/>
      <point x="75.63" y="700.0" type="line"/>
      <point x="69.705" y="665.376" type="line"/>
      <point x="354.625" y="665.376" type="line"/>
      <point x="249.14499999999998" y="0.0" type="line"/>
      <point x="289.70899999999995" y="0.0" type="line"/>
      <point x="395.126" y="665.376" type="line"/>
    </contour>
  </outline>
</glyph>
<glyph name="U" format="2">
  <advance width="837.2919999999999"/>
  <unicode hex="0055"/>
  <anchor x="375.03596" y="0.0" name="bottom"/>
  <anchor x="435.92599999999993" y="0.0" name="ogonek"/>
  <anchor x="482.9301699999999" y="700.0" name="top"/>
  <anchor x="813.608" y="700.0" name="topright"/>
  <outline>
    <contour>
      <point x="372.753" y="-10.0" type="curve" smooth="yes"/>
      <point x="593.169" y="-10.0"/>
      <point x="714.673" y="72.85"/>
      <point x="741.578" y="240.666" type="curve" smooth="yes"/>
      <point x="814.544" y="700.0" type="line"/>
      <point x="774.1479999999999" y="700.0" type="line"/>
      <point x="700.725" y="241.65599999999998" type="line" smooth="yes"/>
      <point x="677.8929999999999" y="97.48"/>
      <point x="570.351" y="25.092"/>
      <point x="379.15199999999993" y="25.092" type="curve" smooth="yes"/>
      <point x="197.591" y="25.092"/>
      <point x="103.40999999999998" y="100.6"/>
      <point x="125.14899999999999" y="238.107" type="curve" smooth="yes"/>
      <point x="197.72400000000002" y="700.0" type="line"/>
      <point x="157.601" y="700.0" type="line"/>
      <point x="84.72599999999998" y="240.21099999999998" type="line" smooth="yes"/>
      <point x="81.245" y="216.071"/>
      <point x="80.49099999999999" y="205.086"/>
      <point x="80.49099999999999" y="191.30599999999998" type="curve" smooth="yes"/>
      <point x="80.49099999999999" y="60.88399999999999"/>
      <point x="184.44899999999998" y="-10.0"/>
    </contour>
  </outline>
</glyph>
<glyph name="V" format="2">
  <advance width="700.383"/>
  <unicode hex="0056"/>
  <outline>
    <contour>
      <point x="316.48299999999995" y="0.0" type="line"/>
      <point x="685.71" y="523.053"/>
      <point x="736.6399999999999" y="611.25"/>
      <point x="738.9350000000001" y="673.8149999999999" type="curve" smooth="yes"/>
      <point x="739.0699999999999" y="682.788"/>
      <point x="738.25" y="692.063"/>
      <point x="736.128" y="700.0" type="curve"/>
      <point x="693.7280000000001" y="700.0" type="line"/>
      <point x="695.94" y="690.13"/>
      <point x="696.548" y="681.143"/>
      <point x="696.548" y="674.675" type="curve" smooth="yes"/>
      <point x="696.548" y="614.935"/>
      <point x="646.699" y="535.364"/>
      <point x="301.811" y="41.63" type="curve"/>
      <point x="115.82000000000001" y="706.888" type="line"/>
      <point x="74.375" y="701.365" type="line"/>
      <point x="272.578" y="0.0" type="line"/>
    </contour>
  </outline>
</glyph>
<glyph name="W" format="2">
  <advance width="1064.1499999999999"/>
  <unicode hex="0057"/>
  <anchor x="481.8499999999999" y="0.0" name="bottom"/>
  <anchor x="596.7499999999999" y="700.0" name="top"/>
  <outline>
    <contour>
      <point x="760.77" y="-0.4100000000000001" type="line"/>
      <point x="1042.98" y="504.19"/>
      <point x="1103.6399999999999" y="621.5500000000001"/>
      <point x="1103.82" y="679.68" type="curve" smooth="yes"/>
      <point x="1103.82" y="686.1800000000001"/>
      <point x="1103.3200000000002" y="692.95"/>
      <point x="1101.5" y="700.0" type="curve"/>
      <point x="1061.07" y="700.0" type="line"/>
      <point x="1062.3899999999999" y="693.4100000000001"/>
      <point x="1063.62" y="688.55"/>
      <point x="1063.53" y="679.14" type="curve" smooth="yes"/>
      <point x="1062.27" y="620.3299999999999"/>
      <point x="1014.81" y="529.69"/>
      <point x="745.0600000000001" y="46.51" type="curve"/>
      <point x="609.02" y="647.67" type="line"/>
      <point x="562.95" y="647.67" type="line"/>
      <point x="462.02" y="448.57"/>
      <point x="359.59999999999997" y="247.06"/>
      <point x="256.41999999999996" y="47.910000000000004" type="curve"/>
      <point x="117.06" y="700.0" type="line"/>
      <point x="74.69" y="700.0" type="line"/>
      <point x="226.18" y="-0.4100000000000001" type="line"/>
      <point x="268.89" y="-0.4100000000000001" type="line"/>
      <point x="372.9799999999999" y="199.39"/>
      <point x="477.15999999999997" y="399.22999999999996"/>
      <point x="579.2699999999999" y="598.13" type="curve"/>
      <point x="716.8000000000001" y="-0.4100000000000001" type="line"/>
    </contour>
  </outline>
</glyph>
<glyph name="X" format="2">
  <advance width="715.5699999999999"/>
  <unicode hex="0058"/>
  <outline>
    <contour>
      <point x="632.0699999999999" y="-6.78" type="line"/>
      <point x="673.0300000000001" y="2.819999999999999" type="line"/>
      <point x="395.3" y="363.99" type="line"/>
      <point x="578.9899999999999" y="488.25"/>
      <point x="693.8100000000002" y="573.8"/>
      <point x="732.2700000000001" y="701.32" type="curve"/>
      <point x="689.85" y="706.78" type="line"/>
      <point x="650.22" y="584.72"/>
      <point x="554.8999999999999" y="514.74"/>
      <point x="376.6499999999999" y="392.76" type="curve"/>
      <point x="138.94" y="706.87" type="line"/>
      <point x="97.2" y="696.45" type="line"/>
      <point x="343.4" y="373.21999999999997" type="line"/>
      <point x="153.46999999999997" y="251.59"/>
      <point x="38.28999999999999" y="155.59"/>
      <point x="11.309999999999999" y="0.0" type="curve"/>
      <point x="56.419999999999995" y="0.0" type="line"/>
      <point x="86.0" y="146.2"/>
      <point x="180.69999999999996" y="227.11999999999998"/>
      <point x="362.64000000000004" y="343.91" type="curve"/>
    </contour>
  </outline>
</glyph>
<glyph name="Y" format="2">
  <advance width="655.952"/>
  <unicode hex="0059"/>
  <anchor x="279.71000000000004" y="0.0" name="bottom"/>
  <anchor x="399.9849999999999" y="700.0" name="top"/>
  <anchor x="80.599" y="700.0" name="topleft"/>
  <outline>
    <contour>
      <point x="273.15799999999996" y="0.0" type="line"/>
      <point x="313.32599999999996" y="0.0" type="line"/>
      <point x="363.11099999999993" y="296.949" type="line"/>
      <point x="575.2669999999999" y="467.954"/>
      <point x="649.399" y="556.5169999999999"/>
      <point x="688.7330000000001" y="660.107" type="curve" smooth="yes"/>
      <point x="693.981" y="673.22"/>
      <point x="699.2829999999999" y="686.86"/>
      <point x="703.684" y="700.973" type="curve"/>
      <point x="661.816" y="707.361" type="line"/>
      <point x="657.095" y="692.374"/>
      <point x="651.973" y="678.86"/>
      <point x="646.3779999999999" y="664.3729999999999" type="curve" smooth="yes"/>
      <point x="609.9399999999999" y="570.1619999999999"/>
      <point x="550.095" y="490.36199999999997"/>
      <point x="346.084" y="328.25399999999996" type="curve"/>
      <point x="109.179" y="707.262" type="line"/>
      <point x="68.726" y="698.2249999999999" type="line"/>
      <point x="321.871" y="296.949" type="line"/>
    </contour>
  </outline>
</glyph>
<glyph name="Z" format="2">
  <advance width="680.53"/>
  <unicode hex="005A"/>
  <anchor x="302.99999999999994" y="0.0" name="bottom"/>
  <anchor x="348.99" y="350.0" name="center"/>
  <anchor x="404.2699999999999" y="700.0" name="top"/>
  <outline>
    <contour>
      <point x="-11.950000000000003" y="0.0" type="line"/>
      <point x="617.77" y="0.0" type="line"/>
      <point x="623.2900000000001" y="34.39" type="line"/>
      <point x="51.48" y="34.39" type="line"/>
      <point x="690.64" y="670.24" type="line"/>
      <point x="695.07" y="700.0" type="line"/>
      <point x="130.05999999999997" y="700.0" type="line"/>
      <point x="124.54" y="665.61" type="line"/>
      <point x="632.9999999999999" y="665.61" type="line"/>
      <point x="-7.110000000000003" y="29.58" type="line"/>
    </contour>
  </outline>
</glyph>
<glyph name="bracketleft" format="2">
  <advance width="375.19899999999996"/>
  <unicode hex="005B"/>
  <outline>
    <contour>
      <point x="90.20599999999999" y="-179.67000000000002" type="line"/>
      <point x="231.40800000000002" y="710.307" type="line"/>
      <point x="424.473" y="710.307" type="line"/>
      <point x="429.453" y="740.0" type="line"/>
      <point x="202.19299999999996" y="740.0" type="line"/>
      <point x="51.367" y="-210.0" type="line"/>
      <point x="278.26399999999995" y="-210.0" type="line"/>
      <point x="283.271" y="-179.67000000000002" type="line"/>
    </contour>
  </outline>
</glyph>
<glyph name="backslash" format="2">
  <advance width="399.08799999999997"/>
  <unicode hex="005C"/>
  <outline>
    <contour>
      <point x="126.388" y="740.0" type="line"/>
      <point x="92.777" y="740.0" type="line"/>
      <point x="302.439" y="-210.0" type="line"/>
      <point x="336.023" y="-210.0" type="line"/>
    </contour>
  </outline>
</glyph>
<glyph name="bracketright" format="2">
  <advance width="375.19899999999996"/>
  <unicode hex="005D"/>
  <outline>
    <contour>
      <point x="-51.364" y="-179.67000000000002" type="line"/>
      <point x="-56.281" y="-210.0" type="line"/>
      <point x="169.706" y="-210.0" type="line"/>
      <point x="320.895" y="740.0" type="line"/>
      <point x="93.908" y="740.0" type="line"/>
      <point x="88.90100000000001" y="709.67" type="line"/>
      <point x="281.966" y="709.67" type="line"/>
      <point x="140.737" y="-179.67000000000002" type="line"/>
    </contour>
  </outline>
</glyph>
<glyph name="asciicircum" format="2">
  <advance width="475.024"/>
  <unicode hex="005E"/>
  <outline>
    <contour>
      <point x="49.997" y="271.239" type="line"/>
      <point x="85.38199999999999" y="271.239" type="line"/>
      <point x="299.38199999999995" y="667.0179999999999" type="line"/>
      <point x="389.70700000000005" y="271.239" type="line"/>
      <point x="423.791" y="271.239" type="line"/>
      <point x="323.166" y="709.1" type="line"/>
      <point x="288.05100000000004" y="709.1" type="line"/>
    </contour>
  </outline>
</glyph>
<glyph name="underscore" format="2">
  <advance width="878.4240000000001"/>
  <unicode hex="005F"/>
  <outline>
    <contour>
      <point x="-50.169000000000004" y="-142.63299999999998" type="line"/>
      <point x="796.379" y="-142.63299999999998" type="line"/>
      <point x="801.5930000000001" y="-110.587" type="line"/>
      <point x="-44.955" y="-110.587" type="line"/>
    </contour>
  </outline>
</glyph>
<glyph name="a" format="2">
  <advance width="639.427"/>
  <unicode hex="0061"/>
  <note>
15
</note>
  <anchor x="267.13498" y="0.0" name="bottom"/>
  <anchor x="593.25" y="0.63" name="ogonek"/>
  <anchor x="365.307" y="531.8" name="top"/>
  <outline>
    <contour>
      <point x="545.836" y="-10.0" type="curve" smooth="yes"/>
      <point x="562.885" y="-10.0"/>
      <point x="579.99" y="-6.922999999999999"/>
      <point x="593.8689999999999" y="-1.2269999999999996" type="curve"/>
      <point x="591.851" y="29.165000000000003" type="line"/>
      <point x="581.7189999999999" y="25.144000000000002"/>
      <point x="570.9069999999999" y="23.032999999999998"/>
      <point x="558.8359999999999" y="23.032999999999998" type="curve" smooth="yes"/>
      <point x="527.4719999999999" y="23.032999999999998"/>
      <point x="512.8059999999999" y="41.73599999999999"/>
      <point x="512.8059999999999" y="80.155" type="curve" smooth="yes"/>
      <point x="512.8059999999999" y="87.71600000000001"/>
      <point x="538.178" y="247.27799999999996"/>
      <point x="579.813" y="505.72299999999996" type="curve"/>
      <point x="531.378" y="528.2149999999999"/>
      <point x="460.297" y="541.8"/>
      <point x="393.2779999999999" y="541.8" type="curve" smooth="yes"/>
      <point x="181.81900000000002" y="541.8"/>
      <point x="40.983000000000004" y="401.556"/>
      <point x="40.983000000000004" y="191.24699999999999" type="curve" smooth="yes"/>
      <point x="40.983000000000004" y="61.341"/>
      <point x="118.59500000000001" y="-10.0"/>
      <point x="249.85899999999998" y="-10.0" type="curve" smooth="yes"/>
      <point x="327.31399999999996" y="-10.0"/>
      <point x="415.191" y="18.467999999999996"/>
      <point x="475.24099999999993" y="60.898999999999994" type="curve"/>
      <point x="479.285" y="16.565999999999995"/>
      <point x="505.94599999999997" y="-10.0"/>
    </contour>
    <contour>
      <point x="472.77000000000004" y="91.07499999999999" type="line"/>
      <point x="414.66599999999994" y="51.209"/>
      <point x="332.51000000000005" y="23.919"/>
      <point x="261.97799999999995" y="23.919" type="curve" smooth="yes"/>
      <point x="147.636" y="23.919"/>
      <point x="81.437" y="86.33200000000001"/>
      <point x="81.437" y="197.19599999999997" type="curve" smooth="yes"/>
      <point x="81.437" y="382.15000000000003"/>
      <point x="208.39799999999997" y="509.961"/>
      <point x="385.27799999999996" y="509.961" type="curve" smooth="yes"/>
      <point x="445.34200000000004" y="509.961"/>
      <point x="497.388" y="500.681"/>
      <point x="534.8950000000001" y="482.42500000000007" type="curve"/>
    </contour>
  </outline>
</glyph>
<glyph name="b" format="2">
  <advance width="637.813"/>
  <unicode hex="0062"/>
  <note>
12
</note>
  <outline>
    <contour>
      <point x="209.61399999999998" y="740.0" type="line"/>
      <point x="170.004" y="740.0" type="line"/>
      <point x="55.45799999999999" y="16.449" type="line"/>
      <point x="112.21199999999999" y="2.2669999999999995"/>
      <point x="176.207" y="-10.0"/>
      <point x="250.292" y="-10.0" type="curve" smooth="yes"/>
      <point x="438.64599999999996" y="-10.0"/>
      <point x="595.6070000000001" y="133.93800000000002"/>
      <point x="595.562" y="347.132" type="curve" smooth="yes"/>
      <point x="595.5619999999999" y="467.98900000000003"/>
      <point x="532.515" y="541.8"/>
      <point x="407.42699999999996" y="541.8" type="curve" smooth="yes"/>
      <point x="316.721" y="541.8"/>
      <point x="241.38799999999998" y="503.27899999999994"/>
      <point x="163.42499999999998" y="450.49300000000005" type="curve"/>
    </contour>
    <contour>
      <point x="392.44599999999997" y="507.368" type="curve" smooth="yes"/>
      <point x="503.51699999999994" y="507.368"/>
      <point x="555.772" y="439.72800000000007"/>
      <point x="555.772" y="339.49699999999996" type="curve" smooth="yes"/>
      <point x="555.772" y="153.838"/>
      <point x="415.405" y="22.092"/>
      <point x="253.495" y="22.092" type="curve" smooth="yes"/>
      <point x="190.95799999999997" y="22.092"/>
      <point x="136.10999999999999" y="33.462999999999994"/>
      <point x="99.59500000000001" y="42.693" type="curve"/>
      <point x="158.53499999999997" y="415.387" type="line"/>
      <point x="247.278" y="478.48600000000005"/>
      <point x="319.269" y="507.368"/>
    </contour>
  </outline>
</glyph>
<glyph name="c" format="2">
  <advance width="582.52"/>
  <unicode hex="0063"/>
  <note>
10
</note>
  <anchor x="305.94399999999996" y="0.0" name="bottom"/>
  <anchor x="384.2" y="531.8" name="top"/>
  <outline>
    <contour>
      <point x="299.66799999999995" y="-10.0" type="curve" smooth="yes"/>
      <point x="388.70199999999994" y="-10.0"/>
      <point x="454.98199999999997" y="3.5339999999999994"/>
      <point x="511.5999999999999" y="21.352" type="curve"/>
      <point x="506.7319999999999" y="52.54" type="line"/>
      <point x="450.54799999999994" y="36.227999999999994"/>
      <point x="392.65399999999994" y="23.268"/>
      <point x="308.67400000000004" y="23.268" type="curve" smooth="yes"/>
      <point x="172.22000000000003" y="23.268"/>
      <point x="84.638" y="90.3"/>
      <point x="84.638" y="197.43799999999996" type="curve" smooth="yes"/>
      <point x="84.638" y="382.322"/>
      <point x="206.808" y="507.94999999999993"/>
      <point x="380.618" y="507.94999999999993" type="curve" smooth="yes"/>
      <point x="442.604" y="507.94999999999993"/>
      <point x="504.432" y="499.1620000000001"/>
      <point x="568.0519999999999" y="480.432" type="curve"/>
      <point x="579.1579999999999" y="514.0699999999999" type="line"/>
      <point x="515.2400000000001" y="532.8000000000001"/>
      <point x="451.0079999999999" y="541.8"/>
      <point x="383.97799999999995" y="541.8" type="curve" smooth="yes"/>
      <point x="180.58800000000002" y="541.8"/>
      <point x="45.00399999999999" y="406.462"/>
      <point x="45.00399999999999" y="194.542" type="curve" smooth="yes"/>
      <point x="45.00399999999999" y="68.53999999999999"/>
      <point x="139.956" y="-10.0"/>
    </contour>
  </outline>
</glyph>
<glyph name="d" format="2">
  <advance width="646.2599999999999"/>
  <unicode hex="0064"/>
  <note>
17
</note>
  <anchor x="264.574" y="0.0" name="bottom"/>
  <anchor x="321.974" y="300.89" name="center"/>
  <anchor x="395.51" y="740.0" name="top"/>
  <anchor x="711.2399999999999" y="740.0" name="topright"/>
  <outline>
    <contour>
      <point x="547.2459999999999" y="-10.0" type="curve" smooth="yes"/>
      <point x="560.438" y="-10.0"/>
      <point x="576.9240000000001" y="-7.2139999999999995"/>
      <point x="592.668" y="-1.1819999999999997" type="curve"/>
      <point x="588.7479999999999" y="29.21" type="line"/>
      <point x="579.1979999999999" y="25.389999999999997"/>
      <point x="567.894" y="23.078"/>
      <point x="555.532" y="23.078" type="curve" smooth="yes"/>
      <point x="526.078" y="23.078"/>
      <point x="509.74800000000005" y="41.31"/>
      <point x="509.74800000000005" y="74.224" type="curve" smooth="yes"/>
      <point x="509.74800000000005" y="81.88600000000001"/>
      <point x="586.632" y="562.4839999999999"/>
      <point x="614.67" y="740.0" type="curve"/>
      <point x="575.15" y="740.0" type="line"/>
      <point x="540.428" y="521.848" type="line"/>
      <point x="498.92599999999993" y="531.586"/>
      <point x="450.622" y="541.8"/>
      <point x="383.68399999999997" y="541.8" type="curve" smooth="yes"/>
      <point x="187.92" y="541.8"/>
      <point x="40.446" y="399.4319999999999"/>
      <point x="40.446" y="186.16799999999998" type="curve" smooth="yes"/>
      <point x="40.446" y="55.925999999999995"/>
      <point x="124.03399999999999" y="-10.0"/>
      <point x="244.78799999999995" y="-10.0" type="curve" smooth="yes"/>
      <point x="322.19" y="-10.0"/>
      <point x="417.736" y="19.229999999999997"/>
      <point x="471.56399999999996" y="54.983999999999995" type="curve"/>
      <point x="476.518" y="13.27"/>
      <point x="503.79" y="-10.0"/>
    </contour>
    <contour>
      <point x="255.69" y="24.299999999999997" type="curve" smooth="yes"/>
      <point x="152.51399999999998" y="24.299999999999997"/>
      <point x="80.654" y="82.27399999999999"/>
      <point x="80.654" y="191.11399999999998" type="curve" smooth="yes"/>
      <point x="80.654" y="371.71400000000006"/>
      <point x="210.874" y="510.006"/>
      <point x="379.8179999999999" y="510.006" type="curve" smooth="yes"/>
      <point x="448.572" y="510.006"/>
      <point x="496.81399999999996" y="498.7339999999999"/>
      <point x="535.2679999999999" y="489.75" type="curve"/>
      <point x="471.1959999999999" y="84.914" type="line"/>
      <point x="411.854" y="49.023999999999994"/>
      <point x="329.198" y="24.299999999999997"/>
    </contour>
  </outline>
</glyph>
<glyph name="e" format="2">
  <advance width="607.74"/>
  <unicode hex="0065"/>
  <note>
14 points
</note>
  <anchor x="297.752" y="0.0" name="bottom"/>
  <anchor x="438.264" y="9.261999999999999" name="ogonek"/>
  <anchor x="384.696" y="532.382" name="top"/>
  <outline>
    <contour>
      <point x="80.826" y="282.03000000000003" type="curve"/>
      <point x="77.792" y="252.634" type="line"/>
      <point x="135.18" y="244.69"/>
      <point x="209.152" y="241.23"/>
      <point x="279.21" y="245.73000000000002" type="curve" smooth="yes"/>
      <point x="475.45" y="258.402"/>
      <point x="583.41" y="314.19399999999996"/>
      <point x="583.41" y="415.16800000000006" type="curve" smooth="yes"/>
      <point x="583.41" y="495.25399999999996"/>
      <point x="504.57" y="541.8"/>
      <point x="378.89399999999995" y="541.8" type="curve" smooth="yes"/>
      <point x="176.21" y="541.8"/>
      <point x="46.234" y="411.64799999999997"/>
      <point x="46.234" y="208.274" type="curve" smooth="yes"/>
      <point x="46.234" y="74.926"/>
      <point x="140.328" y="-10.0"/>
      <point x="293.0319999999999" y="-10.0" type="curve" smooth="yes"/>
      <point x="374.95599999999996" y="-10.0"/>
      <point x="459.84" y="7.533999999999999"/>
      <point x="532.6" y="38.306" type="curve"/>
      <point x="525.07" y="69.60799999999999" type="line"/>
      <point x="446.61199999999997" y="38.262"/>
      <point x="370.186" y="22.727999999999998"/>
      <point x="298.532" y="22.727999999999998" type="curve" smooth="yes"/>
      <point x="165.192" y="22.727999999999998"/>
      <point x="85.50800000000001" y="95.64"/>
      <point x="85.50800000000001" y="210.05" type="curve" smooth="yes"/>
      <point x="85.50800000000001" y="392.018"/>
      <point x="203.832" y="510.062"/>
      <point x="374.432" y="510.062" type="curve" smooth="yes"/>
      <point x="480.282" y="510.062"/>
      <point x="543.5959999999999" y="474.934"/>
      <point x="543.5959999999999" y="410.03200000000004" type="curve" smooth="yes"/>
      <point x="543.5959999999999" y="331.136"/>
      <point x="445.17599999999993" y="287.03799999999995"/>
      <point x="275.544" y="276.25000000000006" type="curve" smooth="yes"/>
      <point x="207.82399999999998" y="271.93"/>
      <point x="137.988" y="273.242"/>
    </contour>
  </outline>
</glyph>
<glyph name="f" format="2">
  <advance width="384.459"/>
  <unicode hex="0066"/>
  <outline>
    <contour>
      <point x="-26.87700000000001" y="-220.0" type="curve" smooth="yes"/>
      <point x="55.97299999999999" y="-220.0"/>
      <point x="96.59599999999999" y="-158.18200000000002"/>
      <point x="121.198" y="-2.1840000000000055" type="curve" smooth="yes"/>
      <point x="192.363" y="452.598" type="line"/>
      <point x="417.742" y="452.598" type="line"/>
      <point x="422.947" y="485.21500000000003" type="line"/>
      <point x="197.50500000000002" y="485.21500000000003" type="line"/>
      <point x="221.704" y="643.914"/>
      <point x="278.877" y="715.16"/>
      <point x="387.392" y="715.16" type="curve" smooth="yes"/>
      <point x="447.365" y="715.16"/>
      <point x="486.8399999999999" y="704.7749999999999"/>
      <point x="538.732" y="689.24" type="curve"/>
      <point x="549.667" y="721.595" type="line"/>
      <point x="491.75" y="741.277"/>
      <point x="442.906" y="750.0"/>
      <point x="389.602" y="750.0" type="curve" smooth="yes"/>
      <point x="257.66799999999995" y="750.0"/>
      <point x="187.839" y="671.5759999999999"/>
      <point x="157.375" y="485.21500000000003" type="curve"/>
      <point x="53.415" y="478.943" type="line"/>
      <point x="49.309000000000005" y="452.598" type="line"/>
      <point x="152.17000000000002" y="452.598" type="line"/>
      <point x="80.409" y="-5.8890000000000065" type="line" smooth="yes"/>
      <point x="59.79399999999999" y="-135.382"/>
      <point x="32.565" y="-187.079"/>
      <point x="-33.83200000000001" y="-187.079" type="curve" smooth="yes"/>
      <point x="-48.15400000000001" y="-187.079"/>
      <point x="-61.86400000000001" y="-184.496"/>
      <point x="-79.343" y="-178.348" type="curve"/>
      <point x="-88.298" y="-209.532" type="line"/>
      <point x="-67.301" y="-216.877"/>
      <point x="-47.933" y="-220.0"/>
    </contour>
  </outline>
</glyph>
<glyph name="g" format="2">
  <advance width="636.728"/>
  <unicode hex="0067"/>
  <note>
16
</note>
  <anchor x="220.89000000000001" y="-216.64000000000001" name="bottom"/>
  <anchor x="364.72799999999995" y="531.8" name="top"/>
  <outline>
    <contour>
      <point x="13.291999999999998" y="-181.478" type="line"/>
      <point x="77.642" y="-205.272"/>
      <point x="156.57199999999997" y="-220.0"/>
      <point x="228.42999999999998" y="-220.0" type="curve" smooth="yes"/>
      <point x="385.936" y="-220.0"/>
      <point x="475.6119999999999" y="-136.692"/>
      <point x="501.144" y="26.942" type="curve" smooth="yes"/>
      <point x="577.6859999999999" y="507.12799999999993" type="line"/>
      <point x="530.3019999999999" y="528.17"/>
      <point x="461.85200000000003" y="541.8"/>
      <point x="395.594" y="541.8" type="curve" smooth="yes"/>
      <point x="168.748" y="541.8"/>
      <point x="40.602" y="388.022"/>
      <point x="40.602" y="186.79999999999998" type="curve" smooth="yes"/>
      <point x="40.602" y="66.554"/>
      <point x="120.488" y="-7.03"/>
      <point x="250.16" y="-7.03" type="curve" smooth="yes"/>
      <point x="315.156" y="-7.03"/>
      <point x="402.648" y="19.644000000000002"/>
      <point x="466.486" y="60.114000000000004" type="curve"/>
      <point x="461.756" y="28.749999999999996" type="line" smooth="yes"/>
      <point x="440.41" y="-116.57400000000001"/>
      <point x="360.92799999999994" y="-187.48600000000002"/>
      <point x="223.516" y="-187.48600000000002" type="curve" smooth="yes"/>
      <point x="158.34599999999998" y="-187.48600000000002"/>
      <point x="83.22399999999999" y="-172.54399999999998"/>
      <point x="25.291999999999998" y="-148.806" type="curve"/>
    </contour>
    <contour>
      <point x="534.1859999999999" y="483.436" type="curve"/>
      <point x="472.61400000000003" y="95.01" type="line"/>
      <point x="415.97" y="56.8"/>
      <point x="323.59" y="26.214"/>
      <point x="262.846" y="26.214" type="curve" smooth="yes"/>
      <point x="149.68599999999998" y="26.214"/>
      <point x="81.146" y="88.478"/>
      <point x="81.146" y="194.61999999999998" type="curve" smooth="yes"/>
      <point x="81.146" y="371.81399999999996"/>
      <point x="199.16799999999998" y="509.97200000000004"/>
      <point x="389.058" y="509.97200000000004" type="curve" smooth="yes"/>
      <point x="459.20399999999995" y="509.97200000000004"/>
      <point x="499.57599999999996" y="495.864"/>
    </contour>
  </outline>
</glyph>
<glyph name="h" format="2">
  <advance width="664.04"/>
  <unicode hex="0068"/>
  <note>
16
</note>
  <anchor x="303.398" y="0.0" name="bottom"/>
  <anchor x="350.372" y="371.62" name="center"/>
  <anchor x="408.006" y="740.0" name="top"/>
  <outline>
    <contour>
      <point x="538.668" y="70.18199999999999" type="curve" smooth="yes"/>
      <point x="538.668" y="113.652"/>
      <point x="584.9739999999999" y="349.39599999999996"/>
      <point x="584.9739999999999" y="408.99" type="curve" smooth="yes"/>
      <point x="584.9739999999999" y="490.95799999999997"/>
      <point x="537.2939999999999" y="541.8"/>
      <point x="434.076" y="541.8" type="curve" smooth="yes"/>
      <point x="335.58599999999996" y="541.8"/>
      <point x="255.59599999999995" y="505.9599999999999"/>
      <point x="165.46200000000002" y="463.14799999999997" type="curve"/>
      <point x="209.57799999999997" y="740.0" type="line"/>
      <point x="169.96800000000002" y="740.0" type="line"/>
      <point x="52.788" y="0.0" type="line"/>
      <point x="92.488" y="0.0" type="line"/>
      <point x="160.14600000000002" y="428.58" type="line"/>
      <point x="250.93599999999998" y="473.348"/>
      <point x="325.362" y="507.656"/>
      <point x="418.326" y="507.656" type="curve" smooth="yes"/>
      <point x="508.71400000000006" y="507.656"/>
      <point x="543.4639999999999" y="464.782"/>
      <point x="543.4639999999999" y="401.08599999999996" type="curve" smooth="yes"/>
      <point x="543.4639999999999" y="331.25800000000004"/>
      <point x="498.31399999999996" y="107.28"/>
      <point x="498.31399999999996" y="60.07199999999999" type="curve" smooth="yes"/>
      <point x="498.31399999999996" y="13.487999999999998"/>
      <point x="528.602" y="-10.0"/>
      <point x="571.232" y="-10.0" type="curve" smooth="yes"/>
      <point x="586.014" y="-10.0"/>
      <point x="606.6479999999999" y="-7.885999999999999"/>
      <point x="623.3259999999999" y="-0.7959999999999999" type="curve"/>
      <point x="620.3159999999999" y="30.866" type="line"/>
      <point x="608.2819999999999" y="26.226"/>
      <point x="594.2479999999999" y="23.898"/>
      <point x="581.968" y="23.898" type="curve" smooth="yes"/>
      <point x="555.3259999999999" y="23.898"/>
      <point x="538.668" y="39.75200000000001"/>
    </contour>
  </outline>
</glyph>
<glyph name="i" format="2">
  <advance width="232.22699999999998"/>
  <unicode hex="0069"/>
  <note>
Ajuster pts sur points
8
</note>
  <anchor x="71.699972" y="0.0" name="bottom"/>
  <anchor x="91.968" y="0.0" name="ogonek"/>
  <anchor x="156.614028" y="531.8" name="top"/>
  <outline>
    <contour>
      <point x="52.622" y="0.0" type="line"/>
      <point x="91.968" y="0.0" type="line"/>
      <point x="176.17499999999998" y="531.8" type="line"/>
      <point x="136.682" y="531.8" type="line"/>
    </contour>
    <contour>
      <point x="185.953" y="717.2" type="curve" smooth="yes"/>
      <point x="163.689" y="717.2"/>
      <point x="155.761" y="712.0999999999999"/>
      <point x="154.30499999999998" y="681.705" type="curve" smooth="yes"/>
      <point x="154.032" y="669.9770000000001"/>
      <point x="162.756" y="666.433"/>
      <point x="175.643" y="666.433" type="curve" smooth="yes"/>
      <point x="199.35500000000002" y="666.433"/>
      <point x="206.40900000000002" y="670.705"/>
      <point x="208.50199999999998" y="702.655" type="curve" smooth="yes"/>
      <point x="208.775" y="713.683"/>
      <point x="201.93499999999997" y="717.2"/>
    </contour>
  </outline>
</glyph>
<glyph name="j" format="2">
  <advance width="239.14900000000003"/>
  <unicode hex="006A"/>
  <note>
idem /i
12
</note>
  <outline>
    <contour>
      <point x="192.938" y="717.2" type="curve" smooth="yes"/>
      <point x="170.611" y="717.2"/>
      <point x="164.02" y="712.0999999999999"/>
      <point x="162.564" y="681.705" type="curve" smooth="yes"/>
      <point x="162.291" y="669.9770000000001"/>
      <point x="169.831" y="666.433"/>
      <point x="182.718" y="666.433" type="curve" smooth="yes"/>
      <point x="204.49200000000002" y="666.433"/>
      <point x="212.12" y="670.705"/>
      <point x="214.21299999999997" y="702.655" type="curve" smooth="yes"/>
      <point x="214.486" y="713.683"/>
      <point x="208.92000000000002" y="717.2"/>
    </contour>
    <contour>
      <point x="183.25" y="531.8" type="line"/>
      <point x="143.667" y="531.8" type="line"/>
      <point x="50.801" y="-56.946000000000005" type="line" smooth="yes"/>
      <point x="37.767" y="-139.105"/>
      <point x="12.216999999999995" y="-187.079"/>
      <point x="-45.254999999999995" y="-187.079" type="curve" smooth="yes"/>
      <point x="-59.625" y="-187.079"/>
      <point x="-77.794" y="-185.196"/>
      <point x="-99.57900000000002" y="-176.56300000000002" type="curve"/>
      <point x="-108.203" y="-208.68300000000002" type="line"/>
      <point x="-88.417" y="-217.183"/>
      <point x="-55.294" y="-220.0"/>
      <point x="-40.715" y="-220.0" type="curve" smooth="yes"/>
      <point x="36.632999999999996" y="-220.0"/>
      <point x="73.48399999999998" y="-162.829"/>
      <point x="89.699" y="-59.56099999999999" type="curve" smooth="yes"/>
    </contour>
  </outline>
</glyph>
<glyph name="l" format="2">
  <advance width="284.989"/>
  <unicode hex="006C"/>
  <anchor x="161.632" y="0.0" name="bottom"/>
  <anchor x="135.098378" y="371.575" name="center"/>
  <anchor x="189.946" y="740.0" name="top"/>
  <anchor x="306.74" y="740.0" name="topright"/>
  <outline>
    <contour>
      <point x="169.986" y="740.0" type="line"/>
      <point x="74.002" y="135.36499999999998" type="line" smooth="yes"/>
      <point x="72.08599999999998" y="122.434"/>
      <point x="68.98599999999999" y="100.783"/>
      <point x="68.98599999999999" y="81.613" type="curve" smooth="yes"/>
      <point x="68.98599999999999" y="29.442999999999998"/>
      <point x="95.68900000000001" y="-10.0"/>
      <point x="163.634" y="-10.0" type="curve" smooth="yes"/>
      <point x="196.527" y="-10.0"/>
      <point x="226.69" y="-4.207000000000001"/>
      <point x="252.64899999999997" y="3.345" type="curve"/>
      <point x="248.966" y="36.157" type="line"/>
      <point x="224.88199999999998" y="29.738999999999997"/>
      <point x="203.06" y="25.056"/>
      <point x="178.22599999999997" y="25.056" type="curve" smooth="yes"/>
      <point x="123.29" y="25.056"/>
      <point x="109.86" y="58.756"/>
      <point x="109.86" y="89.76899999999999" type="curve" smooth="yes"/>
      <point x="109.86" y="111.05799999999999"/>
      <point x="113.254" y="130.73499999999999"/>
      <point x="115.77299999999998" y="145.022" type="curve" smooth="yes"/>
      <point x="210.179" y="740.0" type="line"/>
    </contour>
  </outline>
</glyph>
<glyph name="m" format="2">
  <advance width="1000.8779999999999"/>
  <unicode hex="006D"/>
  <note>
24&gt;23 points
un point de trop dans la jointure avec 2e jambage
</note>
  <outline>
    <contour>
      <point x="908.007" y="-10.0" type="curve" smooth="yes"/>
      <point x="922.798" y="-10.0"/>
      <point x="943.4769999999999" y="-7.930999999999999"/>
      <point x="960.1819999999999" y="-0.778" type="curve"/>
      <point x="957.136" y="30.704" type="line"/>
      <point x="945.12" y="26.064"/>
      <point x="931.005" y="23.817"/>
      <point x="918.7429999999999" y="23.817" type="curve" smooth="yes"/>
      <point x="892.164" y="23.817"/>
      <point x="875.789" y="39.07899999999999"/>
      <point x="875.789" y="69.64399999999999" type="curve" smooth="yes"/>
      <point x="875.789" y="113.627"/>
      <point x="922.221" y="349.531"/>
      <point x="922.221" y="409.053" type="curve" smooth="yes"/>
      <point x="922.221" y="490.832"/>
      <point x="873.781" y="541.8"/>
      <point x="770.635" y="541.8" type="curve" smooth="yes"/>
      <point x="682.1869999999999" y="541.8"/>
      <point x="606.7649999999999" y="504.422"/>
      <point x="528.417" y="457.89" type="curve"/>
      <point x="512.6279999999999" y="508.343"/>
      <point x="470.023" y="541.8"/>
      <point x="393.719" y="541.8" type="curve" smooth="yes"/>
      <point x="313.715" y="541.8"/>
      <point x="240.69299999999998" y="507.74"/>
      <point x="163.77800000000002" y="463.09600000000006" type="curve"/>
      <point x="173.67" y="531.8" type="line"/>
      <point x="136.346" y="531.8" type="line"/>
      <point x="52.712999999999994" y="0.0" type="line"/>
      <point x="92.26899999999999" y="0.0" type="line"/>
      <point x="160.618" y="430.147" type="line"/>
      <point x="241.16899999999998" y="477.722"/>
      <point x="308.08200000000005" y="507.665"/>
      <point x="377.509" y="507.665" type="curve" smooth="yes"/>
      <point x="470.6019999999999" y="507.665"/>
      <point x="496.885" y="455.40000000000003"/>
      <point x="496.885" y="393.96700000000004" type="curve" smooth="yes"/>
      <point x="496.885" y="373.681"/>
      <point x="473.07199999999995" y="226.47699999999998"/>
      <point x="439.93299999999994" y="0.0" type="curve"/>
      <point x="479.48299999999995" y="0.0" type="line"/>
      <point x="512.2439999999999" y="222.26199999999997"/>
      <point x="534.968" y="368.81100000000004"/>
      <point x="536.516" y="397.24300000000005" type="curve" smooth="yes"/>
      <point x="536.606" y="407.393"/>
      <point x="536.002" y="419.09999999999997"/>
      <point x="534.545" y="428.824" type="curve"/>
      <point x="608.305" y="473.619"/>
      <point x="676.675" y="507.476"/>
      <point x="756.848" y="507.476" type="curve" smooth="yes"/>
      <point x="846.917" y="507.476"/>
      <point x="880.0379999999999" y="463.947"/>
      <point x="880.0379999999999" y="396.949" type="curve" smooth="yes"/>
      <point x="880.0379999999999" y="329.56800000000004"/>
      <point x="835.579" y="107.595"/>
      <point x="835.579" y="60.144" type="curve" smooth="yes"/>
      <point x="835.579" y="13.307999999999998"/>
      <point x="865.4580000000001" y="-10.0"/>
    </contour>
  </outline>
</glyph>
<glyph name="n" format="2">
  <advance width="663.584"/>
  <unicode hex="006E"/>
  <note>
16
</note>
  <anchor x="306.444" y="0.0" name="bottom"/>
  <anchor x="363.049" y="531.8" name="top"/>
  <outline>
    <contour>
      <point x="136.346" y="531.8" type="line"/>
      <point x="52.712999999999994" y="0.0" type="line"/>
      <point x="92.20599999999999" y="0.0" type="line"/>
      <point x="160.008" y="428.66999999999996" type="line"/>
      <point x="253.96299999999997" y="475.061"/>
      <point x="324.771" y="507.93800000000005"/>
      <point x="417.942" y="507.93800000000005" type="curve" smooth="yes"/>
      <point x="507.5489999999999" y="507.93800000000005"/>
      <point x="542.77" y="464.388"/>
      <point x="542.77" y="397.264" type="curve" smooth="yes"/>
      <point x="542.77" y="330.09000000000003"/>
      <point x="498.248" y="108.22500000000001"/>
      <point x="498.248" y="59.928000000000004" type="curve" smooth="yes"/>
      <point x="498.248" y="13.496999999999998"/>
      <point x="528.218" y="-10.0"/>
      <point x="570.7669999999999" y="-10.0" type="curve" smooth="yes"/>
      <point x="585.558" y="-10.0"/>
      <point x="606.183" y="-7.930999999999999"/>
      <point x="622.8879999999999" y="-0.778" type="curve"/>
      <point x="619.842" y="30.704" type="line"/>
      <point x="607.826" y="26.064"/>
      <point x="593.7109999999999" y="23.817"/>
      <point x="581.449" y="23.817" type="curve" smooth="yes"/>
      <point x="554.87" y="23.817"/>
      <point x="538.404" y="39.635000000000005"/>
      <point x="538.404" y="70.11899999999999" type="curve" smooth="yes"/>
      <point x="538.404" y="113.616"/>
      <point x="584.863" y="349.342"/>
      <point x="584.863" y="408.891" type="curve" smooth="yes"/>
      <point x="584.863" y="491.768"/>
      <point x="535.353" y="541.8"/>
      <point x="433.368" y="541.8" type="curve" smooth="yes"/>
      <point x="334.27500000000003" y="541.8"/>
      <point x="256.78" y="507.915"/>
      <point x="162.855" y="460.912" type="curve"/>
      <point x="173.994" y="531.8" type="line"/>
    </contour>
  </outline>
</glyph>
<glyph name="o" format="2">
  <advance width="655.1800000000001"/>
  <unicode hex="006F"/>
  <note>
8
</note>
  <anchor x="305.59000000000003" y="0.0" name="bottom"/>
  <anchor x="331.38999999999993" y="272.27" name="center"/>
  <anchor x="378.8999999999999" y="1.6400000000000008" name="ogonek"/>
  <anchor x="359.25" y="531.8" name="top"/>
  <anchor x="464.68999999999994" y="528.17" name="topright"/>
  <outline>
    <contour>
      <point x="304.2699999999999" y="-10.0" type="curve" smooth="yes"/>
      <point x="498.68999999999994" y="-10.0"/>
      <point x="603.88" y="127.08000000000001"/>
      <point x="603.7" y="328.15000000000003" type="curve" smooth="yes"/>
      <point x="603.5200000000001" y="468.54"/>
      <point x="513.41" y="542.07"/>
      <point x="347.95" y="542.07" type="curve" smooth="yes"/>
      <point x="154.22" y="542.07"/>
      <point x="47.97999999999999" y="401.27"/>
      <point x="48.15999999999999" y="202.92" type="curve" smooth="yes"/>
      <point x="48.33999999999999" y="61.88999999999999"/>
      <point x="136.85999999999999" y="-10.0"/>
    </contour>
    <contour>
      <point x="304.63999999999993" y="21.91" type="curve" smooth="yes"/>
      <point x="162.09" y="21.91"/>
      <point x="87.59" y="81.81"/>
      <point x="87.59" y="205.64000000000001" type="curve" smooth="yes"/>
      <point x="87.59" y="380.77000000000004"/>
      <point x="179.16999999999996" y="510.15999999999997"/>
      <point x="347.63000000000005" y="510.15999999999997" type="curve" smooth="yes"/>
      <point x="488.09" y="510.15999999999997"/>
      <point x="564.0899999999999" y="448.3"/>
      <point x="564.0899999999999" y="325.92" type="curve" smooth="yes"/>
      <point x="564.0899999999999" y="147.21000000000004"/>
      <point x="474.1499999999999" y="21.91"/>
    </contour>
  </outline>
</glyph>
<glyph name="p" format="2">
  <advance width="638.495"/>
  <unicode hex="0070"/>
  <note>
14 point
</note>
  <outline>
    <contour>
      <point x="20.003999999999998" y="-210.0" type="line"/>
      <point x="59.161" y="-210.0" type="line"/>
      <point x="94.16199999999999" y="9.373" type="line"/>
      <point x="134.63199999999995" y="-0.08600000000000185"/>
      <point x="185.599" y="-9.955"/>
      <point x="248.66799999999998" y="-9.955" type="curve" smooth="yes"/>
      <point x="456.08" y="-9.955"/>
      <point x="595.562" y="141.785"/>
      <point x="595.562" y="345.22100000000006" type="curve" smooth="yes"/>
      <point x="595.562" y="472.722"/>
      <point x="528.419" y="541.8"/>
      <point x="408.566" y="541.8" type="curve" smooth="yes"/>
      <point x="315.056" y="541.8"/>
      <point x="241.58899999999997" y="503.42100000000005"/>
      <point x="161.535" y="450.49999999999994" type="curve"/>
      <point x="173.085" y="534.53" type="line"/>
      <point x="136.91" y="534.53" type="line"/>
    </contour>
    <contour>
      <point x="248.39899999999997" y="22.092" type="curve" smooth="yes"/>
      <point x="185.862" y="22.092"/>
      <point x="136.10999999999999" y="33.827"/>
      <point x="99.322" y="43.056999999999995" type="curve"/>
      <point x="157.898" y="414.75" type="line"/>
      <point x="241.545" y="475.028"/>
      <point x="317.448" y="507.368"/>
      <point x="392.536" y="507.368" type="curve" smooth="yes"/>
      <point x="497.50999999999993" y="507.368"/>
      <point x="555.772" y="449.01"/>
      <point x="555.772" y="336.949" type="curve" smooth="yes"/>
      <point x="555.772" y="159.48000000000002"/>
      <point x="427.69000000000005" y="22.092"/>
    </contour>
  </outline>
</glyph>
<glyph name="q" format="2">
  <advance width="636.446"/>
  <unicode hex="0071"/>
  <note>
12
</note>
  <outline>
    <contour>
      <point x="578.669" y="514.946" type="line"/>
      <point x="522.236" y="529.032"/>
      <point x="455.57" y="541.8"/>
      <point x="382.205" y="541.8" type="curve" smooth="yes"/>
      <point x="161.016" y="541.8"/>
      <point x="40.293" y="368.89300000000003"/>
      <point x="40.293" y="180.111" type="curve" smooth="yes"/>
      <point x="40.293" y="66.858"/>
      <point x="115.93399999999998" y="-10.0"/>
      <point x="236.18099999999998" y="-10.0" type="curve" smooth="yes"/>
      <point x="320.162" y="-10.0"/>
      <point x="393.415" y="19.237999999999996"/>
      <point x="469.74699999999996" y="75.11899999999999" type="curve"/>
      <point x="423.514" y="-210.0" type="line"/>
      <point x="463.49" y="-210.0" type="line"/>
    </contour>
    <contour>
      <point x="535.1690000000001" y="488.566" type="curve"/>
      <point x="474.63699999999994" y="108.18299999999999" type="line"/>
      <point x="389.806" y="46.723"/>
      <point x="320.589" y="23.892"/>
      <point x="247.36399999999998" y="23.892" type="curve" smooth="yes"/>
      <point x="147.66599999999997" y="23.892"/>
      <point x="80.03899999999999" y="87.346"/>
      <point x="80.03899999999999" y="185.888" type="curve" smooth="yes"/>
      <point x="80.03899999999999" y="360.538"/>
      <point x="192.88000000000002" y="509.44100000000003"/>
      <point x="379.17199999999997" y="509.44100000000003" type="curve" smooth="yes"/>
      <point x="440.93499999999995" y="509.44100000000003"/>
      <point x="497.105" y="497.52299999999997"/>
    </contour>
  </outline>
</glyph>
<glyph name="r" format="2">
  <advance width="461.855"/>
  <unicode hex="0072"/>
  <anchor x="71.568" y="0.0" name="bottom"/>
  <anchor x="303.97" y="531.8" name="top"/>
  <outline>
    <contour>
      <point x="172.853" y="531.8" type="line"/>
      <point x="136.472" y="531.8" type="line"/>
      <point x="52.64999999999999" y="0.0" type="line"/>
      <point x="91.55099999999999" y="0.0" type="line"/>
      <point x="154.689" y="398.68600000000004" type="line"/>
      <point x="243.161" y="476.02700000000004"/>
      <point x="318.96" y="505.39700000000005"/>
      <point x="385.733" y="505.39700000000005" type="curve" smooth="yes"/>
      <point x="416.219" y="505.39700000000005"/>
      <point x="451.483" y="499.987"/>
      <point x="478.5969999999999" y="491.85" type="curve"/>
      <point x="490.45" y="527.361" type="line"/>
      <point x="468.191" y="535.179"/>
      <point x="431.69" y="541.8"/>
      <point x="392.476" y="541.8" type="curve" smooth="yes"/>
      <point x="320.937" y="541.8"/>
      <point x="249.862" y="512.884"/>
      <point x="158.10399999999998" y="438.507" type="curve"/>
    </contour>
  </outline>
</glyph>
<glyph name="s" format="2">
  <advance width="565.14"/>
  <unicode hex="0073"/>
  <anchor x="247.15999999999997" y="0.0" name="bottom"/>
  <anchor x="329.00000000000006" y="531.8" name="top"/>
  <outline>
    <contour>
      <point x="3.889999999999997" y="30.729999999999993" type="line"/>
      <point x="62.139999999999986" y="9.139999999999999"/>
      <point x="145.59999999999997" y="-10.0"/>
      <point x="242.77999999999997" y="-10.0" type="curve" smooth="yes"/>
      <point x="410.11999999999995" y="-10.0"/>
      <point x="501.4199999999999" y="46.48"/>
      <point x="501.4199999999999" y="139.39" type="curve" smooth="yes"/>
      <point x="501.4199999999999" y="322.89000000000004"/>
      <point x="119.35" y="250.09"/>
      <point x="119.35" y="400.75" type="curve" smooth="yes"/>
      <point x="119.35" y="464.76"/>
      <point x="187.82" y="509.97999999999996"/>
      <point x="326.24" y="509.97999999999996" type="curve" smooth="yes"/>
      <point x="396.76" y="509.97999999999996"/>
      <point x="460.74" y="497.16"/>
      <point x="512.83" y="479.65999999999997" type="curve"/>
      <point x="523.79" y="511.21" type="line"/>
      <point x="472.89000000000004" y="529.3000000000001"/>
      <point x="398.4699999999999" y="541.8"/>
      <point x="333.03999999999996" y="541.8" type="curve" smooth="yes"/>
      <point x="164.86999999999998" y="541.8"/>
      <point x="81.32" y="483.8"/>
      <point x="81.32" y="396.5" type="curve" smooth="yes"/>
      <point x="81.32" y="216.93000000000004"/>
      <point x="462.98" y="290.58000000000004"/>
      <point x="462.98" y="134.15" type="curve" smooth="yes"/>
      <point x="462.98" y="67.86999999999999"/>
      <point x="387.83" y="21.91"/>
      <point x="250.00000000000003" y="21.91" type="curve" smooth="yes"/>
      <point x="155.92" y="21.91"/>
      <point x="70.39" y="41.82"/>
      <point x="16.349999999999998" y="63.64" type="curve"/>
    </contour>
  </outline>
</glyph>
<glyph name="t" format="2">
  <advance width="443.37399999999997"/>
  <unicode hex="0074"/>
  <anchor x="233.285" y="0.0" name="bottom"/>
  <anchor x="215.49599999999998" y="290.83399999999995" name="center"/>
  <anchor x="207.27999999999997" y="664.703" name="top"/>
  <anchor x="416.80899999999997" y="778.86" name="topright"/>
  <outline>
    <contour>
      <point x="387.704" y="53.26" type="line"/>
      <point x="341.12699999999995" y="37.106"/>
      <point x="291.80999999999995" y="25.262999999999998"/>
      <point x="245.139" y="25.262999999999998" type="curve" smooth="yes"/>
      <point x="166.534" y="25.262999999999998"/>
      <point x="140.00199999999998" y="62.370999999999995"/>
      <point x="140.00199999999998" y="119.88799999999999" type="curve" smooth="yes"/>
      <point x="140.00199999999998" y="133.22299999999998"/>
      <point x="141.21200000000002" y="147.495"/>
      <point x="143.759" y="162.67600000000002" type="curve" smooth="yes"/>
      <point x="197.11599999999999" y="500.457" type="line"/>
      <point x="449.053" y="500.457" type="line"/>
      <point x="454.438" y="531.8" type="line"/>
      <point x="202.31199999999998" y="531.8" type="line"/>
      <point x="223.688" y="664.703" type="line"/>
      <point x="193.266" y="664.703" type="line"/>
      <point x="163.098" y="531.8" type="line"/>
      <point x="38.896" y="524.918" type="line"/>
      <point x="34.0" y="500.484" type="line"/>
      <point x="157.52400000000003" y="500.484" type="line"/>
      <point x="104.14899999999999" y="161.542" type="line" smooth="yes"/>
      <point x="100.96899999999998" y="142.708"/>
      <point x="99.161" y="121.5"/>
      <point x="99.161" y="108.538" type="curve" smooth="yes"/>
      <point x="99.161" y="25.201"/>
      <point x="146.79" y="-10.0"/>
      <point x="228.881" y="-10.0" type="curve" smooth="yes"/>
      <point x="273.02599999999995" y="-10.0"/>
      <point x="331.03599999999994" y="-1.4120000000000001"/>
      <point x="391.90999999999997" y="20.718999999999998" type="curve"/>
    </contour>
  </outline>
</glyph>
<glyph name="u" format="2">
  <advance width="647.22"/>
  <unicode hex="0075"/>
  <note>
15
</note>
  <anchor x="274.19399999999996" y="0.0" name="bottom"/>
  <anchor x="596.555" y="2.043" name="ogonek"/>
  <anchor x="352.527012" y="531.8" name="top"/>
  <anchor x="581.577" y="531.8" name="topright"/>
  <outline>
    <contour>
      <point x="217.049" y="-10.0" type="curve" smooth="yes"/>
      <point x="310.42400000000004" y="-10.0"/>
      <point x="384.087" y="17.884999999999998"/>
      <point x="476.178" y="67.679" type="curve"/>
      <point x="478.869" y="12.598999999999998"/>
      <point x="504.345" y="-10.0"/>
      <point x="547.178" y="-10.0" type="curve" smooth="yes"/>
      <point x="558.742" y="-10.0"/>
      <point x="581.04" y="-5.719"/>
      <point x="596.555" y="2.7359999999999998" type="curve"/>
      <point x="593.7470000000001" y="30.950000000000003" type="line"/>
      <point x="580.653" y="26.121000000000002"/>
      <point x="566.062" y="23.391"/>
      <point x="559.449" y="23.391" type="curve" smooth="yes"/>
      <point x="529.783" y="23.391"/>
      <point x="514.603" y="38.737"/>
      <point x="514.603" y="80.054" type="curve" smooth="yes"/>
      <point x="514.603" y="92.362"/>
      <point x="516.149" y="117.925"/>
      <point x="582.3870000000001" y="531.8" type="curve"/>
      <point x="542.212" y="531.8" type="line"/>
      <point x="476.056" y="96.97200000000001" type="line"/>
      <point x="387.26" y="50.217"/>
      <point x="319.517" y="23.682"/>
      <point x="231.47099999999998" y="23.682" type="curve" smooth="yes"/>
      <point x="152.274" y="23.682"/>
      <point x="113.351" y="63.12"/>
      <point x="113.40499999999999" y="124.11500000000001" type="curve" smooth="yes"/>
      <point x="113.89099999999999" y="141.751"/>
      <point x="115.8" y="166.436"/>
      <point x="173.629" y="531.8" type="curve"/>
      <point x="134.064" y="531.8" type="line"/>
      <point x="80.92999999999999" y="185.77400000000003"/>
      <point x="72.976" y="136.324"/>
      <point x="72.976" y="114.1" type="curve" smooth="yes"/>
      <point x="72.976" y="39.385999999999996"/>
      <point x="120.861" y="-10.0"/>
    </contour>
  </outline>
</glyph>
<glyph name="v" format="2">
  <advance width="543.651"/>
  <unicode hex="0076"/>
  <outline>
    <contour>
      <point x="248.65699999999995" y="-0.8920000000000001" type="line"/>
      <point x="501.1309999999999" y="383.327"/>
      <point x="554.859" y="431.485"/>
      <point x="559.573" y="531.8" type="curve"/>
      <point x="519.685" y="531.8" type="line"/>
      <point x="513.4509999999999" y="437.829"/>
      <point x="467.99699999999996" y="403.551"/>
      <point x="233.183" y="35.935" type="curve"/>
      <point x="83.759" y="538.17" type="line"/>
      <point x="44.236" y="533.611" type="line"/>
      <point x="205.50499999999997" y="-0.8920000000000001" type="line"/>
    </contour>
  </outline>
</glyph>
<glyph name="w" format="2">
  <advance width="824.453"/>
  <unicode hex="0077"/>
  <note>
15
</note>
  <anchor x="384.441" y="0.0" name="bottom"/>
  <anchor x="439.191" y="531.8" name="top"/>
  <outline>
    <contour>
      <point x="581.209" y="0.0" type="line"/>
      <point x="795.887" y="375.033"/>
      <point x="837.205" y="455.151"/>
      <point x="839.4889999999999" y="531.8" type="curve"/>
      <point x="803.0840000000001" y="531.8" type="line"/>
      <point x="799.494" y="461.823"/>
      <point x="772.657" y="405.235"/>
      <point x="565.1869999999999" y="37.18" type="curve"/>
      <point x="463.669" y="515.893" type="line"/>
      <point x="420.95300000000003" y="515.893" type="line"/>
      <point x="345.2559999999999" y="354.185"/>
      <point x="269.78399999999993" y="197.29600000000002"/>
      <point x="193.331" y="38.234" type="curve"/>
      <point x="82.27" y="538.17" type="line"/>
      <point x="45.217" y="533.674" type="line"/>
      <point x="165.225" y="0.0" type="line"/>
      <point x="209.82199999999997" y="0.0" type="line"/>
      <point x="285.429" y="155.11499999999998"/>
      <point x="362.116" y="313.731"/>
      <point x="436.21099999999996" y="467.586" type="curve"/>
      <point x="538.6459999999998" y="0.0" type="line"/>
    </contour>
  </outline>
</glyph>
<glyph name="x" format="2">
  <advance width="555.79"/>
  <unicode hex="0078"/>
  <outline>
    <contour>
      <point x="528.8499999999999" y="531.8" type="line"/>
      <point x="493.0599999999999" y="452.42999999999995"/>
      <point x="458.95" y="402.90999999999997"/>
      <point x="288.43" y="299.58000000000004" type="curve"/>
      <point x="119.93" y="540.8000000000001" type="line"/>
      <point x="81.03" y="530.8" type="line"/>
      <point x="255.04999999999993" y="284.07000000000005" type="line"/>
      <point x="72.16000000000001" y="172.92999999999998"/>
      <point x="14.979999999999999" y="93.71"/>
      <point x="-10.87" y="0.0" type="curve"/>
      <point x="29.590000000000003" y="0.0" type="line"/>
      <point x="57.51" y="83.10999999999999"/>
      <point x="88.96" y="145.12"/>
      <point x="273.69999999999993" y="256.7" type="curve"/>
      <point x="462.09999999999997" y="-7.099999999999999" type="line"/>
      <point x="499.49999999999994" y="2.1799999999999997" type="line"/>
      <point x="306.03999999999996" y="273.16" type="line"/>
      <point x="491.72999999999996" y="382.45"/>
      <point x="541.6" y="457.37"/>
      <point x="567.63" y="531.8" type="curve"/>
    </contour>
  </outline>
</glyph>
<glyph name="y" format="2">
  <advance width="552.7600000000001"/>
  <unicode hex="0079"/>
  <anchor x="282.33" y="-123.90000000000002" name="bottom"/>
  <anchor x="309.18" y="531.8" name="top"/>
  <outline>
    <contour>
      <point x="528.2299999999999" y="534.53" type="line"/>
      <point x="520.1099999999999" y="426.83"/>
      <point x="387.11" y="201.38"/>
      <point x="257.77" y="20.600000000000005" type="curve"/>
      <point x="81.25" y="540.9" type="line"/>
      <point x="41.65" y="535.94" type="line"/>
      <point x="226.17000000000002" y="-6.37" type="line"/>
      <point x="237.21999999999997" y="-6.37" type="line"/>
      <point x="178.24999999999997" y="-87.83999999999999"/>
      <point x="119.52" y="-158.98000000000002"/>
      <point x="72.54" y="-207.27" type="curve"/>
      <point x="109.44" y="-219.6" type="line"/>
      <point x="272.31999999999994" y="-50.69"/>
      <point x="565.7299999999998" y="391.78999999999996"/>
      <point x="567.2" y="533.62" type="curve"/>
    </contour>
  </outline>
</glyph>
<glyph name="z" format="2">
  <advance width="583.7629999999999"/>
  <unicode hex="007A"/>
  <anchor x="265.20899999999995" y="0.0" name="bottom"/>
  <anchor x="288.018" y="275.0" name="center"/>
  <anchor x="326.094" y="531.8" name="top"/>
  <outline>
    <contour>
      <point x="13.469999999999999" y="0.0" type="line"/>
      <point x="515.579" y="0.0" type="line"/>
      <point x="520.847" y="32.405" type="line"/>
      <point x="73.202" y="32.405" type="line"/>
      <point x="565.7959999999999" y="501.173" type="line"/>
      <point x="571.0279999999999" y="531.8" type="line"/>
      <point x="103.757" y="531.8" type="line"/>
      <point x="98.399" y="499.341" type="line"/>
      <point x="511.782" y="499.341" type="line"/>
      <point x="17.395999999999997" y="29.925" type="line"/>
    </contour>
  </outline>
</glyph>
<glyph name="braceleft" format="2">
  <advance width="381.478"/>
  <unicode hex="007B"/>
  <outline>
    <contour>
      <point x="93.17999999999999" y="-104.395" type="curve" smooth="yes"/>
      <point x="93.17999999999999" y="-164.31"/>
      <point x="124.78399999999999" y="-210.0"/>
      <point x="214.702" y="-210.0" type="curve" smooth="yes"/>
      <point x="269.282" y="-210.0" type="line"/>
      <point x="274.289" y="-177.85" type="line"/>
      <point x="225.70299999999997" y="-177.85" type="line" smooth="yes"/>
      <point x="153.094" y="-177.85"/>
      <point x="130.21099999999998" y="-141.33499999999998"/>
      <point x="130.21099999999998" y="-96.69600000000001" type="curve" smooth="yes"/>
      <point x="130.21099999999998" y="0.1359999999999999"/>
      <point x="201.905" y="87.202"/>
      <point x="201.905" y="194.956" type="curve" smooth="yes"/>
      <point x="201.905" y="226.76"/>
      <point x="190.499" y="254.13600000000002"/>
      <point x="160.474" y="266.82" type="curve"/>
      <point x="218.519" y="277.57599999999996"/>
      <point x="238.155" y="350.13800000000003"/>
      <point x="238.155" y="427.31000000000006" type="curve" smooth="yes"/>
      <point x="238.155" y="470.75500000000005"/>
      <point x="233.78300000000002" y="505.934"/>
      <point x="233.78300000000002" y="548.5950000000001" type="curve" smooth="yes"/>
      <point x="233.78300000000002" y="617.3820000000001"/>
      <point x="253.05499999999998" y="707.85"/>
      <point x="367.505" y="707.85" type="curve" smooth="yes"/>
      <point x="414.945" y="707.85" type="line"/>
      <point x="419.89799999999997" y="740.0" type="line"/>
      <point x="366.683" y="740.0" type="line" smooth="yes"/>
      <point x="228.54500000000002" y="740.0"/>
      <point x="196.97" y="634.367"/>
      <point x="196.97" y="546.057" type="curve" smooth="yes"/>
      <point x="196.97" y="506.09200000000004"/>
      <point x="201.35999999999999" y="465.474"/>
      <point x="201.35999999999999" y="424.31899999999996" type="curve" smooth="yes"/>
      <point x="201.35999999999999" y="350.40999999999997"/>
      <point x="185.24299999999997" y="283.213"/>
      <point x="124.02399999999999" y="283.213" type="curve" smooth="yes"/>
      <point x="107.62299999999999" y="283.213" type="line"/>
      <point x="102.643" y="251.85600000000002" type="line"/>
      <point x="119.13499999999999" y="251.85600000000002" type="line" smooth="yes"/>
      <point x="153.406" y="251.85600000000002"/>
      <point x="166.792" y="226.46800000000002"/>
      <point x="166.792" y="196.14" type="curve" smooth="yes"/>
      <point x="166.792" y="83.673"/>
      <point x="93.17999999999999" y="3.6700000000000013"/>
    </contour>
  </outline>
</glyph>
<glyph name="bar" format="2">
  <advance width="247.358"/>
  <unicode hex="007C"/>
  <outline>
    <contour>
      <point x="222.49999999999997" y="790.027" type="line"/>
      <point x="189.01999999999998" y="790.027" type="line"/>
      <point x="29.830999999999992" y="-210.0" type="line"/>
      <point x="63.275" y="-210.0" type="line"/>
    </contour>
  </outline>
</glyph>
<glyph name="braceright" format="2">
  <advance width="381.478"/>
  <unicode hex="007D"/>
  <outline>
    <contour>
      <point x="284.661" y="634.3950000000001" type="curve" smooth="yes"/>
      <point x="284.661" y="694.337"/>
      <point x="253.03" y="740.027"/>
      <point x="163.11199999999997" y="740.027" type="curve" smooth="yes"/>
      <point x="108.53200000000001" y="740.027" type="line"/>
      <point x="103.52499999999999" y="707.8770000000001" type="line"/>
      <point x="151.84099999999998" y="707.8770000000001" type="line" smooth="yes"/>
      <point x="224.47699999999998" y="707.8770000000001"/>
      <point x="247.387" y="671.335"/>
      <point x="247.387" y="626.6959999999999" type="curve" smooth="yes"/>
      <point x="247.387" y="529.81"/>
      <point x="175.69299999999996" y="445.741"/>
      <point x="175.69299999999996" y="337.41999999999996" type="curve" smooth="yes"/>
      <point x="175.69299999999996" y="305.69700000000006"/>
      <point x="187.07200000000003" y="278.32099999999997"/>
      <point x="217.151" y="265.664" type="curve"/>
      <point x="159.106" y="254.881"/>
      <point x="139.443" y="182.37300000000002"/>
      <point x="139.443" y="105.174" type="curve" smooth="yes"/>
      <point x="139.443" y="61.729000000000006"/>
      <point x="143.81499999999997" y="24.093000000000004"/>
      <point x="143.81499999999997" y="-18.514" type="curve" smooth="yes"/>
      <point x="143.81499999999997" y="-87.301"/>
      <point x="124.57" y="-177.82299999999998"/>
      <point x="10.120000000000001" y="-177.82299999999998" type="curve" smooth="yes"/>
      <point x="-37.104" y="-177.82299999999998" type="line"/>
      <point x="-42.056999999999995" y="-210.0" type="line"/>
      <point x="11.130999999999995" y="-210.0" type="line" smooth="yes"/>
      <point x="149.269" y="-210.0"/>
      <point x="180.844" y="-104.016"/>
      <point x="180.844" y="-16.57" type="curve" smooth="yes"/>
      <point x="180.844" y="24.124"/>
      <point x="176.454" y="67.307"/>
      <point x="176.454" y="108.273" type="curve" smooth="yes"/>
      <point x="176.454" y="182.128"/>
      <point x="192.62500000000003" y="249.27100000000002"/>
      <point x="253.79" y="249.27100000000002" type="curve" smooth="yes"/>
      <point x="270.19100000000003" y="249.27100000000002" type="line"/>
      <point x="275.17100000000005" y="280.60099999999994" type="line"/>
      <point x="258.67900000000003" y="280.60099999999994" type="line" smooth="yes"/>
      <point x="224.408" y="280.60099999999994"/>
      <point x="211.022" y="305.98900000000003"/>
      <point x="211.022" y="336.31700000000006" type="curve" smooth="yes"/>
      <point x="211.022" y="448.811"/>
      <point x="284.661" y="525.9519999999999"/>
    </contour>
  </outline>
</glyph>
<glyph name="asciitilde" format="2">
  <advance width="479.741"/>
  <unicode hex="007E"/>
  <outline>
    <contour>
      <point x="409.58199999999994" y="261.43" type="curve"/>
      <point x="415.76" y="300.733" type="line"/>
      <point x="391.014" y="278.42"/>
      <point x="365.173" y="257.309"/>
      <point x="331.57699999999994" y="257.309" type="curve" smooth="yes"/>
      <point x="259.06" y="257.309"/>
      <point x="232.123" y="362.21"/>
      <point x="157.26999999999998" y="362.21" type="curve" smooth="yes"/>
      <point x="126.42999999999999" y="362.21"/>
      <point x="97.68599999999999" y="343.23699999999997"/>
      <point x="75.893" y="324.22499999999997" type="curve"/>
      <point x="69.4" y="284.285" type="line"/>
      <point x="92.292" y="303.84999999999997"/>
      <point x="118.24300000000001" y="326.568"/>
      <point x="152.415" y="326.568" type="curve" smooth="yes"/>
      <point x="222.998" y="326.568"/>
      <point x="249.19299999999998" y="221.667"/>
      <point x="328.129" y="221.667" type="curve" smooth="yes"/>
      <point x="362.04699999999997" y="221.667"/>
      <point x="387.097" y="240.18800000000002"/>
    </contour>
  </outline>
</glyph>
<glyph name="cent" format="2">
  <advance width="804.3979999999999"/>
  <unicode hex="00A2"/>
  <outline>
    <contour>
      <point x="362.351" y="-104.964" type="line"/>
      <point x="394.42699999999996" y="-104.964" type="line"/>
      <point x="409.517" y="-9.084" type="line"/>
      <point x="504.582" y="-5.3919999999999995"/>
      <point x="580.931" y="10.408"/>
      <point x="619.034" y="20.956" type="curve"/>
      <point x="615.0300000000001" y="53.519" type="line"/>
      <point x="571.0799999999999" y="42.63099999999999"/>
      <point x="480.246" y="24.023999999999997"/>
      <point x="410.74499999999995" y="24.023999999999997" type="curve" smooth="yes"/>
      <point x="268.972" y="24.023999999999997"/>
      <point x="195.891" y="85.78"/>
      <point x="195.891" y="203.73" type="curve" smooth="yes"/>
      <point x="195.891" y="378.599"/>
      <point x="306.21799999999996" y="506.888"/>
      <point x="491.38199999999995" y="506.888" type="curve" smooth="yes"/>
      <point x="568.8919999999999" y="506.888"/>
      <point x="628.538" y="492.89700000000005"/>
      <point x="676.161" y="478.818" type="curve"/>
      <point x="687.3119999999999" y="513.509" type="line"/>
      <point x="631.96" y="529.611"/>
      <point x="573.246" y="540.9119999999999"/>
      <point x="498.497" y="541.392" type="curve"/>
      <point x="513.923" y="636.773" type="line"/>
      <point x="481.8469999999999" y="636.773" type="line"/>
      <point x="466.178" y="539.18" type="line"/>
      <point x="266.54599999999994" y="528.036"/>
      <point x="155.543" y="388.141"/>
      <point x="155.543" y="198.71" type="curve" smooth="yes"/>
      <point x="155.543" y="54.669"/>
      <point x="248.362" y="-4.292999999999999"/>
      <point x="376.684" y="-8.001000000000001" type="curve"/>
    </contour>
  </outline>
</glyph>
<glyph name="sterling" format="2">
  <advance width="804.5059999999999"/>
  <unicode hex="00A3"/>
  <outline>
    <contour>
      <point x="86.97599999999998" y="0.0" type="line"/>
      <point x="674.2099999999999" y="0.0" type="line"/>
      <point x="679.55" y="34.580000000000005" type="line"/>
      <point x="143.872" y="34.580000000000005" type="line"/>
      <point x="249.08200000000002" y="116.32800000000002"/>
      <point x="294.7" y="178.04600000000002"/>
      <point x="294.7" y="269.668" type="curve" smooth="yes"/>
      <point x="294.7" y="336.19"/>
      <point x="250.394" y="394.57399999999996"/>
      <point x="250.394" y="461.51200000000006" type="curve" smooth="yes"/>
      <point x="250.394" y="606.816"/>
      <point x="371.08799999999997" y="675.668"/>
      <point x="516.026" y="675.668" type="curve" smooth="yes"/>
      <point x="588.0179999999999" y="675.668"/>
      <point x="662.9899999999999" y="667.2579999999999"/>
      <point x="744.084" y="642.8640000000001" type="curve"/>
      <point x="756.198" y="674.78" type="line"/>
      <point x="674.64" y="701.706"/>
      <point x="585.38" y="710.0"/>
      <point x="519.3959999999998" y="710.0" type="curve" smooth="yes"/>
      <point x="349.91" y="710.0"/>
      <point x="212.01999999999998" y="630.4240000000001"/>
      <point x="212.01999999999998" y="464.202" type="curve" smooth="yes"/>
      <point x="212.01999999999998" y="386.226"/>
      <point x="256.62" y="338.02400000000006"/>
      <point x="256.62" y="266.32399999999996" type="curve" smooth="yes"/>
      <point x="256.62" y="170.842"/>
      <point x="187.65599999999998" y="108.092"/>
      <point x="90.948" y="31.43" type="curve"/>
    </contour>
    <contour>
      <point x="111.54" y="355.0760000000001" type="line"/>
      <point x="623.678" y="356.314" type="line"/>
      <point x="628.748" y="387.216" type="line"/>
      <point x="116.52" y="387.216" type="line"/>
    </contour>
  </outline>
</glyph>
<glyph name="currency" format="2">
  <advance width="414.557"/>
  <unicode hex="00A4"/>
  <outline>
    <contour>
      <point x="42.195" y="110.453" type="line"/>
      <point x="120.597" y="185.084" type="line"/>
      <point x="137.613" y="166.70399999999998"/>
      <point x="160.788" y="156.631"/>
      <point x="189.177" y="156.631" type="curve" smooth="yes"/>
      <point x="217.001" y="156.631"/>
      <point x="244.489" y="167.34099999999998"/>
      <point x="267.427" y="185.12" type="curve"/>
      <point x="323.346" y="110.453" type="line"/>
      <point x="347.693" y="133.552" type="line"/>
      <point x="293.2" y="206.914" type="line"/>
      <point x="318.177" y="235.173"/>
      <point x="335.16900000000004" y="273.267"/>
      <point x="335.223" y="315.61699999999996" type="curve" smooth="yes"/>
      <point x="335.27700000000004" y="337.711"/>
      <point x="329.754" y="358.376"/>
      <point x="319.65400000000005" y="374.974" type="curve"/>
      <point x="397.262" y="448.336" type="line"/>
      <point x="380.23" y="471.435" type="line"/>
      <point x="301.11899999999997" y="396.849" type="line"/>
      <point x="284.34099999999995" y="415.265"/>
      <point x="259.829" y="426.275"/>
      <point x="231.915" y="426.275" type="curve" smooth="yes"/>
      <point x="203.499" y="426.275"/>
      <point x="176.657" y="415.238"/>
      <point x="153.791" y="396.885" type="curve"/>
      <point x="99.016" y="471.435" type="line"/>
      <point x="75.16099999999999" y="448.336" type="line"/>
      <point x="127.964" y="375.427" type="line"/>
      <point x="102.27799999999999" y="347.613"/>
      <point x="86.22299999999998" y="309.747"/>
      <point x="86.16900000000001" y="268.115" type="curve" smooth="yes"/>
      <point x="86.115" y="244.285"/>
      <point x="91.611" y="223.158"/>
      <point x="101.774" y="205.82399999999998" type="curve"/>
      <point x="25.529" y="133.552" type="line"/>
    </contour>
    <contour>
      <point x="194.58999999999997" y="186.126" type="curve" smooth="yes"/>
      <point x="147.623" y="186.126"/>
      <point x="115.228" y="223.489"/>
      <point x="115.309" y="273.604" type="curve" smooth="yes"/>
      <point x="115.38999999999999" y="340.395"/>
      <point x="170.784" y="396.753"/>
      <point x="227.37599999999998" y="396.753" type="curve" smooth="yes"/>
      <point x="274.679" y="396.753"/>
      <point x="306.774" y="359.82"/>
      <point x="306.69300000000004" y="310.18600000000004" type="curve" smooth="yes"/>
      <point x="306.612" y="243.42499999999998"/>
      <point x="252.603" y="186.126"/>
    </contour>
  </outline>
</glyph>
<glyph name="yen" format="2">
  <advance width="804.67"/>
  <unicode hex="00A5"/>
  <outline>
    <contour>
      <point x="156.97999999999996" y="356.59000000000003" type="line"/>
      <point x="398.9699999999999" y="356.59000000000003" type="line"/>
      <point x="376.66999999999996" y="214.5" type="line"/>
      <point x="135.18" y="214.5" type="line"/>
      <point x="129.83" y="185.19" type="line"/>
      <point x="371.72999999999996" y="185.19" type="line"/>
      <point x="342.8199999999999" y="0.0" type="line"/>
      <point x="383.31999999999994" y="0.0" type="line"/>
      <point x="412.31999999999994" y="185.19" type="line"/>
      <point x="656.76" y="185.19" type="line"/>
      <point x="661.61" y="214.5" type="line"/>
      <point x="417.16999999999996" y="214.5" type="line"/>
      <point x="439.46999999999997" y="356.59000000000003" type="line"/>
      <point x="683.5000000000001" y="356.59000000000003" type="line"/>
      <point x="688.8499999999999" y="386.13" type="line"/>
      <point x="444.90999999999997" y="386.13" type="line"/>
      <point x="763.1999999999999" y="695.04" type="line"/>
      <point x="728.7099999999998" y="707.28" type="line"/>
      <point x="428.72999999999996" y="415.56" type="line"/>
      <point x="213.19" y="705.46" type="line"/>
      <point x="174.55999999999997" y="695.04" type="line"/>
      <point x="403.90999999999997" y="386.13" type="line"/>
      <point x="162.51000000000002" y="386.13" type="line"/>
    </contour>
  </outline>
</glyph>
<glyph name="brokenbar" format="2">
  <advance width="247.76600000000002"/>
  <unicode hex="00A6"/>
  <outline>
    <contour>
      <point x="158.545" y="391.0" type="line"/>
      <point x="222.662" y="790.027" type="line"/>
      <point x="189.182" y="790.027" type="line"/>
      <point x="125.065" y="391.0" type="line"/>
    </contour>
    <contour>
      <point x="93.92099999999999" y="190.02700000000002" type="line"/>
      <point x="30.103999999999992" y="-210.0" type="line"/>
      <point x="63.520999999999994" y="-210.0" type="line"/>
      <point x="127.365" y="190.02700000000002" type="line"/>
    </contour>
  </outline>
</glyph>
<glyph name="section" format="2">
  <advance width="557.471"/>
  <unicode hex="00A7"/>
  <outline>
    <contour>
      <point x="8.822" y="-114.652" type="curve"/>
      <point x="-11.267000000000001" y="-147.347" type="line"/>
      <point x="42.349" y="-195.18800000000002"/>
      <point x="96.07199999999999" y="-220.0"/>
      <point x="172.92499999999998" y="-220.0" type="curve" smooth="yes"/>
      <point x="329.25" y="-220.0"/>
      <point x="480.067" y="-106.649"/>
      <point x="480.067" y="104.471" type="curve" smooth="yes"/>
      <point x="480.067" y="286.397"/>
      <point x="341.474" y="427.34499999999997"/>
      <point x="341.474" y="582.164" type="curve" smooth="yes"/>
      <point x="341.474" y="653.856"/>
      <point x="377.664" y="708.0580000000001"/>
      <point x="452.299" y="708.0580000000001" type="curve" smooth="yes"/>
      <point x="486.55799999999994" y="708.0580000000001"/>
      <point x="512.136" y="698.197"/>
      <point x="537.5379999999999" y="688.5749999999999" type="curve"/>
      <point x="551.015" y="725.711" type="line"/>
      <point x="508.94800000000004" y="741.2429999999999"/>
      <point x="456.94899999999996" y="749.527"/>
      <point x="405.057" y="749.527" type="curve" smooth="yes"/>
      <point x="241.602" y="749.527"/>
      <point x="90.74300000000001" y="625.571"/>
      <point x="90.74300000000001" y="403.195" type="curve" smooth="yes"/>
      <point x="90.74300000000001" y="213.91"/>
      <point x="224.808" y="69.134"/>
      <point x="224.808" y="-55.193999999999996" type="curve" smooth="yes"/>
      <point x="224.808" y="-129.262"/>
      <point x="172.83999999999997" y="-173.539"/>
      <point x="120.739" y="-173.539" type="curve" smooth="yes"/>
      <point x="77.246" y="-173.539"/>
      <point x="37.826" y="-144.87"/>
    </contour>
    <contour>
      <point x="395.344" y="721.754" type="curve"/>
      <point x="336.5929999999999" y="699.927"/>
      <point x="309.268" y="642.7610000000001"/>
      <point x="309.268" y="579.2610000000001" type="curve" smooth="yes"/>
      <point x="309.268" y="415.327"/>
      <point x="446.344" y="267.325"/>
      <point x="446.344" y="94.60600000000001" type="curve" smooth="yes"/>
      <point x="446.344" y="-85.94199999999998"/>
      <point x="301.489" y="-203.488"/>
      <point x="157.22099999999998" y="-192.207" type="curve"/>
      <point x="219.263" y="-174.415"/>
      <point x="258.041" y="-114.426"/>
      <point x="258.041" y="-50.662" type="curve" smooth="yes"/>
      <point x="258.041" y="89.684"/>
      <point x="126.844" y="225.50500000000002"/>
      <point x="126.844" y="403.985" type="curve" smooth="yes"/>
      <point x="126.844" y="585.278"/>
      <point x="231.14799999999997" y="710.165"/>
    </contour>
  </outline>
</glyph>
<glyph name="copyright" format="2">
  <advance width="812.7309999999999"/>
  <unicode hex="00A9"/>
  <outline>
    <contour>
      <point x="384.592" y="-9.626000000000001" type="curve" smooth="yes"/>
      <point x="627.4960000000001" y="-9.878"/>
      <point x="764.793" y="159.926"/>
      <point x="764.793" y="416.091" type="curve" smooth="yes"/>
      <point x="764.793" y="615.2220000000001"/>
      <point x="629.682" y="709.293"/>
      <point x="447.967" y="709.545" type="curve" smooth="yes"/>
      <point x="207.346" y="709.797"/>
      <point x="71.911" y="539.753"/>
      <point x="71.911" y="283.45400000000006" type="curve" smooth="yes"/>
      <point x="71.911" y="84.20100000000001"/>
      <point x="205.76999999999998" y="-9.374"/>
    </contour>
    <contour>
      <point x="408.21899999999994" y="176.652" type="curve" smooth="yes"/>
      <point x="459.812" y="176.652"/>
      <point x="501.48499999999996" y="185.764"/>
      <point x="535.934" y="197.137" type="curve"/>
      <point x="532.0519999999999" y="224.425" type="line"/>
      <point x="498.2109999999999" y="214.245"/>
      <point x="461.08599999999996" y="206.317"/>
      <point x="412.31399999999996" y="206.317" type="curve" smooth="yes"/>
      <point x="336.18100000000004" y="206.317"/>
      <point x="283.84" y="247.252"/>
      <point x="283.84" y="305.33000000000004" type="curve" smooth="yes"/>
      <point x="283.84" y="412.98900000000003"/>
      <point x="354.214" y="490.417"/>
      <point x="455.335" y="490.417" type="curve" smooth="yes"/>
      <point x="494.785" y="490.417"/>
      <point x="529.961" y="485.11499999999995"/>
      <point x="567.438" y="474.065" type="curve"/>
      <point x="576.458" y="503.28900000000004" type="line"/>
      <point x="539.03" y="514.6450000000001"/>
      <point x="499.8059999999999" y="520.433"/>
      <point x="457.50600000000003" y="520.433" type="curve" smooth="yes"/>
      <point x="336.36499999999995" y="520.433"/>
      <point x="251.58799999999997" y="436.87399999999997"/>
      <point x="251.58799999999997" y="305.6960000000001" type="curve" smooth="yes"/>
      <point x="251.58799999999997" y="225.119"/>
      <point x="310.753" y="176.652"/>
    </contour>
    <contour>
      <point x="387.98299999999995" y="16.214000000000002" type="curve" smooth="yes"/>
      <point x="222.15699999999998" y="16.214000000000002"/>
      <point x="98.93899999999998" y="100.108"/>
      <point x="98.93899999999998" y="287.42199999999997" type="curve" smooth="yes"/>
      <point x="98.93899999999998" y="520.4599999999999"/>
      <point x="219.42" y="683.831"/>
      <point x="445.103" y="683.831" type="curve" smooth="yes"/>
      <point x="612.169" y="683.831"/>
      <point x="737.7650000000001" y="599.8109999999999"/>
      <point x="737.7650000000001" y="411.249" type="curve" smooth="yes"/>
      <point x="737.7650000000001" y="177.46300000000005"/>
      <point x="614.4140000000001" y="16.214000000000002"/>
    </contour>
  </outline>
</glyph>
<glyph name="ordfeminine" format="2">
  <advance width="438.592"/>
  <unicode hex="00AA"/>
  <outline>
    <contour>
      <point x="51.201" y="274.838" type="line"/>
      <point x="373.67999999999995" y="274.838" type="line"/>
      <point x="378.084" y="301.499" type="line"/>
      <point x="55.605000000000004" y="301.499" type="line"/>
    </contour>
    <component base="a.superior" xOffset="14.916"/>
  </outline>
</glyph>
<glyph name="logicalnot" format="2">
  <advance width="476.46"/>
  <unicode hex="00AC"/>
  <outline>
    <contour>
      <point x="72.39800000000001" y="375.708" type="line"/>
      <point x="401.92" y="375.708" type="line"/>
      <point x="370.808" y="175.479" type="line"/>
      <point x="403.724" y="175.479" type="line"/>
      <point x="440.383" y="409.05300000000005" type="line"/>
      <point x="77.945" y="409.05300000000005" type="line"/>
    </contour>
  </outline>
</glyph>
<glyph name="registered" format="2">
  <advance width="763.8399999999999"/>
  <unicode hex="00AE"/>
  <outline>
    <contour>
      <point x="395.80899999999997" y="210.74800000000002" type="curve" smooth="yes"/>
      <point x="619.565" y="210.74800000000002"/>
      <point x="749.555" y="379.475"/>
      <point x="749.555" y="626.0669999999999" type="curve" smooth="yes"/>
      <point x="749.555" y="797.3319999999999"/>
      <point x="648.695" y="891.6980000000001"/>
      <point x="454.504" y="891.6980000000001" type="curve" smooth="yes"/>
      <point x="230.74799999999996" y="891.6980000000001"/>
      <point x="101.88400000000001" y="722.4710000000001"/>
      <point x="101.88400000000001" y="476.379" type="curve" smooth="yes"/>
      <point x="101.88400000000001" y="305.23999999999995"/>
      <point x="201.49200000000002" y="210.74800000000002"/>
    </contour>
    <contour>
      <point x="396.92499999999995" y="234.561" type="curve" smooth="yes"/>
      <point x="217.199" y="234.561"/>
      <point x="127.44900000000001" y="321.06"/>
      <point x="127.44900000000001" y="476.87" type="curve" smooth="yes"/>
      <point x="127.44900000000001" y="708.5770000000001"/>
      <point x="245.505" y="867.5110000000001"/>
      <point x="453.514" y="867.5110000000001" type="curve" smooth="yes"/>
      <point x="633.2400000000001" y="867.5110000000001"/>
      <point x="723.9899999999999" y="781.386"/>
      <point x="723.9899999999999" y="625.076" type="curve" smooth="yes"/>
      <point x="723.9899999999999" y="393.369"/>
      <point x="604.8079999999999" y="234.561"/>
    </contour>
    <contour>
      <point x="275.91599999999994" y="399.26300000000003" type="line"/>
      <point x="303.88199999999995" y="399.26300000000003" type="line"/>
      <point x="325.698" y="532.6679999999999" type="line"/>
      <point x="362.70199999999994" y="531.3480000000001"/>
      <point x="389.35200000000003" y="529.9019999999999"/>
      <point x="440.042" y="530.875" type="curve"/>
      <point x="457.32500000000005" y="535.034" type="line"/>
      <point x="537.7869999999999" y="541.697"/>
      <point x="571.405" y="573.188"/>
      <point x="571.405" y="636.68" type="curve" smooth="yes"/>
      <point x="571.405" y="695.4050000000001"/>
      <point x="530.153" y="715.246"/>
      <point x="435.323" y="715.246" type="curve" smooth="yes"/>
      <point x="395.916" y="715.246"/>
      <point x="369.02799999999996" y="714.7189999999999"/>
      <point x="325.48299999999995" y="711.093" type="curve"/>
    </contour>
    <contour>
      <point x="420.146" y="555.053" type="curve" smooth="yes"/>
      <point x="389.73299999999995" y="555.053"/>
      <point x="365.20799999999997" y="556.026"/>
      <point x="329.751" y="556.9" type="curve"/>
      <point x="349.61699999999996" y="685.5959999999999" type="line"/>
      <point x="386.37899999999996" y="688.8169999999999"/>
      <point x="396.19500000000005" y="689.3169999999999"/>
      <point x="433.143" y="689.3169999999999" type="curve" smooth="yes"/>
      <point x="511.41399999999993" y="689.3169999999999"/>
      <point x="542.5609999999999" y="675.654"/>
      <point x="542.5609999999999" y="633.11" type="curve" smooth="yes"/>
      <point x="542.5609999999999" y="576.7560000000001"/>
      <point x="513.703" y="555.053"/>
    </contour>
    <contour>
      <point x="573.322" y="397.43" type="curve" smooth="yes"/>
      <point x="574.9569999999999" y="397.43"/>
      <point x="578.3889999999999" y="397.48400000000004"/>
      <point x="581.177" y="398.06500000000005" type="curve"/>
      <point x="584.7339999999999" y="425.663" type="line"/>
      <point x="582.982" y="425.21700000000004"/>
      <point x="580.982" y="425.21700000000004"/>
      <point x="579.8290000000001" y="425.21700000000004" type="curve" smooth="yes"/>
      <point x="549.3989999999999" y="425.21700000000004"/>
      <point x="501.80300000000005" y="469.171"/>
      <point x="462.69300000000004" y="543.443" type="curve"/>
      <point x="429.823" y="537.852" type="line"/>
      <point x="477.19499999999994" y="445.89000000000004"/>
      <point x="531.614" y="397.43"/>
    </contour>
  </outline>
</glyph>
<glyph name="degree" format="2">
  <advance width="250.24499999999998"/>
  <unicode hex="00B0"/>
  <outline>
    <contour>
      <point x="161.79" y="502.774" type="curve" smooth="yes"/>
      <point x="223.374" y="502.774"/>
      <point x="274.628" y="559.8070000000001"/>
      <point x="274.628" y="635.431" type="curve" smooth="yes"/>
      <point x="274.628" y="685.994"/>
      <point x="245.43" y="726.254"/>
      <point x="195.512" y="726.254" type="curve" smooth="yes"/>
      <point x="134.109" y="726.254"/>
      <point x="82.77300000000001" y="665.334"/>
      <point x="82.77300000000001" y="590.984" type="curve" smooth="yes"/>
      <point x="82.77300000000001" y="541.559"/>
      <point x="111.70700000000001" y="502.774"/>
    </contour>
    <contour>
      <point x="166.23" y="534.456" type="curve" smooth="yes"/>
      <point x="132.85099999999997" y="534.456"/>
      <point x="112.921" y="561.1440000000001"/>
      <point x="112.921" y="596.526" type="curve" smooth="yes"/>
      <point x="112.921" y="651.1449999999999"/>
      <point x="148.57100000000003" y="694.464"/>
      <point x="191.144" y="694.464" type="curve" smooth="yes"/>
      <point x="226.398" y="694.464"/>
      <point x="245.054" y="666.656"/>
      <point x="245.054" y="630.6010000000001" type="curve" smooth="yes"/>
      <point x="245.054" y="577.71"/>
      <point x="208.67699999999996" y="534.456"/>
    </contour>
  </outline>
</glyph>
<glyph name="plusminus" format="2">
  <advance width="477.13199999999995"/>
  <unicode hex="00B1"/>
  <outline>
    <contour>
      <point x="388.171" y="67.277" type="line"/>
      <point x="393.718" y="101.16499999999999" type="line"/>
      <point x="228.72299999999998" y="101.16499999999999" type="line"/>
      <point x="259.538" y="298.06399999999996" type="line"/>
      <point x="424.26" y="298.06399999999996" type="line"/>
      <point x="429.80699999999996" y="331.95200000000006" type="line"/>
      <point x="265.085" y="331.95200000000006" type="line"/>
      <point x="296.75300000000004" y="525.12" type="line"/>
      <point x="261.785" y="525.12" type="line"/>
      <point x="230.26399999999998" y="331.95200000000006" type="line"/>
      <point x="65.18499999999999" y="331.95200000000006" type="line"/>
      <point x="59.638" y="298.06399999999996" type="line"/>
      <point x="224.57" y="298.06399999999996" type="line"/>
      <point x="193.629" y="101.16499999999999" type="line"/>
      <point x="29.096" y="101.16499999999999" type="line"/>
      <point x="23.549" y="67.277" type="line"/>
    </contour>
  </outline>
</glyph>
<glyph name="uni00B2" format="2">
  <advance width="481.98499999999996"/>
  <unicode hex="00B2"/>
  <outline>
    <contour>
      <point x="79.61999999999999" y="369.08099999999996" type="line"/>
      <point x="432.162" y="369.08099999999996" type="line"/>
      <point x="434.336" y="393.546" type="line"/>
      <point x="136.602" y="393.546" type="line"/>
      <point x="279.90099999999995" y="488.754"/>
      <point x="413.09200000000004" y="562.2420000000001"/>
      <point x="413.09200000000004" y="677.939" type="curve" smooth="yes"/>
      <point x="413.09200000000004" y="739.581"/>
      <point x="369.448" y="771.216"/>
      <point x="296.52599999999995" y="771.216" type="curve" smooth="yes"/>
      <point x="247.95999999999998" y="771.216"/>
      <point x="191.92299999999997" y="755.793"/>
      <point x="150.78" y="734.244" type="curve"/>
      <point x="159.422" y="710.5319999999999" type="line"/>
      <point x="199.237" y="732.406"/>
      <point x="246.33699999999996" y="745.181"/>
      <point x="289.73" y="745.181" type="curve" smooth="yes"/>
      <point x="348.25100000000003" y="745.181"/>
      <point x="380.698" y="719.067"/>
      <point x="380.698" y="671.1410000000001" type="curve" smooth="yes"/>
      <point x="380.225" y="574.745"/>
      <point x="259.982" y="500.72499999999997"/>
      <point x="80.817" y="389.48900000000003" type="curve"/>
    </contour>
  </outline>
</glyph>
<glyph name="uni00B3" format="2">
  <advance width="449.21500000000003"/>
  <unicode hex="00B3"/>
  <outline>
    <contour>
      <point x="42.815" y="409.78999999999996" type="line"/>
      <point x="90.99" y="377.78000000000003"/>
      <point x="151.97499999999997" y="363.91"/>
      <point x="230.25499999999997" y="363.91" type="curve" smooth="yes"/>
      <point x="364.35499999999996" y="363.91"/>
      <point x="437.6099999999999" y="407.51499999999993"/>
      <point x="437.6099999999999" y="488.67" type="curve" smooth="yes"/>
      <point x="437.6099999999999" y="535.9999999999999"/>
      <point x="405.01" y="570.325"/>
      <point x="351.54499999999996" y="579.73" type="curve"/>
      <point x="402.0" y="593.8650000000001"/>
      <point x="437.68" y="625.8199999999999"/>
      <point x="437.68" y="673.6800000000001" type="curve" smooth="yes"/>
      <point x="437.68" y="732.77"/>
      <point x="381.385" y="771.2699999999999"/>
      <point x="278.73999999999995" y="771.2699999999999" type="curve" smooth="yes"/>
      <point x="231.90499999999997" y="771.2699999999999"/>
      <point x="172.93000000000004" y="762.865"/>
      <point x="124.51" y="747.865" type="curve"/>
      <point x="130.42" y="724.765" type="line"/>
      <point x="177.01000000000002" y="738.405"/>
      <point x="232.41499999999996" y="746.135"/>
      <point x="273.90999999999997" y="746.135" type="curve" smooth="yes"/>
      <point x="357.11999999999995" y="746.135"/>
      <point x="407.0449999999999" y="718.295"/>
      <point x="407.0449999999999" y="669.44" type="curve" smooth="yes"/>
      <point x="407.0449999999999" y="617.45"/>
      <point x="350.19499999999994" y="589.065"/>
      <point x="286.475" y="589.065" type="curve" smooth="yes"/>
      <point x="176.45" y="589.065" type="line"/>
      <point x="173.10000000000002" y="566.5" type="line"/>
      <point x="277.36" y="566.5" type="line" smooth="yes"/>
      <point x="363.44499999999994" y="566.5"/>
      <point x="407.38" y="540.9849999999999"/>
      <point x="407.38" y="485.75999999999993" type="curve" smooth="yes"/>
      <point x="407.38" y="421.94000000000005"/>
      <point x="345.21999999999997" y="388.46"/>
      <point x="228.43999999999997" y="388.46" type="curve" smooth="yes"/>
      <point x="154.73999999999995" y="388.46"/>
      <point x="102.11" y="402.51"/>
      <point x="57.51" y="431.665" type="curve"/>
    </contour>
  </outline>
</glyph>
<glyph name="uni00B5" format="2">
  <advance width="649.529"/>
  <unicode hex="00B5"/>
  <outline>
    <contour>
      <point x="20.869" y="-210.0" type="line"/>
      <point x="60.035" y="-210.0" type="line"/>
      <point x="102.74499999999999" y="63.108" type="line"/>
      <point x="116.68799999999999" y="17.09"/>
      <point x="157.33" y="-10.0"/>
      <point x="225.20799999999997" y="-10.0" type="curve" smooth="yes"/>
      <point x="316.576" y="-10.0"/>
      <point x="388.43" y="17.695999999999998"/>
      <point x="478.72999999999996" y="67.355" type="curve"/>
      <point x="481.42099999999994" y="12.545"/>
      <point x="506.789" y="-10.0"/>
      <point x="549.487" y="-10.0" type="curve" smooth="yes"/>
      <point x="561.0509999999999" y="-10.0"/>
      <point x="583.3489999999999" y="-5.719"/>
      <point x="598.864" y="2.7359999999999998" type="curve"/>
      <point x="596.0559999999999" y="30.950000000000003" type="line"/>
      <point x="582.962" y="26.121000000000002"/>
      <point x="568.3709999999999" y="23.391"/>
      <point x="561.7579999999999" y="23.391" type="curve" smooth="yes"/>
      <point x="532.092" y="23.391"/>
      <point x="516.9119999999999" y="38.737"/>
      <point x="516.9119999999999" y="80.054" type="curve" smooth="yes"/>
      <point x="516.9119999999999" y="92.362"/>
      <point x="518.458" y="117.925"/>
      <point x="584.6959999999999" y="531.8" type="curve"/>
      <point x="544.521" y="531.8" type="line"/>
      <point x="478.365" y="96.97200000000001" type="line"/>
      <point x="389.56899999999996" y="50.217"/>
      <point x="319.642" y="23.682"/>
      <point x="233.234" y="23.682" type="curve" smooth="yes"/>
      <point x="154.037" y="23.682"/>
      <point x="115.387" y="61.754999999999995"/>
      <point x="115.441" y="122.74999999999999" type="curve" smooth="yes"/>
      <point x="116.062" y="141.478"/>
      <point x="123.842" y="203.564"/>
      <point x="175.93800000000002" y="531.8" type="curve"/>
      <point x="136.37300000000002" y="531.8" type="line"/>
    </contour>
  </outline>
</glyph>
<glyph name="paragraph" format="2">
  <advance width="625.767"/>
  <unicode hex="00B6"/>
  <outline>
    <contour>
      <point x="416.028" y="-210.0" type="line"/>
      <point x="448.797" y="-210.0" type="line"/>
      <point x="598.941" y="740.0" type="line"/>
      <point x="566.172" y="740.0" type="line"/>
    </contour>
    <contour>
      <point x="258.05499999999995" y="214.59300000000002" type="line"/>
      <point x="170.183" y="225.334"/>
      <point x="108.823" y="291.561"/>
      <point x="108.823" y="391.881" type="curve" smooth="yes"/>
      <point x="108.823" y="565.393"/>
      <point x="207.473" y="704.639"/>
      <point x="402.769" y="708.242" type="curve"/>
      <point x="258.16299999999995" y="-210.0" type="line"/>
      <point x="290.932" y="-210.0" type="line"/>
      <point x="441.07599999999996" y="740.0" type="line"/>
      <point x="418.55600000000004" y="740.0" type="line" smooth="yes"/>
      <point x="197.42999999999998" y="740.0"/>
      <point x="73.358" y="597.707"/>
      <point x="73.358" y="388.059" type="curve" smooth="yes"/>
      <point x="73.358" y="273.076"/>
      <point x="143.28799999999998" y="197.923"/>
      <point x="249.77" y="185.571" type="curve"/>
    </contour>
  </outline>
</glyph>
<glyph name="periodcentered" format="2">
  <advance width="191.0"/>
  <unicode hex="00B7"/>
  <outline>
    <contour>
      <point x="70.826" y="283.252" type="curve" smooth="yes"/>
      <point x="69.57999999999998" y="268.4320000000001"/>
      <point x="75.722" y="264.06"/>
      <point x="92.51399999999998" y="264.06" type="curve" smooth="yes"/>
      <point x="116.058" y="264.06"/>
      <point x="122.008" y="270.19"/>
      <point x="124.402" y="296.688" type="curve" smooth="yes"/>
      <point x="125.64800000000001" y="311.352"/>
      <point x="119.66199999999999" y="315.96999999999997"/>
      <point x="102.96" y="315.96999999999997" type="curve" smooth="yes"/>
      <point x="79.686" y="315.96999999999997"/>
      <point x="73.22" y="309.47999999999996"/>
    </contour>
  </outline>
</glyph>
<glyph name="uni00B9" format="2">
  <advance width="421.166"/>
  <unicode hex="00B9"/>
  <outline>
    <contour>
      <point x="43.143" y="370.0" type="line"/>
      <point x="417.574" y="370.0" type="line"/>
      <point x="421.113" y="394.535" type="line"/>
      <point x="265.971" y="394.535" type="line"/>
      <point x="326.37499999999994" y="768.2940000000001" type="line"/>
      <point x="308.191" y="768.2940000000001" type="line"/>
      <point x="87.36300000000001" y="667.8019999999999" type="line"/>
      <point x="92.20700000000001" y="642.826" type="line"/>
      <point x="289.76199999999994" y="731.074" type="line"/>
      <point x="234.292" y="394.535" type="line"/>
      <point x="46.263999999999996" y="394.535" type="line"/>
    </contour>
  </outline>
</glyph>
<glyph name="ordmasculine" format="2">
  <advance width="408.994"/>
  <unicode hex="00BA"/>
  <outline>
    <contour>
      <point x="43.955999999999996" y="274.838" type="line"/>
      <point x="359.157" y="274.838" type="line"/>
      <point x="363.28799999999995" y="301.499" type="line"/>
      <point x="48.087" y="301.499" type="line"/>
    </contour>
    <component base="o.superior" xOffset="10.730000000000002"/>
  </outline>
</glyph>
<glyph name="AE" format="2">
  <advance width="1117.2839999999999"/>
  <unicode hex="00C6"/>
  <anchor x="519.9908559999999" y="0.0" name="bottom"/>
  <anchor x="628.944" y="700.0" name="top"/>
  <outline>
    <contour>
      <point x="477.0559999999999" y="0.0" type="line"/>
      <point x="1029.782" y="0.0" type="line"/>
      <point x="1035.5720000000001" y="36.099999999999994" type="line"/>
      <point x="522.456" y="36.099999999999994" type="line"/>
      <point x="569.7579999999999" y="335.7920000000001" type="line"/>
      <point x="1020.066" y="335.7920000000001" type="line"/>
      <point x="1025.856" y="371.53200000000004" type="line"/>
      <point x="575.458" y="371.53200000000004" type="line"/>
      <point x="621.8100000000001" y="663.9" type="line"/>
      <point x="1113.344" y="663.9" type="line"/>
      <point x="1119.47" y="700.0" type="line"/>
      <point x="565.202" y="700.0" type="line"/>
      <point x="-38.712" y="0.0" type="line"/>
      <point x="9.852" y="0.0" type="line"/>
      <point x="291.37399999999997" y="323.822" type="line"/>
      <point x="528.078" y="323.822" type="line"/>
    </contour>
    <contour>
      <point x="317.782" y="357.222" type="line"/>
      <point x="582.044" y="665.8620000000001" type="line"/>
      <point x="533.328" y="357.222" type="line"/>
    </contour>
  </outline>
</glyph>
<glyph name="multiply" format="2">
  <advance width="463.812"/>
  <unicode hex="00D7"/>
  <outline>
    <contour>
      <point x="55.883" y="78.98" type="line"/>
      <point x="231.6" y="264.7079999999999" type="line"/>
      <point x="345.36899999999997" y="81.97400000000002" type="line"/>
      <point x="370.849" y="106.489" type="line"/>
      <point x="256.975" y="290.666" type="line"/>
      <point x="435.646" y="479.544" type="line"/>
      <point x="415.001" y="504.00299999999993" type="line"/>
      <point x="237.86899999999997" y="317.78299999999996" type="line"/>
      <point x="120.6" y="504.543" type="line"/>
      <point x="95.25500000000001" y="480.613" type="line"/>
      <point x="212.338" y="291.936" type="line"/>
      <point x="35.193000000000005" y="103.124" type="line"/>
    </contour>
  </outline>
</glyph>
<glyph name="Oslash" format="2">
  <advance width="886.09"/>
  <unicode hex="00D8"/>
  <anchor x="493.46" y="700.0" name="top"/>
  <outline>
    <contour>
      <point x="912.6299999999999" y="710.0" type="line"/>
      <point x="864.55" y="710.0" type="line"/>
      <point x="743.1999999999999" y="608.9" type="line"/>
      <point x="742.7" y="608.8100000000001" type="line"/>
      <point x="147.2" y="115.82" type="line"/>
      <point x="146.60999999999999" y="115.73" type="line"/>
      <point x="-2.2799999999999994" y="-9.1" type="line"/>
      <point x="45.39" y="-9.1" type="line"/>
      <point x="167.66" y="92.51000000000002" type="line"/>
      <point x="168.16" y="92.60000000000001" type="line"/>
      <point x="766.6399999999999" y="588.03" type="line"/>
      <point x="767.23" y="588.12" type="line"/>
    </contour>
    <contour>
      <point x="429.2" y="-9.82" type="curve" smooth="yes"/>
      <point x="685.81" y="-9.82"/>
      <point x="836.44" y="149.04000000000002"/>
      <point x="836.44" y="411.97999999999996" type="curve" smooth="yes"/>
      <point x="836.44" y="605.79"/>
      <point x="718.8999999999999" y="709.9100000000001"/>
      <point x="480.73999999999995" y="709.9100000000001" type="curve" smooth="yes"/>
      <point x="224.13" y="709.9100000000001"/>
      <point x="73.49999999999999" y="551.14"/>
      <point x="73.49999999999999" y="288.02" type="curve" smooth="yes"/>
      <point x="73.49999999999999" y="94.21000000000001"/>
      <point x="191.04" y="-9.82"/>
    </contour>
    <contour>
      <point x="430.31999999999994" y="24.07" type="curve" smooth="yes"/>
      <point x="219.73999999999998" y="24.07"/>
      <point x="114.46" y="116.31000000000002"/>
      <point x="114.46" y="289.53000000000003" type="curve" smooth="yes"/>
      <point x="114.46" y="531.54"/>
      <point x="249.08" y="676.0199999999999"/>
      <point x="479.97999999999996" y="676.0199999999999" type="curve" smooth="yes"/>
      <point x="690.2900000000001" y="676.0199999999999"/>
      <point x="795.4799999999999" y="583.78"/>
      <point x="795.4799999999999" y="410.56000000000006" type="curve" smooth="yes"/>
      <point x="795.4799999999999" y="170.35000000000002"/>
      <point x="661.04" y="24.07"/>
    </contour>
  </outline>
</glyph>
<glyph name="Thorn" format="2">
  <advance width="763.4850000000001"/>
  <unicode hex="00DE"/>
  <outline>
    <contour>
      <point x="60.775" y="0.0" type="line"/>
      <point x="101.33" y="0.0" type="line"/>
      <point x="128.15999999999997" y="167.26" type="line"/>
      <point x="226.23" y="164.17000000000002"/>
      <point x="284.17499999999995" y="163.625"/>
      <point x="376.73499999999996" y="163.625" type="curve" smooth="yes"/>
      <point x="620.79" y="163.625"/>
      <point x="735.505" y="245.02000000000004"/>
      <point x="735.505" y="435.40500000000003" type="curve" smooth="yes"/>
      <point x="735.505" y="560.14"/>
      <point x="646.3249999999999" y="622.7149999999999"/>
      <point x="424.47999999999996" y="622.7149999999999" type="curve" smooth="yes"/>
      <point x="382.46000000000004" y="622.7149999999999"/>
      <point x="325.71500000000003" y="621.26"/>
      <point x="198.05" y="615.3" type="curve"/>
      <point x="211.825" y="700.0" type="line"/>
      <point x="171.26999999999998" y="700.0" type="line"/>
    </contour>
    <contour>
      <point x="374.24499999999995" y="197.32999999999998" type="curve" smooth="yes"/>
      <point x="278.08" y="197.32999999999998"/>
      <point x="226.67999999999998" y="198.285"/>
      <point x="133.76999999999998" y="202.23999999999998" type="curve"/>
      <point x="193.39499999999998" y="580.685" type="line"/>
      <point x="323.905" y="586.915"/>
      <point x="373.855" y="588.3249999999999"/>
      <point x="420.89500000000004" y="588.3249999999999" type="curve" smooth="yes"/>
      <point x="620.3650000000001" y="588.3249999999999"/>
      <point x="694.23" y="538.76"/>
      <point x="694.23" y="429.825" type="curve" smooth="yes"/>
      <point x="694.23" y="267.69"/>
      <point x="598.58" y="197.32999999999998"/>
    </contour>
  </outline>
</glyph>
<glyph name="germandbls" format="2">
  <advance width="706.1400000000001"/>
  <unicode hex="00DF"/>
  <outline>
    <contour>
      <point x="70.88" y="-57.36000000000001" type="line" smooth="yes"/>
      <point x="57.690000000000005" y="-138.85999999999999"/>
      <point x="32.589999999999996" y="-187.39"/>
      <point x="-24.170000000000016" y="-187.39" type="curve" smooth="yes"/>
      <point x="-38.72" y="-187.39"/>
      <point x="-57.180000000000014" y="-185.39000000000001"/>
      <point x="-79.09999999999998" y="-176.93" type="curve"/>
      <point x="-87.28999999999999" y="-207.74" type="line"/>
      <point x="-67.63" y="-217.04999999999998"/>
      <point x="-35.05" y="-220.0"/>
      <point x="-17.680000000000014" y="-220.0" type="curve" smooth="yes"/>
      <point x="55.769999999999996" y="-220.0"/>
      <point x="92.96000000000001" y="-164.16"/>
      <point x="108.59" y="-64.61" type="curve" smooth="yes"/>
      <point x="198.64999999999998" y="501.39000000000004" type="line" smooth="yes"/>
      <point x="223.29999999999998" y="652.24"/>
      <point x="290.48999999999995" y="718.69"/>
      <point x="442.17999999999995" y="718.69" type="curve" smooth="yes"/>
      <point x="544.1799999999998" y="718.69"/>
      <point x="595.6499999999997" y="689.44"/>
      <point x="595.6499999999997" y="634.7600000000001" type="curve" smooth="yes"/>
      <point x="595.6499999999997" y="584.9499999999999"/>
      <point x="562.0699999999999" y="557.0200000000001"/>
      <point x="451.91" y="530.28" type="curve" smooth="yes"/>
      <point x="328.2" y="500.27000000000004"/>
      <point x="279.03" y="462.83000000000004"/>
      <point x="279.03" y="385.95" type="curve" smooth="yes"/>
      <point x="279.03" y="312.88000000000005"/>
      <point x="331.6599999999999" y="279.94000000000005"/>
      <point x="477.4799999999999" y="248.79000000000002" type="curve" smooth="yes"/>
      <point x="596.89" y="222.23"/>
      <point x="641.5400000000001" y="195.98000000000002"/>
      <point x="641.5400000000001" y="137.51999999999998" type="curve" smooth="yes"/>
      <point x="641.5400000000001" y="65.60000000000001"/>
      <point x="559.39" y="22.319999999999997"/>
      <point x="427.28999999999996" y="22.319999999999997" type="curve" smooth="yes"/>
      <point x="360.73999999999995" y="22.319999999999997"/>
      <point x="273.78999999999996" y="38.96"/>
      <point x="209.00999999999996" y="63.23999999999999" type="curve"/>
      <point x="196.76999999999998" y="31.370000000000005" type="line"/>
      <point x="264.12999999999994" y="5.819999999999999"/>
      <point x="352.64000000000004" y="-10.5"/>
      <point x="422.99" y="-10.5" type="curve" smooth="yes"/>
      <point x="587.2199999999998" y="-10.5"/>
      <point x="679.4899999999999" y="43.18"/>
      <point x="679.4899999999999" y="142.64" type="curve" smooth="yes"/>
      <point x="679.4899999999999" y="211.17000000000002"/>
      <point x="627.1799999999998" y="250.33"/>
      <point x="490.95" y="280.29999999999995" type="curve" smooth="yes"/>
      <point x="357.59" y="309.03999999999996"/>
      <point x="315.76" y="333.15999999999997"/>
      <point x="315.76" y="390.66" type="curve" smooth="yes"/>
      <point x="315.76" y="448.07"/>
      <point x="356.53999999999996" y="474.91999999999996"/>
      <point x="469.9799999999999" y="503.34000000000003" type="curve" smooth="yes"/>
      <point x="594.4799999999998" y="535.13"/>
      <point x="631.75" y="570.24"/>
      <point x="631.75" y="639.12" type="curve" smooth="yes"/>
      <point x="631.75" y="711.2100000000002"/>
      <point x="568.4699999999998" y="750.0"/>
      <point x="439.53000000000003" y="750.0" type="curve" smooth="yes"/>
      <point x="270.48" y="750.0"/>
      <point x="190.03" y="677.59"/>
      <point x="161.62" y="509.91" type="curve" smooth="yes"/>
      <point x="158.20999999999998" y="485.26000000000005" type="line"/>
      <point x="38.67" y="476.54" type="line"/>
      <point x="33.51" y="451.67" type="line"/>
      <point x="151.14000000000001" y="451.67" type="line"/>
    </contour>
  </outline>
</glyph>
<glyph name="ae" format="2">
  <advance width="1063.69"/>
  <unicode hex="00E6"/>
  <anchor x="490.13999999999993" y="0.0" name="bottom"/>
  <anchor x="561.76" y="531.8" name="top"/>
  <outline>
    <contour>
      <point x="248.17" y="-10.0" type="curve" smooth="yes"/>
      <point x="330.6499999999999" y="-10.0"/>
      <point x="413.53999999999996" y="21.330000000000002"/>
      <point x="467.80999999999995" y="57.14999999999999" type="curve"/>
      <point x="458.0799999999999" y="-2.32" type="line"/>
      <point x="494.75999999999993" y="-2.32" type="line"/>
      <point x="516.2799999999999" y="133.81" type="line"/>
      <point x="536.66" y="41.03"/>
      <point x="611.6299999999999" y="-9.91"/>
      <point x="735.95" y="-9.91" type="curve" smooth="yes"/>
      <point x="816.7799999999999" y="-9.91"/>
      <point x="917.8599999999999" y="9.69"/>
      <point x="988.55" y="38.47" type="curve"/>
      <point x="980.8799999999999" y="69.50999999999999" type="line"/>
      <point x="903.9599999999999" y="40.41"/>
      <point x="811.19" y="22.72"/>
      <point x="739.25" y="22.72" type="curve" smooth="yes"/>
      <point x="607.71" y="22.72"/>
      <point x="532.03" y="87.88000000000001"/>
      <point x="532.03" y="199.63" type="curve" smooth="yes"/>
      <point x="532.03" y="380.01"/>
      <point x="652.74" y="509.9799999999999"/>
      <point x="835.4499999999998" y="509.9799999999999" type="curve" smooth="yes"/>
      <point x="941.2099999999999" y="509.9799999999999"/>
      <point x="996.8899999999999" y="476.18"/>
      <point x="996.8899999999999" y="414.90999999999997" type="curve" smooth="yes"/>
      <point x="996.8899999999999" y="336.86"/>
      <point x="899.0599999999998" y="285.95"/>
      <point x="729.4200000000001" y="275.04" type="curve" smooth="yes"/>
      <point x="658.5600000000001" y="269.71999999999997"/>
      <point x="584.6899999999999" y="273.27"/>
      <point x="525.7" y="282.96000000000004" type="curve"/>
      <point x="523.3299999999999" y="253.79" type="line"/>
      <point x="581.6199999999999" y="243.65"/>
      <point x="660.15" y="239.82999999999998"/>
      <point x="733.02" y="245.33" type="curve" smooth="yes"/>
      <point x="929.2599999999999" y="257.33"/>
      <point x="1036.63" y="320.40000000000003"/>
      <point x="1036.63" y="419.79999999999995" type="curve" smooth="yes"/>
      <point x="1036.63" y="496.5"/>
      <point x="966.0" y="541.8"/>
      <point x="845.0500000000001" y="541.8" type="curve" smooth="yes"/>
      <point x="715.12" y="541.8"/>
      <point x="609.6599999999999" y="485.57"/>
      <point x="556.55" y="388.83" type="curve"/>
      <point x="579.53" y="534.8" type="line"/>
      <point x="542.8499999999999" y="534.8" type="line"/>
      <point x="536.5299999999999" y="496.34000000000003" type="line"/>
      <point x="489.73999999999995" y="525.75"/>
      <point x="429.26" y="541.8"/>
      <point x="369.71000000000004" y="541.8" type="curve" smooth="yes"/>
      <point x="188.23" y="541.8"/>
      <point x="41.339999999999996" y="411.42"/>
      <point x="41.339999999999996" y="190.57999999999998" type="curve" smooth="yes"/>
      <point x="41.339999999999996" y="61.72999999999999"/>
      <point x="117.84" y="-10.0"/>
    </contour>
    <contour>
      <point x="262.28999999999996" y="23.080000000000002" type="curve" smooth="yes"/>
      <point x="149.79999999999998" y="23.080000000000002"/>
      <point x="81.63000000000001" y="83.35"/>
      <point x="81.63000000000001" y="194.23000000000002" type="curve" smooth="yes"/>
      <point x="81.63000000000001" y="403.03000000000003"/>
      <point x="228.06999999999996" y="510.89"/>
      <point x="372.25" y="510.89" type="curve" smooth="yes"/>
      <point x="431.55999999999995" y="510.89"/>
      <point x="484.55999999999995" y="497.51"/>
      <point x="532.32" y="466.08" type="curve"/>
      <point x="473.0199999999999" y="90.44999999999999" type="line"/>
      <point x="413.94" y="50.419999999999995"/>
      <point x="332.7" y="23.080000000000002"/>
    </contour>
  </outline>
</glyph>
<glyph name="eth" format="2">
  <advance width="704.3100000000001"/>
  <unicode hex="00F0"/>
  <outline>
    <contour>
      <point x="636.15" y="414.52" type="curve"/>
      <point x="641.8100000000001" y="445.4" type="line"/>
      <point x="583.5799999999998" y="503.53"/>
      <point x="482.96" y="533.6"/>
      <point x="374.68" y="533.6" type="curve" smooth="yes"/>
      <point x="182.19" y="533.6"/>
      <point x="49.669999999999995" y="411.46999999999997"/>
      <point x="49.669999999999995" y="214.12" type="curve" smooth="yes"/>
      <point x="49.669999999999995" y="52.459999999999994"/>
      <point x="158.74" y="-9.82"/>
      <point x="309.72999999999996" y="-9.82" type="curve" smooth="yes"/>
      <point x="497.2" y="-9.82"/>
      <point x="618.4599999999999" y="90.05"/>
      <point x="654.5899999999999" y="307.07" type="curve" smooth="yes"/>
      <point x="662.8199999999998" y="352.49"/>
      <point x="665.82" y="388.90000000000003"/>
      <point x="665.82" y="424.86000000000007" type="curve" smooth="yes"/>
      <point x="665.82" y="613.01"/>
      <point x="529.9300000000001" y="714.86"/>
      <point x="302.26" y="714.86" type="curve" smooth="yes"/>
      <point x="239.12" y="714.86"/>
      <point x="191.67" y="707.7700000000001"/>
      <point x="133.61" y="697.04" type="curve"/>
      <point x="135.08" y="667.5600000000001" type="line"/>
      <point x="191.05999999999997" y="677.34"/>
      <point x="232.26" y="684.75"/>
      <point x="298.65000000000003" y="684.75" type="curve" smooth="yes"/>
      <point x="510.7499999999999" y="684.75"/>
      <point x="625.48" y="593.51"/>
      <point x="625.48" y="427.59" type="curve" smooth="yes"/>
      <point x="625.48" y="389.66999999999996"/>
      <point x="622.5699999999999" y="352.34999999999997"/>
      <point x="614.5699999999998" y="310.63" type="curve" smooth="yes"/>
      <point x="579.79" y="111.78"/>
      <point x="479.17999999999995" y="22.0"/>
      <point x="314.03" y="22.0" type="curve" smooth="yes"/>
      <point x="182.22" y="22.0"/>
      <point x="88.83" y="74.80000000000001"/>
      <point x="88.83" y="214.62" type="curve" smooth="yes"/>
      <point x="88.83" y="390.9"/>
      <point x="209.21999999999997" y="503.0"/>
      <point x="377.90999999999997" y="503.0" type="curve" smooth="yes"/>
      <point x="484.10999999999996" y="503.0"/>
      <point x="575.58" y="472.84000000000003"/>
    </contour>
    <contour>
      <point x="233.26000000000002" y="561.26" type="line"/>
      <point x="511.62000000000006" y="653.83" type="line"/>
      <point x="508.0399999999999" y="654.78" type="line"/>
      <point x="706.7099999999999" y="724.04" type="line"/>
      <point x="636.5099999999999" y="724.04" type="line"/>
      <point x="480.59" y="670.29" type="line"/>
      <point x="484.93999999999994" y="669.52" type="line"/>
      <point x="163.41999999999996" y="561.26" type="line"/>
    </contour>
  </outline>
</glyph>
<glyph name="divide" format="2">
  <advance width="477.01199999999994"/>
  <unicode hex="00F7"/>
  <outline>
    <contour>
      <point x="184.55599999999998" y="85.92599999999999" type="curve" smooth="yes"/>
      <point x="183.55599999999998" y="74.02199999999999"/>
      <point x="189.15800000000002" y="70.79599999999999"/>
      <point x="204.35399999999998" y="70.79599999999999" type="curve" smooth="yes"/>
      <point x="226.632" y="70.79599999999999"/>
      <point x="231.886" y="74.496"/>
      <point x="234.706" y="102.536" type="curve" smooth="yes"/>
      <point x="235.706" y="114.686"/>
      <point x="229.612" y="117.666"/>
      <point x="214.662" y="117.666" type="curve" smooth="yes"/>
      <point x="192.966" y="117.666"/>
      <point x="187.376" y="113.426"/>
    </contour>
    <contour>
      <point x="248.41" y="481.584" type="curve" smooth="yes"/>
      <point x="247.41" y="469.85999999999996"/>
      <point x="252.832" y="466.454"/>
      <point x="268.208" y="466.454" type="curve" smooth="yes"/>
      <point x="290.48600000000005" y="466.454"/>
      <point x="295.55999999999995" y="470.424"/>
      <point x="298.37999999999994" y="498.284" type="curve" smooth="yes"/>
      <point x="299.37999999999994" y="510.524"/>
      <point x="293.37600000000003" y="513.414"/>
      <point x="278.336" y="513.414" type="curve" smooth="yes"/>
      <point x="256.46" y="513.414"/>
      <point x="251.23" y="508.99399999999997"/>
    </contour>
    <contour>
      <point x="56.025999999999996" y="274.32000000000005" type="line"/>
      <point x="420.70200000000006" y="274.32000000000005" type="line"/>
      <point x="426.976" y="309.79999999999995" type="line"/>
      <point x="62.209999999999994" y="309.79999999999995" type="line"/>
    </contour>
  </outline>
</glyph>
<glyph name="oslash" format="2">
  <advance width="655.1800000000001"/>
  <unicode hex="00F8"/>
  <anchor x="357.7" y="531.8" name="top"/>
  <outline>
    <contour>
      <point x="604.18" y="542.07" type="line"/>
      <point x="529.8299999999999" y="472.82" type="line"/>
      <point x="529.15" y="473.0" type="line"/>
      <point x="111.24" y="79.86999999999999" type="line"/>
      <point x="110.46999999999998" y="80.14" type="line"/>
      <point x="15.089999999999998" y="-10.0" type="line"/>
      <point x="54.419999999999995" y="-10.0" type="line"/>
      <point x="129.76999999999998" y="60.60999999999999" type="line"/>
      <point x="130.54" y="60.42999999999999" type="line"/>
      <point x="548.4899999999999" y="453.24" type="line"/>
      <point x="549.17" y="452.97" type="line"/>
      <point x="643.5100000000001" y="542.07" type="line"/>
    </contour>
    <contour>
      <point x="306.36" y="-10.0" type="curve" smooth="yes"/>
      <point x="500.78" y="-10.0"/>
      <point x="605.9700000000001" y="127.08000000000001"/>
      <point x="605.7900000000001" y="328.15000000000003" type="curve" smooth="yes"/>
      <point x="605.6100000000001" y="468.54"/>
      <point x="515.5" y="542.07"/>
      <point x="350.04" y="542.07" type="curve" smooth="yes"/>
      <point x="156.31" y="542.07"/>
      <point x="50.07" y="401.27"/>
      <point x="50.25" y="202.92" type="curve" smooth="yes"/>
      <point x="50.43" y="61.88999999999999"/>
      <point x="138.95" y="-10.0"/>
    </contour>
    <contour>
      <point x="307.00000000000006" y="21.909999999999997" type="curve" smooth="yes"/>
      <point x="164.54" y="21.819999999999997"/>
      <point x="89.76999999999998" y="81.45"/>
      <point x="89.67999999999998" y="204.82999999999998" type="curve" smooth="yes"/>
      <point x="89.5" y="379.87"/>
      <point x="180.9" y="509.97999999999996"/>
      <point x="349.44999999999993" y="510.15999999999997" type="curve" smooth="yes"/>
      <point x="490.0899999999999" y="510.25"/>
      <point x="566.0899999999999" y="448.39"/>
      <point x="566.18" y="325.92" type="curve" smooth="yes"/>
      <point x="566.36" y="147.30000000000004"/>
      <point x="476.33" y="22.089999999999996"/>
    </contour>
  </outline>
</glyph>
<glyph name="thorn" format="2">
  <advance width="638.36"/>
  <unicode hex="00FE"/>
  <outline>
    <contour>
      <point x="19.959" y="-210.0" type="line"/>
      <point x="59.116" y="-210.0" type="line"/>
      <point x="94.117" y="9.373" type="line"/>
      <point x="134.58699999999996" y="-0.08600000000000185"/>
      <point x="185.55399999999997" y="-9.955"/>
      <point x="248.62299999999996" y="-9.955" type="curve" smooth="yes"/>
      <point x="456.035" y="-9.955"/>
      <point x="595.5169999999999" y="142.23499999999999"/>
      <point x="595.5169999999999" y="345.67100000000005" type="curve" smooth="yes"/>
      <point x="595.5169999999999" y="473.17199999999997"/>
      <point x="528.329" y="541.8"/>
      <point x="408.92600000000004" y="541.8" type="curve" smooth="yes"/>
      <point x="315.506" y="541.8"/>
      <point x="242.444" y="503.286"/>
      <point x="163.2" y="450.49999999999994" type="curve"/>
      <point x="209.29899999999998" y="740.0" type="line"/>
      <point x="170.004" y="740.0" type="line"/>
    </contour>
    <contour>
      <point x="248.48899999999998" y="22.541999999999998" type="curve" smooth="yes"/>
      <point x="185.99699999999999" y="22.541999999999998"/>
      <point x="136.2" y="34.277"/>
      <point x="99.322" y="43.507" type="curve"/>
      <point x="157.85299999999998" y="414.34499999999997" type="line"/>
      <point x="241.45499999999998" y="474.623"/>
      <point x="317.448" y="506.918"/>
      <point x="392.536" y="506.918" type="curve" smooth="yes"/>
      <point x="497.465" y="506.918"/>
      <point x="555.7719999999999" y="448.78499999999997"/>
      <point x="555.7719999999999" y="336.994" type="curve" smooth="yes"/>
      <point x="555.7719999999999" y="159.75"/>
      <point x="427.96" y="22.541999999999998"/>
    </contour>
  </outline>
</glyph>
<glyph name="Dcroat" format="2">
  <advance width="843.5479999999999"/>
  <unicode hex="0110"/>
  <outline>
    <contour>
      <point x="23.271999999999995" y="344.416" type="line"/>
      <point x="331.98" y="344.416" type="line"/>
      <point x="337.59000000000003" y="376.57000000000005" type="line"/>
      <point x="29.94" y="376.57000000000005" type="line"/>
    </contour>
    <component base="D" xOffset="2.892000000000001"/>
  </outline>
</glyph>
<glyph name="dcroat" format="2">
  <advance width="641.9780000000001"/>
  <unicode hex="0111"/>
  <outline>
    <contour>
      <point x="366.038" y="616.668" type="line"/>
      <point x="704.4600000000002" y="616.668" type="line"/>
      <point x="709.1700000000001" y="642.84" type="line"/>
      <point x="370.748" y="642.84" type="line"/>
    </contour>
    <component base="d"/>
  </outline>
</glyph>
<glyph name="Hbar" format="2">
  <advance width="867.2139999999999"/>
  <unicode hex="0126"/>
  <outline>
    <contour>
      <point x="63.419" y="499.781" type="line"/>
      <point x="875.7320000000001" y="499.781" type="line"/>
      <point x="880.5379999999999" y="531.3580000000001" type="line"/>
      <point x="68.225" y="531.3580000000001" type="line"/>
    </contour>
    <component base="H" xOffset="1.1079999999999999"/>
  </outline>
</glyph>
<glyph name="hbar" format="2">
  <advance width="663.86"/>
  <unicode hex="0127"/>
  <outline>
    <contour>
      <point x="51.036" y="616.668" type="line"/>
      <point x="394.31399999999996" y="616.668" type="line"/>
      <point x="398.934" y="642.84" type="line"/>
      <point x="55.656000000000006" y="642.84" type="line"/>
    </contour>
    <component base="h" xOffset="-0.18000000000000002"/>
  </outline>
</glyph>
<glyph name="Idotaccent" format="2">
  <advance width="249.911"/>
  <unicode hex="0130"/>
  <outline>
    <contour>
      <point x="219.863" y="869.02" type="curve" smooth="yes"/>
      <point x="197.59900000000002" y="869.02"/>
      <point x="189.671" y="863.92"/>
      <point x="188.215" y="833.525" type="curve" smooth="yes"/>
      <point x="187.94199999999998" y="821.797"/>
      <point x="196.666" y="818.253"/>
      <point x="209.55300000000003" y="818.253" type="curve" smooth="yes"/>
      <point x="233.26500000000001" y="818.253"/>
      <point x="240.319" y="822.525"/>
      <point x="242.41199999999998" y="854.475" type="curve" smooth="yes"/>
      <point x="242.685" y="865.5029999999999"/>
      <point x="235.845" y="869.02"/>
    </contour>
    <component base="I"/>
  </outline>
</glyph>
<glyph name="dotlessi" format="2">
  <advance width="231.681"/>
  <unicode hex="0131"/>
  <anchor x="71.426972" y="0.0" name="bottom"/>
  <anchor x="91.69500000000001" y="0.0" name="ogonek"/>
  <anchor x="156.341028" y="531.8" name="top"/>
  <outline>
    <contour>
      <point x="91.69500000000001" y="0.0" type="line"/>
      <point x="175.902" y="531.8" type="line"/>
      <point x="136.40900000000002" y="531.8" type="line"/>
      <point x="52.34899999999999" y="0.063" type="line"/>
    </contour>
  </outline>
</glyph>
<glyph name="kgreenlandic" format="2">
  <advance width="586.39"/>
  <unicode hex="0138"/>
  <anchor x="263.63" y="0.0" name="bottom"/>
  <anchor x="338.29" y="531.8" name="top"/>
  <outline>
    <contour>
      <point x="53.05" y="0.0" type="line"/>
      <point x="93.06999999999998" y="0.0" type="line"/>
      <point x="176.61" y="531.8" type="line"/>
      <point x="136.41" y="531.8" type="line"/>
    </contour>
    <contour>
      <point x="527.4000000000001" y="-10.0" type="curve" smooth="yes"/>
      <point x="536.5299999999999" y="-10.0"/>
      <point x="546.9799999999999" y="-7.59"/>
      <point x="554.2899999999998" y="-4.09" type="curve"/>
      <point x="552.7499999999999" y="29.489999999999995" type="line"/>
      <point x="546.48" y="27.169999999999995"/>
      <point x="538.89" y="26.349999999999994"/>
      <point x="533.03" y="26.349999999999994" type="curve" smooth="yes"/>
      <point x="498.31999999999994" y="26.349999999999998"/>
      <point x="454.46999999999997" y="61.370000000000005"/>
      <point x="335.62000000000006" y="185.10999999999999" type="curve" smooth="yes"/>
      <point x="142.53" y="382.69" type="line"/>
      <point x="133.38000000000002" y="341.44" type="line"/>
      <point x="324.96" y="141.92000000000002" type="line" smooth="yes"/>
      <point x="438.04999999999995" y="25.04"/>
      <point x="480.19999999999993" y="-10.0"/>
    </contour>
    <contour>
      <point x="250.33999999999997" y="258.59000000000003" type="line"/>
      <point x="401.50999999999993" y="326.03"/>
      <point x="523.3" y="425.33"/>
      <point x="587.78" y="530.8" type="curve"/>
      <point x="548.6200000000001" y="541.39" type="line"/>
      <point x="471.0799999999999" y="427.77"/>
      <point x="393.24" y="359.9"/>
      <point x="220.6" y="279.34" type="curve"/>
    </contour>
  </outline>
</glyph>
<glyph name="Ldot" format="2">
  <advance width="628.352"/>
  <unicode hex="013F"/>
  <outline>
    <contour>
      <point x="435.801946" y="365.79997399999996" type="curve" smooth="yes"/>
      <point x="434.618946" y="351.46615399999996"/>
      <point x="440.544874" y="347.35525299999995"/>
      <point x="456.841685" y="347.35525299999995" type="curve" smooth="yes"/>
      <point x="479.47639699999996" y="347.35525299999995"/>
      <point x="485.16531599999996" y="352.557893"/>
      <point x="487.622316" y="378.416668" type="curve" smooth="yes"/>
      <point x="488.805316" y="392.567497"/>
      <point x="483.15238800000003" y="396.951398"/>
      <point x="466.936559" y="396.951398" type="curve" smooth="yes"/>
      <point x="444.382856" y="396.951398"/>
      <point x="438.25894600000004" y="391.40674899999993"/>
    </contour>
    <component base="L"/>
  </outline>
</glyph>
<glyph name="ldot" format="2">
  <advance width="302.944"/>
  <unicode hex="0140"/>
  <outline>
    <contour>
      <point x="261.23693" y="355.97085500000003" type="curve" smooth="yes"/>
      <point x="260.05393" y="342.89144600000003"/>
      <point x="264.81261199999994" y="339.499096"/>
      <point x="278.63748300000003" y="339.499096" type="curve" smooth="yes"/>
      <point x="298.517169" y="339.499096"/>
      <point x="302.337625" y="343.844153"/>
      <point x="304.794625" y="367.855012" type="curve" smooth="yes"/>
      <point x="305.97762500000005" y="380.71128100000004"/>
      <point x="301.491943" y="384.376631"/>
      <point x="287.720775" y="384.376631" type="curve" smooth="yes"/>
      <point x="267.894702" y="384.376631"/>
      <point x="263.69392999999997" y="379.811173"/>
    </contour>
    <component base="l"/>
  </outline>
</glyph>
<glyph name="Lslash" format="2">
  <advance width="629.7470000000001"/>
  <unicode hex="0141"/>
  <outline>
    <contour>
      <point x="61.26" y="0.0" type="line"/>
      <point x="570.742" y="0.0" type="line"/>
      <point x="576.667" y="35.730999999999995" type="line"/>
      <point x="107.596" y="35.730999999999995" type="line"/>
      <point x="142.632" y="258.117" type="line"/>
      <point x="446.00399999999996" y="434.519" type="line"/>
      <point x="452.758" y="474.585" type="line"/>
      <point x="149.332" y="298.156" type="line"/>
      <point x="213.07600000000002" y="700.0" type="line"/>
      <point x="172.539" y="700.0" type="line"/>
      <point x="104.902" y="274.08099999999996" type="line"/>
      <point x="26.875999999999998" y="227.616" type="line"/>
      <point x="20.055999999999997" y="187.592" type="line"/>
      <point x="97.929" y="233.994" type="line"/>
    </contour>
  </outline>
</glyph>
<glyph name="lslash" format="2">
  <advance width="286.3299999999999"/>
  <unicode hex="0142"/>
  <outline>
    <contour>
      <point x="13.479" y="165.837" type="line"/>
      <point x="269.48499999999996" y="404.133" type="line"/>
      <point x="275.663" y="445.38100000000003" type="line"/>
      <point x="19.567" y="207.085" type="line"/>
    </contour>
    <component base="l" xOffset="0.5399999999999998"/>
  </outline>
</glyph>
<glyph name="Eng" format="2">
  <advance width="860.9399999999999"/>
  <unicode hex="014A"/>
  <outline>
    <contour>
      <point x="60.275" y="0.0" type="line"/>
      <point x="100.11999999999999" y="0.0" type="line"/>
      <point x="201.44500000000002" y="643.255" type="line"/>
      <point x="672.0799999999999" y="-2.825" type="line"/>
      <point x="642.37" y="-125.7"/>
      <point x="552.89" y="-160.18"/>
      <point x="456.695" y="-160.18" type="curve" smooth="yes"/>
      <point x="413.71999999999997" y="-160.36"/>
      <point x="369.15" y="-153.48999999999998"/>
      <point x="329.9149999999999" y="-144.81" type="curve"/>
      <point x="322.4" y="-179.97499999999997" type="line"/>
      <point x="363.84999999999997" y="-188.97"/>
      <point x="411.565" y="-195.02"/>
      <point x="455.455" y="-195.02" type="curve" smooth="yes"/>
      <point x="598.4449999999999" y="-195.02"/>
      <point x="691.54" y="-127.36"/>
      <point x="715.7199999999999" y="21.805" type="curve" smooth="yes"/>
      <point x="824.075" y="700.0" type="line"/>
      <point x="784.64" y="700.0" type="line"/>
      <point x="682.9549999999998" y="52.4" type="line"/>
      <point x="210.17500000000004" y="706.37" type="line"/>
      <point x="172.50000000000003" y="706.37" type="line"/>
    </contour>
  </outline>
</glyph>
<glyph name="eng" format="2">
  <advance width="660.746"/>
  <unicode hex="014B"/>
  <outline>
    <contour>
      <point x="509.541" y="-63.193999999999996" type="curve" smooth="yes"/>
      <point x="533.088" y="87.97000000000003"/>
      <point x="584.611" y="389.375"/>
      <point x="584.611" y="413.448" type="curve" smooth="yes"/>
      <point x="584.611" y="493.28000000000003"/>
      <point x="534.513" y="541.8"/>
      <point x="433.57800000000003" y="541.8" type="curve" smooth="yes"/>
      <point x="334.485" y="541.8"/>
      <point x="258.60699999999997" y="508.10400000000004"/>
      <point x="162.288" y="460.912" type="curve"/>
      <point x="173.42700000000002" y="531.8" type="line"/>
      <point x="136.346" y="531.8" type="line"/>
      <point x="52.712999999999994" y="0.0" type="line"/>
      <point x="91.618" y="0.0" type="line"/>
      <point x="159.81900000000002" y="428.98499999999996" type="line"/>
      <point x="254.52999999999997" y="475.439"/>
      <point x="324.7289999999999" y="508.00100000000003"/>
      <point x="417.837" y="508.00100000000003" type="curve" smooth="yes"/>
      <point x="506.142" y="508.00100000000003"/>
      <point x="543.2320000000001" y="467.118"/>
      <point x="542.7280000000001" y="399.44800000000004" type="curve" smooth="yes"/>
      <point x="541.9720000000001" y="369.50600000000003"/>
      <point x="496.572" y="102.38400000000003"/>
      <point x="471.318" y="-58.365" type="curve" smooth="yes"/>
      <point x="458.01399999999995" y="-141.856"/>
      <point x="431.294" y="-189.79399999999998"/>
      <point x="372.544" y="-189.79399999999998" type="curve" smooth="yes"/>
      <point x="359.917" y="-189.79399999999998"/>
      <point x="343.569" y="-188.24699999999999"/>
      <point x="323.88100000000003" y="-180.64" type="curve"/>
      <point x="315.542" y="-214.21799999999996" type="line"/>
      <point x="332.544" y="-221.368"/>
      <point x="364.62899999999996" y="-223.822"/>
      <point x="378.82099999999997" y="-223.822" type="curve" smooth="yes"/>
      <point x="455.08" y="-223.822"/>
      <point x="493.263" y="-167.60500000000002"/>
    </contour>
  </outline>
</glyph>
